<?xml version="1.0" encoding="UTF-8"?>
<svg width="401.33" height="401.33" viewBox="0 0 301 301" xmlns="http://www.w3.org/2000/svg">
 <path d="m130.5 11.7c-9.9 5.8-20.1 11.7-22.6 13.2-2.5 1.4-23.3 13.4-46.2 26.6l-41.5 23.9.1 74.9.2 74.9 9.5 5.5c5.2 3 12.4 7.1 16 9.1 3.6 1.9 7.2 4.1 8.1 4.8.8.8 1.8 1.4 2.2 1.4.3 0 7 3.8 14.9 8.4s17.7 10.2 21.8 12.6c4.1 2.3 8.9 5 10.5 6 1.7 1 5.7 3.3 9 5.2s12.8 7.4 21 12.3c8.3 4.8 15.5 8.8 16 8.8.6 0 5.3-2.5 10.5-5.5 25.8-15 72.9-42.3 76-44 1.9-1 12.3-6.9 23-13.1l19.5-11.2.3-75.1.2-75.2-9.2-5.2c-5.1-2.9-10.8-6.2-12.7-7.2l-18.5-10.7c-50.6-29.4-88.4-51.1-89.2-51-.5 0-9 4.8-18.9 10.6z"/>
</svg>
