<?xml version="1.0" encoding="UTF-8"?>
<svg width="302" height="360" viewBox="0 0 302 360" xmlns="http://www.w3.org/2000/svg" xmlns:xlink="http://www.w3.org/1999/xlink">
 <defs>
  <path id="a" d="m60.758 48.702c26.737-3.4615 65.224 0.52978 65.015-28.814-0.20181-28.232 29.923-24.609 53.743-0.43555 21.189 21.503 34.667 33.808 74.883 45.586s59.664 51.499 39.329 66.793c-21.191 15.937-9.0703 21.679-5.194 51.297 3.8764 29.617-10.889 32.675-34.135 39.08-30.98 8.5352-14.485 29.762-13.73 52.313 2.1063 62.897-36.679 79.046-68.689 53.708-32.011-25.339-59.176-48.335-115.14-42.437-55.966 5.8983-78.667-49.336-28.791-100.27 14.932-15.248 13.831-43.87 4.2065-71.967-9.6248-28.097-7.0254-60.254 28.504-64.854z"/>
  <path id="b" d="m35.075 10.596-13.64-9.8649-21.069 18.147 1.2179 41.286 19.73 9.9867 17.416-11.448c3.4101-15.589 1.4615-33.37-3.6537-48.107z"/>
  <mask id="c" fill="#fff">
   <use fill="#fff" fill-rule="evenodd" xlink:href="#a"/>
  </mask>
  <mask id="d" fill="#fff">
   <path d="m62.758 48.702c26.737-3.4615 65.224 0.52978 65.015-28.814-0.20181-28.232 29.923-24.609 53.743-0.43555 21.189 21.503 22.914 31.624 69.82 45.586s64.727 51.499 44.392 66.793c-21.191 15.937-9.0703 21.679-5.194 51.297 3.8764 29.617-10.889 32.675-34.135 39.08-30.98 8.5352-14.485 29.762-13.73 52.313 2.1063 62.897-36.679 79.046-68.689 53.708-32.011-25.339-66.24-44.509-122.21-38.611-55.966 5.8983-71.603-53.162-21.726-104.09 14.932-15.248 13.831-43.87 4.2065-71.967-9.6248-28.097-7.0254-60.254 28.504-64.854z" fill="#fff" fill-rule="evenodd"/>
  </mask>
  <mask id="e" fill="#fff">
   <path d="m45.914 0.48716c58.824 68.324 54.44 221.05 22.775 275.49-5.3587 3.7755-13.762 5.9677-22.775 5.9677s-17.416-2.1922-22.775-5.9677c-31.543-54.561-35.928-207.16 22.775-275.49z" fill="#fff" fill-rule="evenodd"/>
  </mask>
  <mask id="f" fill="#fff">
   <use fill="#fff" fill-rule="evenodd" xlink:href="#b"/>
  </mask>
 </defs>
 <g transform="translate(0 -21)" fill="none" fill-rule="evenodd">
  <g transform="translate(.15124 41)">
   <use fill="#f1f0e9" xlink:href="#a"/>
   <g fill="#fff" stroke="#f1f0e9" stroke-width="1.3">
    <path transform="matrix(-.98481 -.17365 -.17365 .98481 353.35 30.914)" d="m153.46 294.83c-2.4608 2.8856-7.0264 5.3456-12.595 7.7347 4.4782 2.363 7.5112 4.3399 11.365 5.6129 4.1294-1.2033 9.0663-6.1901 10.205-8.5985-2.6162-1.38-5.3432-3.4717-8.9747-4.749z" mask="url(#c)"/>
    <path transform="matrix(-.82904 -.55919 -.55919 .82904 413.67 126.47)" d="m144.22 272.44c-4.4461 5.8398-13.163 10.723-19.219 10.698 3.2865 2.4754 5.2795 5.0215 7.6549 9.2168 0.30085 0.53135 1.569 2.8215 1.9189 3.44 0.69972 1.2368 1.3335 2.3039 2.0045 3.3582 6.473-2.5387 15.327-11.908 18.042-18.033-1.3289-0.88679-2.3196-1.8166-3.5073-3.1717-0.14922-0.17025-0.24631-0.28256-0.53632-0.61937-2.1548-2.5025-3.5108-3.6496-6.3577-4.889z" mask="url(#c)"/>
    <path transform="matrix(.37461 .92718 -.92718 .37461 255.98 120.46)" d="m41.729 240.71c-1.1399 1.0051-4.0919 3.8209-4.5898 4.2702-4.4317 3.9992-8.403 6.1793-13.241 6.474 2.1539 3.8647 5.3263 5.6147 11.26 7.1729 0.39922 0.10483 0.4811 0.12584 1.5013 0.38643 0.46721 0.11934 0.78694 0.2017 1.0934 0.28218 5.2766-1.1697 12.283-7.2944 15.797-12.216-1.1373-0.49881-2.1999-1.136-3.6336-2.1159-0.2044-0.1397-1.1374-0.78447-1.395-0.96018-2.4704-1.6845-4.3026-2.6303-6.7926-3.294z" mask="url(#c)"/>
    <path transform="matrix(.97815 -.20791 .20791 .97815 -58.403 44.582)" d="m184.53 293.45c-2.2326 2.8856-6.3749 5.3456-11.427 7.7347 4.0629 2.363 6.8148 4.3399 10.311 5.6129 3.7465-1.2033 8.2256-6.1901 9.2588-8.5985-2.3736-1.38-4.8478-3.4717-8.1426-4.749z" mask="url(#c)"/>
    <path transform="matrix(.76604 .64279 -.64279 .76604 193.87 29.188)" d="m58.469 274.26c-2.2287 2.8769-6.3704 5.3242-11.424 7.6987 4.0734 2.3695 6.8332 4.3503 10.337 5.6299 3.7484-1.1931 8.2215-6.1634 9.2504-8.5665-2.3797-1.3838-4.8618-3.4787-8.1636-4.7621z" mask="url(#c)"/>
    <path transform="matrix(.20791 .97815 -.97815 .20791 446.71 84.716)" d="m172.1 312.7c-1.4304 2.3669-4.0871 4.3825-7.3282 6.3391 2.6106 1.9441 4.379 3.5699 6.6248 4.6186 2.4039-0.98421 5.2743-5.0741 5.9352-7.0505-1.5251-1.1353-3.1155-2.8551-5.2318-3.9072z" mask="url(#c)"/>
    <path transform="matrix(-.25882 .96593 -.96593 -.25882 368.74 244.67)" d="m84.496 245.29c-18.449 6.5495-4.1275 19.574-11.748 16.951 10.93 5.559 15.688 12.334 17.996 20.077 10.066-2.8085 14.731-14.37 17.499-20.017-6.3854-3.2465-14.886-14.002-23.747-17.011z" mask="url(#c)"/>
    <g fill-rule="evenodd" mask="url(#c)">
     <path transform="matrix(.9563 .29237 -.29237 .9563 82.355 -12.093)" d="m85.365 259.3c-3.7396 7.2831-10.692 13.483-19.176 19.499 6.8433 5.9892 11.48 10.997 17.365 14.229 6.2935-3.025 13.8-15.609 15.525-21.691-3.9979-3.4977-8.1684-8.7946-13.715-12.037z" mask="url(#d)"/>
     <path transform="matrix(.76604 -.64279 .64279 .76604 -156.52 122.74)" d="m104.04 262.99c-8.2572 2.7732-24.143 4.5254-30.502 2.308 9.1167 4.7106 12.99 12.087 18.381 18.971 8.4126-2.4123 14.932-5.8546 17.256-10.668-5.3261-2.751-4.9646-5.5832-5.1353-10.611z" mask="url(#d)"/>
     <path transform="matrix(-.19081 -.98163 -.98163 .19081 420.14 347.99)" d="m125.38 277c-5.828 2.3543-17.043 3.8316-21.533 1.9368 6.4395 4.0213 9.9148 14.897 13.725 20.767 5.938-2.0467 10.539-4.9726 12.176-9.0705-3.762-2.3484-4.2448-9.3497-4.3684-13.633z" mask="url(#d)"/>
     <path transform="matrix(.76604 -.64279 .64279 .76604 -145 126.42)" d="m112.74 248.64c-8.2572 2.7732-19.917 4.1556-26.275 1.9383 5.7977 6.3203 7.0298 12.303 7.793 20.084 8.4126-2.4123 21.294-6.5978 23.617-11.411-5.3261-2.751-4.9646-5.5833-5.1353-10.611z" mask="url(#d)"/>
     <path transform="matrix(-.5 -.86603 -.86603 .5 435.12 252.37)" d="m133.59 262.3c-5.0171 5.7692-14.552 9.9109-20.91 7.6935 9.1167 4.7106 12.99 12.087 18.381 18.971 8.4126-2.4123 18.477-12.384 20.8-17.197-5.3261-2.751-10.877-6.9235-18.271-9.4674z" mask="url(#d)"/>
     <path transform="matrix(.87462 -.48481 .48481 .87462 -119.84 86.913)" d="m110.43 257.95c-5.0128 5.7715-14.541 9.9134-20.896 7.6933 9.1124 4.7155 12.985 12.097 18.375 18.987 8.4071-2.4118 18.463-12.387 20.784-17.203-5.3236-2.7539-10.872-6.9301-18.262-9.4772z" mask="url(#d)"/>
    </g>
    <path transform="matrix(-.43837 -.89879 -.89879 .43837 415.37 259.55)" d="m130.08 250.41c-5.7644 8.3984-13.995 7.307-24.904 9.8741 5.7973 7.0769 12.389 15.253 21.404 18.951 7.4706-8.1352 12.16-11.115 14.83-18.124-6.1192-4.0115-2.8345-6.9897-11.33-10.701z" mask="url(#c)"/>
    <path transform="matrix(-.81915 -.57358 -.57358 .81915 398.31 125.59)" d="m146.13 241.14c-4.88 6.8252-16.804 19.869-23.505 25.92 4.9679 0.10927 7.7771 1.1387 11.983 3.6556 0.1606 0.096152 0.1606 0.096152 0.32093 0.19212 1.5577 0.93192 2.4865 1.442 3.5647 1.9071 2.4764-2.2879 5.0401-5.3101 7.6998-8.9624 1.6292-2.2372 3.2089-4.5884 4.9132-7.2631 0.58265-0.9144 2.1153-3.3691 2.8898-4.5995-1.8992-0.93732-2.5844-2.3249-3.2277-5.2071-0.070021-0.3137-0.087402-0.39106-0.12062-0.53523-0.67176-2.9154-1.6483-4.2764-4.5176-5.1072z" mask="url(#c)"/>
    <path transform="matrix(-.32557 -.94552 -.94552 .32557 412.9 294.52)" d="m137.08 237.67c-6.2658 2.1575-16.841 7.0288-23.206 4.8128 9.1267 4.7071 13.005 12.076 18.403 18.955 8.4209-2.4086 18.494-12.369 20.819-17.177-5.3319-2.749-8.6131-4.0481-16.015-6.5904z" mask="url(#c)"/>
    <path transform="matrix(-.75471 .65606 .65606 .75471 -117.81 44.048)" d="m33.98 263.13c-2.0991 2.538-6.0982 4.3516-8.7721 3.3644 3.8359 2.091 5.4732 5.3505 7.7474 8.3953 3.5301-1.0523 7.7431-5.4371 8.7123-7.5573-2.241-1.2212-4.5783-3.0697-7.6877-4.2025z" mask="url(#c)"/>
    <path transform="matrix(.75471 -.65606 .65606 .75471 -139.07 137.15)" d="m124.49 237.24c-6.1279 6.5921-21.995 13.939-30.795 14.123 5.4801 3.323 9.247 7.4541 15.105 15.383 0.62371 0.84479 0.93643 1.2681 1.249 1.6894 1.0285 1.3863 1.8321 2.4463 2.6231 3.4497 8.4859-2.6108 20.171-12.658 23.757-19.22-2.1355-1.2623-3.2391-3.0585-4.8037-6.8593-0.10576-0.25718-0.10576-0.25718-0.21151-0.51416-0.081248-0.19718-0.14799-0.35827-0.21259-0.5128-1.7642-4.22-3.3852-6.3026-6.7108-7.539z" mask="url(#c)"/>
    <path transform="matrix(.89879 -.43837 .43837 .89879 -95.344 71.594)" d="m119.33 225.62c-6.1273 6.6018-22.004 13.957-30.793 14.124 4.5186 2.8019 7.4118 6.094 11.145 11.765 0.26858 0.40798 1.192 1.8209 1.2472 1.9051 0.50188 0.76568 0.89496 1.3579 1.2883 1.938 0.90826 1.3394 1.7466 2.5041 2.6198 3.6217 8.4782-2.6107 20.149-12.662 23.73-19.227-2.1802-1.2916-2.9683-2.9972-3.7937-6.671-0.085906-0.38236-0.10667-0.47433-0.14701-0.64949-0.87282-3.7897-2.0367-5.5969-5.2969-6.8065z" mask="url(#c)"/>
   </g>
   <g fill="#bfbfbf">
    <ellipse cx="230.88" cy="193.49" rx="1.8893" ry="1.8956" mask="url(#c)"/>
    <ellipse cx="136.96" cy="51.364" rx="1.8893" ry="1.8956" mask="url(#c)"/>
    <ellipse cx="237.92" cy="107.11" rx="1.8893" ry="1.8956" mask="url(#c)"/>
    <ellipse cx="201.92" cy="294" rx="1.1067" ry="1.1103" mask="url(#c)"/>
    <ellipse cx="224.62" cy="214.69" rx="1.1067" ry="1.1103" mask="url(#c)"/>
    <ellipse cx="189.4" cy="250.02" rx="1.1067" ry="1.1103" mask="url(#c)"/>
    <ellipse cx="243.4" cy="159.72" rx="1.1067" ry="1.1103" mask="url(#c)"/>
    <ellipse cx="291.92" cy="107.11" rx="1.1067" ry="1.1103" mask="url(#c)"/>
    <ellipse cx="54.79" cy="105.54" rx="1.1067" ry="1.1103" mask="url(#c)"/>
   </g>
   <ellipse cx="249.34" cy="129.84" rx="3.913" ry="3.9261" fill="#fbfbfa" mask="url(#c)"/>
   <ellipse cx="34.442" cy="200.56" rx="1.1067" ry="1.1103" fill="#bfbfbf" mask="url(#c)"/>
   <ellipse cx="62.616" cy="63.928" rx="1.1067" ry="1.1103" fill="#bfbfbf" mask="url(#c)"/>
   <ellipse cx="221.49" cy="261.8" rx="1.8893" ry="1.8956" fill="#bfbfbf" mask="url(#c)"/>
   <ellipse cx="201.92" cy="198.99" rx="1.8893" ry="1.8956" fill="#bfbfbf" mask="url(#c)"/>
   <ellipse cx="43.051" cy="226.47" rx="1.8893" ry="1.8956" fill="#bfbfbf" mask="url(#c)"/>
   <ellipse cx="82.964" cy="184.85" rx="1.8893" ry="1.8956" fill="#bfbfbf" mask="url(#c)"/>
   <path d="m88.621 106.79c4.2532 3.4067 6.9783 8.653 6.9783 14.538 0 10.268-8.2963 18.592-18.53 18.592-7.0717 0-13.218-3.9746-16.342-9.8188 3.168 2.5373 7.1834 4.0541 11.552 4.0541 10.234 0 18.53-8.324 18.53-18.592 0-3.1594-0.78545-6.1348-2.1711-8.7403z" fill="#fff" mask="url(#c)" opacity=".8"/>
   <ellipse cx="263.23" cy="120.14" rx="6.2609" ry="6.2818" fill="#fff" mask="url(#c)" opacity=".8"/>
  </g>
  <g transform="matrix(.92718 .37461 -.37461 .92718 177.62 .86532)">
   <path d="m54.44 0.48716c58.824 68.324 54.44 221.05 22.775 275.49-5.3587 3.7755-13.762 5.9677-22.775 5.9677-9.0124 0-17.416-2.1922-22.775-5.9677-31.543-54.561-35.928-207.16 22.775-275.49z" fill="#e7b12c" fill-rule="nonzero"/>
   <g transform="translate(8.5252)">
    <path d="m86.835 218.85c7.5509-44.94 6.5766-102.18-7.0638-150.77-2.314-2.6794-5.3587-6.6984-6.6984-8.647-2.1922-3.2883-4.628-1.0961-5.1151 0.36537-0.97431 2.8011-2.314 9.3777-4.5062 13.762-2.0704 4.1408-3.4101 2.5576-4.7498 0.73073-1.3397-1.8268-4.019-6.2112-5.8459-10.596-1.8268-4.3844-4.2626-3.5319-5.7241-0.12179s-4.9933 10.352-6.4548 12.666c-1.4615 2.4358-4.019 2.4358-4.5062 0.36537-0.36537-2.0704-2.8011-9.256-3.2883-13.519-0.60894-4.8716-4.2626-4.7498-5.9677-2.5576-2.0704 2.4358-5.4805 8.4034-7.1855 10.839s-4.1408 2.8011-4.2626-0.24358c-0.12179-3.8972 0.48716-11.326 0.85252-15.711-17.294 50.908-19.364 114.12-11.205 162.95 19.364 8.1599 60.894 6.8202 81.72 0.48716z"/>
    <g fill-rule="nonzero">
     <path d="m15.224 71.125c0.12179 3.0447 2.5576 2.6794 4.2626 0.24358 1.705-2.4358 5.1151-8.5252 7.1855-10.839 1.8268-2.0704 5.4805-2.314 5.9677 2.5576 0.48716 4.2626 2.9229 11.448 3.2883 13.519 0.36537 2.0704 3.0447 2.0704 4.5062-0.36537 1.4615-2.4358 4.9933-9.256 6.4548-12.666 1.4615-3.4101 3.8972-4.2626 5.7241 0.12179s4.5062 8.647 5.8459 10.596c1.3397 1.8268 2.8011 3.5319 4.7498-0.73073 2.0704-4.2626 3.4101-10.961 4.5062-13.762 0.48716-1.4615 2.9229-3.6537 5.1151-0.36537 1.3397 1.9486 4.5062 5.9677 6.6984 8.647-4.8716-17.416-11.448-33.614-19.73-47.863-8.0381 2.4358-20.095 3.5319-28.133-0.12179-6.333 10.717-11.57 22.531-15.833 35.197-0.12179 4.5062-0.73073 11.935-0.60894 15.833z" fill="#e7d1a2"/>
     <path d="m60.042 20.339c-4.2626-7.1855-8.8906-13.884-14.128-19.852-5.1151 5.9677-9.8649 12.666-14.006 19.852 7.9163 3.6537 20.095 2.4358 28.133 0z" fill="#373127"/>
     <path d="m9.4995 240.29c3.6537 14.128 8.2816 26.306 13.64 35.562 5.3587 3.7755 13.762 5.9677 22.775 5.9677s17.416-2.1922 22.775-5.9677c5.4805-9.3777 10.108-21.8 13.762-36.05-16.807 8.5252-52.613 9.256-72.952 0.48716z" fill="#c04747"/>
     <path d="m5.1151 219.71c0.73073 4.2626 1.5833 8.5252 2.4358 12.544h76.727c0.85252-3.8972 1.5833-7.9163 2.314-12.057-20.826 6.0894-61.869 7.5509-81.477-0.48716z" fill="#d1d1d1"/>
     <path d="m9.3777 239.56c20.339 8.8906 56.51 8.1599 73.317-0.48716 0.60894-2.1922 1.0961-4.5062 1.5833-6.8202h-76.727c0.60894 2.4358 1.2179 4.9933 1.8268 7.3073z" fill="#d1d1d1"/>
     <path d="m9.3777 239.56c0 0.24358 0.12179 0.48716 0.12179 0.73073 20.339 8.7688 56.145 8.0381 72.952-0.48716 0-0.24358 0.12179-0.48716 0.12179-0.73073-16.685 8.647-52.856 9.4995-73.195 0.48716z" fill="#5e5e5e"/>
     <path d="m4.9933 218.37c0.12179 0.48716 0.12179 0.85252 0.24358 1.3397 19.608 8.0381 60.651 6.6984 81.477 0.48716 0.12179-0.36537 0.12179-0.85252 0.24358-1.3397-20.948 6.333-62.478 7.6727-81.964-0.48716z" fill="#fff"/>
    </g>
   </g>
   <g fill-rule="nonzero">
    <path d="m0 304.59 19.486-82.816 5.1151 0.97431-20.217 83.06z" fill="#a3a3a3"/>
    <path d="m24.601 222.75-20.217 83.06 7.7945 6.2112 19.243-36.293z" fill="#737373"/>
    <path d="m4.3844 305.81 7.7945 6.2112-3.5319-1.3397-8.647-6.0894z" fill="#505050"/>
    <path d="m109 304.59-19.486-82.816-5.1151 0.97431 20.217 83.06z" fill="#a3a3a3"/>
    <path d="m84.4 222.75 20.217 83.06-7.9163 6.2112-19.121-36.293z" fill="#737373"/>
    <path d="m104.62 305.81-7.9163 6.2112 3.5319-1.3397 8.7688-6.0894z" fill="#505050"/>
   </g>
   <g transform="translate(8.5252)">
    <g mask="url(#e)">
     <g transform="translate(52.369 94.995)">
      <g fill-rule="nonzero">
       <use fill="#9abc74" xlink:href="#b"/>
       <path d="m13.762 48.35-7.9163 16.32-11.692-8.1599 6.942-12.301z" fill="#986546" mask="url(#f)"/>
       <path d="m-4.628 37.024c0.24358 9.8649 7.1855 18.877 15.833 18.512 5.3587-0.24358 8.4034-0.12179 11.205-7.6727 1.2179-3.4101 4.7498-6.942 5.3587-11.935 1.2179-9.8649-8.5252-17.903-17.172-17.538-8.647 0.36537-15.467 8.647-15.224 18.634z" fill="#cf885f" mask="url(#f)"/>
      </g>
      <path d="m7.1855 38.485c2.0704-1.3397 5.3587-2.0704 7.5509-0.97431" fill="none" mask="url(#f)" stroke="#19192d" stroke-width="1.0706"/>
      <path d="m20.948 36.658c1.8268-0.24358 3.2883 0 4.3844 0.85252" fill="none" mask="url(#f)" stroke="#19192d" stroke-width="1.0706"/>
      <path d="m19.73 49.69c-2.9229 4.5062-10.23 3.7755-9.3777-0.60894 2.4358 2.4358 6.8202 1.3397 9.3777 0.60894z" fill="#994c23" fill-rule="nonzero" mask="url(#f)"/>
      <circle cx="11.692" cy="41.652" r="2.0704" fill="#19192d" fill-rule="nonzero" mask="url(#f)"/>
      <circle cx="22.166" cy="40.921" r="1.8268" fill="#19192d" fill-rule="nonzero" mask="url(#f)"/>
      <path d="m19.608 45.184c-1.4615 2.314-3.4101 2.0704-4.9933 0.85252" fill="none" mask="url(#f)" stroke="#994c23" stroke-width="1.0706"/>
      <g fill-rule="nonzero">
       <path d="m-6.0894 39.703c-4.7498-3.0447-5.7241-7.4291-5.3587-12.788 0.85252-12.544 13.031-15.467 20.704-16.929 15.833-3.0447 30.082 13.153 18.877 23.871-0.24358-3.4101-8.647-8.2816-11.326-7.5509-0.48716 0.12179-4.5062 0.97431-1.705 3.1665-2.0704 0.60894-4.1408 0.73073-6.8202-1.0961 1.4615 0.97431 2.6794 1.5833 4.3844 3.4101-2.4358 0.36537-4.7498 0.24358-6.4548-1.8268 1.4615 3.4101-6.4548 6.333-6.4548 11.326 0 2.5576-4.019 0.85252-5.8459-1.5833z" fill="#19192d" mask="url(#f)"/>
       <path d="m18.147 65.157-10.108-10.717 1.8268-1.0961 9.6213 10.839z" fill="#e7c77f" mask="url(#f)"/>
       <path d="m8.8906 57.85c2.0704-0.60894 5.4805-2.1922 6.942-0.12179 1.4615 2.0704 4.5062 5.6023 4.5062 5.6023l-5.6023 3.6537-6.2112-1.0961-7.3073-4.9933z" fill="#cf885f" mask="url(#f)"/>
       <path d="m8.0381 54.44 1.8268-0.97431c-0.36537-1.2179-1.3397-2.5576-2.314-1.5833-0.97431 0.85252-0.85252 1.3397 0.48716 2.5576z" fill="#c35a5a" mask="url(#f)"/>
       <g fill="#e8eeed">
        <path d="m9.1342 75.266 10.352-15.102h11.692l-11.692 17.172z" mask="url(#f)"/>
        <path d="m37.146 28.864-12.422-5.8459-2.0704-16.198 10.717 6.6984c1.8268 4.3844 2.9229 9.0124 3.7755 15.345z" fill-opacity=".8" mask="url(#f)" opacity=".3"/>
       </g>
      </g>
     </g>
    </g>
    <path d="m91.22 153.7-17.416 11.448-19.73-9.9867-1.2179-41.286 21.069-18.147 13.64 9.8649c4.9933 14.736 6.942 32.518 3.6537 48.107zm-2.1922-51.03-16.198-11.692-25.454 21.313 1.8268 45.793 24.358 12.91 20.339-15.467c3.7755-18.634 1.2179-35.319-4.8716-52.856z" fill="#96732b" fill-rule="nonzero" mask="url(#e)"/>
   </g>
  </g>
 </g>
</svg>
