<svg height="360" viewBox="0 0 302 360" width="302" xmlns="http://www.w3.org/2000/svg" xmlns:xlink="http://www.w3.org/1999/xlink"><defs><path id="a" d="m60.7580313 48.7015731c26.7373774-3.461493 65.2243687.5297812 65.0146057-28.8138713-.201814-28.23167131 29.922555-24.60865326 53.743207-.4355514 21.189299 21.502816 34.666896 33.8078092 74.882812 45.5861002s59.664342 51.4993504 39.328744 66.7927254c-21.19107 15.936732-9.070312 21.679417-5.193954 51.296911 3.876359 29.617494-10.888866 32.675122-34.13479 39.079568-30.97973 8.535174-14.484853 29.762174-13.72968 52.312609 2.106318 62.8973-36.678668 79.046441-68.689198 53.70778-32.01053-25.338662-59.175585-48.335008-115.1412778-42.43666-55.96569291 5.898347-78.667486-49.335858-28.7910667-100.268198 14.9320398-15.248162 13.8313619-43.870059 4.2065217-71.967198-9.6248402-28.0971391-7.0253709-60.2544769 28.5040761-64.8542149z"/><path id="b" d="m35.0752 10.5956333-13.6403556-9.86489997-21.06947773 18.14654447 1.21788889 41.2864333 19.72980004 9.9866889 17.4158111-11.4481556c3.4100889-15.5889777 1.4614666-33.3701555-3.6536667-48.1066111z"/><mask id="c" fill="#fff"><use fill="#fff" fill-rule="evenodd" xlink:href="#a"/></mask><mask id="d" fill="#fff"><path d="m62.7580313 48.7015731c26.7373774-3.461493 65.2243687.5297812 65.0146057-28.8138713-.201814-28.23167131 29.922555-24.60865326 53.743207-.4355514 21.189299 21.502816 22.914334 31.6243508 69.819912 45.5861002s64.727242 51.4993504 44.391644 66.7927254c-21.19107 15.936732-9.070312 21.679417-5.193954 51.296911 3.876359 29.617494-10.888866 32.675122-34.13479 39.079568-30.97973 8.535174-14.484853 29.762174-13.72968 52.312609 2.106318 62.8973-36.678668 79.046441-68.689198 53.70778-32.01053-25.338662-66.240489-44.509058-122.2061822-38.610711-55.96569297 5.898348-71.6025816-53.161807-21.7261623-104.094147 14.9320398-15.248162 13.8313619-43.870059 4.2065217-71.967198-9.6248402-28.0971391-7.0253709-60.2544769 28.5040761-64.8542149z" fill="#fff" fill-rule="evenodd"/></mask><mask id="e" fill="#fff"><path d="m45.9144111.48715556c58.8240329 68.32356664 54.4396329 221.04683344 22.7745222 275.48646644-5.3587111 3.775456-13.7621444 5.967656-22.7745222 5.967656s-17.4158111-2.1922-22.7745222-5.967656c-31.54332223-54.561422-35.9277222-207.1628998 22.7745222-275.48646644z" fill="#fff" fill-rule="evenodd"/></mask><mask id="f" fill="#fff"><use fill="#fff" fill-rule="evenodd" xlink:href="#b"/></mask></defs><g fill="none" fill-rule="evenodd" transform="translate(0 -21)"><g transform="translate(.151244 41)"><use fill="#f1f0e9" xlink:href="#a"/><g fill="#fff" stroke="#f1f0e9" stroke-width="1.3"><path d="m153.459273 294.826352c-2.460793 2.885577-7.026386 5.34557-12.595325 7.734683 4.478164 2.362953 7.5112 4.339871 11.364976 5.612879 4.129394-1.20327 9.066268-6.190069 10.205073-8.598536-2.61619-1.379964-5.343193-3.471675-8.974724-4.749026z" mask="url(#c)" transform="matrix(-.98480775 -.17364818 -.17364818 .98480775 353.349006 30.914032)"/><path d="m144.224927 272.438938c-4.446054 5.839776-13.162598 10.723344-19.219285 10.697664 3.286538 2.475422 5.279536 5.021462 7.654929 9.216846.300848.531352 1.568983 2.821527 1.918866 3.439966.699724 1.236803 1.333516 2.303939 2.00449 3.358244 6.472971-2.538738 15.327405-11.908242 18.042354-18.032623-1.328877-.886789-2.319614-1.816588-3.507324-3.171726-.149217-.170252-.246306-.282565-.536318-.619372-2.154819-2.50251-3.510764-3.649608-6.357712-4.888999z" mask="url(#c)" transform="matrix(-.82903757 -.5591929 -.5591929 .82903757 413.673471 126.472672)"/><path d="m41.7294961 240.714489c-1.1398889 1.005057-4.0919004 3.820941-4.5897846 4.270238-4.4316617 3.99918-8.4029844 6.179297-13.2411263 6.474001 2.1539048 3.864706 5.3263149 5.614698 11.260032 7.172881.3992187.104834.4811007.125844 1.5013162.386428.4672121.119335.7869378.201695 1.0934083.282178 5.27661-1.169702 12.2828408-7.294389 15.7974225-12.215629-1.1372793-.498807-2.1998581-1.135969-3.633613-2.115905-.2044022-.139704-1.1373587-.784473-1.3950419-.960175-2.4704132-1.684462-4.3026467-2.630313-6.7926132-3.294017z" mask="url(#c)" transform="matrix(.37460659 .92718385 -.92718385 .37460659 255.982094 120.459171)"/><path d="m184.526247 293.448659c-2.232626 2.885577-6.374892 5.34557-11.427472 7.734683 4.062943 2.362954 6.814753 4.339871 10.311202 5.61288 3.746512-1.20327 8.225633-6.190069 9.258847-8.598536-2.373614-1.379964-4.847767-3.471676-8.142577-4.749027z" mask="url(#c)" transform="matrix(.9781476 -.20791169 .20791169 .9781476 -58.402514 44.582075)"/><path d="m58.4685303 274.25892c-2.228706 2.876852-6.370396 5.324213-11.4236888 7.69867 4.0734315 2.369475 6.8332171 4.350348 10.3369322 5.629903 3.7483561-1.1931 8.2214691-6.163381 9.2503853-8.566492-2.3797408-1.383775-4.861791-3.478657-8.1636287-4.762081z" mask="url(#c)" transform="matrix(.76604444 .64278761 -.64278761 .76604444 193.871639 29.188462)"/><path d="m172.097815 312.702578c-1.430376 2.366927-4.087069 4.382546-7.328209 6.339069 2.610551 1.944078 4.379037 3.569911 6.624847 4.618552 2.403884-.984206 5.274317-5.07407 5.935202-7.050466-1.525111-1.135342-3.115468-2.855149-5.23184-3.907155z" mask="url(#c)" transform="matrix(.20791169 .9781476 -.9781476 .20791169 446.714774 84.715971)"/><path d="m84.4962854 245.292886c-18.4489227 6.549529-4.1274853 19.573733-11.7475027 16.951026 10.9299297 5.55899 15.6881143 12.334376 17.9959709 20.076811 10.0659204-2.808515 14.7305054-14.370425 17.4986504-20.016692-6.385379-3.246452-14.8859913-14.001897-23.7471186-17.011145z" mask="url(#c)" transform="matrix(-.25881905 .96592583 -.96592583 -.25881905 368.736011 244.672517)"/><g fill-rule="evenodd" mask="url(#c)"><path d="m85.3648765 259.304813c-3.7396224 7.283128-10.6922764 13.482524-19.1759068 19.498897 6.8432918 5.989216 11.4800927 10.997208 17.3654419 14.229404 6.2934818-3.024993 13.799951-15.608903 15.5252292-21.691366-3.9979212-3.497704-8.168433-8.794626-13.7147643-12.036935z" mask="url(#d)" transform="matrix(.95630476 .2923717 -.2923717 .95630476 82.354717 -12.092662)"/><path d="m104.037473 262.994198c-8.2571697 2.773166-24.1431073 4.525364-30.5016318 2.30803 9.1167212 4.710624 12.9898762 12.086634 18.3811289 18.971292 8.4126329-2.412294 14.9321419-5.854552 17.2558269-10.667953-5.326086-2.751001-4.964642-5.583245-5.135324-10.611369z" mask="url(#d)" transform="matrix(.76604444 -.64278761 .64278761 .76604444 -156.515604 122.739586)"/><path d="m125.382107 277c-5.828002 2.354285-17.042712 3.8316-21.533351 1.936781 6.439543 4.021252 9.914837 14.897021 13.72548 20.766554 5.937988-2.046743 10.538745-4.972626 12.176306-9.07047-3.762049-2.34841-4.244786-9.349731-4.368435-13.632865z" mask="url(#d)" transform="matrix(-.190809 -.98162718 -.98162718 .190809 420.139908 347.985286)"/><path d="m112.738477 248.63664c-8.25717 2.773171-19.9166116 4.155601-26.2751361 1.938264 5.7977254 6.32027 7.0298288 12.303106 7.7930204 20.084345 8.4126327-2.412298 21.2937537-6.597812 23.6174397-11.411221-5.326086-2.751006-4.964642-5.583255-5.135324-10.611388z" mask="url(#d)" transform="matrix(.76604444 -.64278761 .64278761 .76604444 -144.995576 126.418771)"/><path d="m133.593398 262.300451c-5.017076 5.769246-14.551958 9.910874-20.910483 7.693536 9.116722 4.710633 12.989877 12.086656 18.381129 18.971326 8.412633-2.412297 18.476541-12.384043 20.800227-17.197452-5.326086-2.751006-10.876619-6.923521-18.270873-9.46741z" mask="url(#d)" transform="matrix(-.5 -.8660254 -.8660254 .5 435.115467 252.368733)"/><path d="m110.428483 257.952784c-5.012793 5.771521-14.5410812 9.913426-20.8963374 7.693318 9.1123824 4.715514 12.9849124 12.0968 18.3745284 18.986789 8.407097-2.411804 18.462776-12.387165 20.783992-17.202899-5.323551-2.753858-10.871738-6.930119-18.262183-9.477208z" mask="url(#d)" transform="matrix(.87461971 -.48480962 .48480962 .87461971 -119.844958 86.913035)"/></g><path d="m130.081864 250.412193c-5.764419 8.398447-13.995001 7.306991-24.904048 9.874144 5.797301 7.076945 12.388861 15.252559 21.404313 18.951333 7.47063-8.135174 12.159719-11.115476 14.829603-18.124131-6.119196-4.011531-2.834494-6.989655-11.329868-10.701346z" mask="url(#c)" transform="matrix(-.43837115 -.89879405 -.89879405 .43837115 415.366717 259.549931)"/><path d="m146.131438 241.139237c-4.88003 6.825244-16.804481 19.86884-23.505319 25.919804 4.967874.109271 7.777138 1.13867 11.982735 3.655573.160602.096152.160602.096152.320929.192118 1.5577.931922 2.486511 1.441959 3.564723 1.90712 2.476448-2.287925 5.040147-5.3101 7.699774-8.962434 1.629152-2.237235 3.208934-4.588436 4.913224-7.263141.582648-.914405 2.115315-3.369062 2.889829-4.599499-1.899152-.937315-2.584369-2.324902-3.227718-5.207118-.070021-.313695-.087402-.391065-.120622-.535234-.671764-2.915358-1.648296-4.276356-4.517555-5.107189z" mask="url(#c)" transform="matrix(-.81915204 -.57357644 -.57357644 .81915204 398.31242 125.587424)"/><path d="m137.079759 237.67263c-6.265756 2.157472-16.840968 7.028798-23.206298 4.812819 9.1267 4.707125 13.004872 12.076184 18.40262 18.954604 8.420861-2.408649 18.493586-12.368812 20.818944-17.176989-5.331915-2.748959-8.613104-4.04809-16.015266-6.590434z" mask="url(#c)" transform="matrix(-.32556815 -.94551858 -.94551858 .32556815 412.902618 294.520575)"/><path d="m33.9802799 263.130648c-2.099136 2.538017-6.0981747 4.351605-8.7720625 3.364413 3.8359336 2.091025 5.4732045 5.350469 7.747421 8.395301 3.5301128-1.052278 7.7431015-5.437093 8.7122958-7.557254-2.2409921-1.22116-4.5782704-3.069741-7.6876543-4.20246z" mask="url(#c)" transform="matrix(-.75470958 .65605903 .65605903 .75470958 -117.812658 44.048348)"/><path d="m124.488289 237.242961c-6.127946 6.592091-21.994702 13.938522-30.7953035 14.123143 5.4800974 3.32298 9.2470005 7.454125 15.1050305 15.382895.62371.844789.936427 1.26806 1.249014 1.68938 1.028509 1.386274 1.832113 2.446347 2.623077 3.449669 8.485936-2.610762 20.170518-12.658486 23.756872-19.219812-2.135545-1.262301-3.23913-3.058504-4.803748-6.859306-.105764-.25718-.105764-.25718-.21151-.514156-.081248-.197185-.147993-.358272-.212594-.512798-1.764234-4.220033-3.385246-6.302585-6.710838-7.539015z" mask="url(#c)" transform="matrix(.75470958 -.65605903 .65605903 .75470958 -139.073509 137.152334)"/><path d="m119.325661 225.615384c-6.127292 6.601823-22.0040051 13.956575-30.7926989 14.124479 4.5186003 2.801854 7.4118269 6.093994 11.1450769 11.764892.2685771.407975 1.19204 1.820866 1.247242 1.905084.501878.765682.894959 1.35794 1.288275 1.937959.908258 1.339397 1.746636 2.504097 2.619802 3.621716 8.478226-2.61073 20.14943-12.662265 23.729926-19.227105-2.18019-1.291601-2.96828-2.997156-3.793687-6.670995-.085906-.382363-.106671-.474332-.147013-.649494-.872822-3.789711-2.036687-5.596943-5.296923-6.806536z" mask="url(#c)" transform="matrix(.89879405 -.43837115 .43837115 .89879405 -95.344405 71.593521)"/></g><g fill="#bfbfbf"><ellipse cx="230.877196" cy="193.489102" mask="url(#c)" rx="1.889266" ry="1.895569"/><ellipse cx="136.964153" cy="51.364391" mask="url(#c)" rx="1.889266" ry="1.895569"/><ellipse cx="237.920675" cy="107.114968" mask="url(#c)" rx="1.889266" ry="1.895569"/><ellipse cx="201.920675" cy="293.997185" mask="url(#c)" rx="1.106658" ry="1.110349"/><ellipse cx="224.616327" cy="214.690026" mask="url(#c)" rx="1.106658" ry="1.110349"/><ellipse cx="189.398935" cy="250.024899" mask="url(#c)" rx="1.106658" ry="1.110349"/><ellipse cx="243.398935" cy="159.724668" mask="url(#c)" rx="1.106658" ry="1.110349"/><ellipse cx="291.920675" cy="107.114968" mask="url(#c)" rx="1.106658" ry="1.110349"/><ellipse cx="54.79024" cy="105.544529" mask="url(#c)" rx="1.106658" ry="1.110349"/></g><ellipse cx="249.335756" cy="129.839939" fill="#fbfbfa" mask="url(#c)" rx="3.913043" ry="3.926097"/><ellipse cx="34.442414" cy="200.556077" fill="#bfbfbf" mask="url(#c)" rx="1.106658" ry="1.110349"/><ellipse cx="62.616327" cy="63.927901" fill="#bfbfbf" mask="url(#c)" rx="1.106658" ry="1.110349"/><ellipse cx="221.485892" cy="261.80319" fill="#bfbfbf" mask="url(#c)" rx="1.889266" ry="1.895569"/><ellipse cx="201.920675" cy="198.985638" fill="#bfbfbf" mask="url(#c)" rx="1.889266" ry="1.895569"/><ellipse cx="43.051109" cy="226.468317" fill="#bfbfbf" mask="url(#c)" rx="1.889266" ry="1.895569"/><ellipse cx="82.964153" cy="184.851689" fill="#bfbfbf" mask="url(#c)" rx="1.889266" ry="1.895569"/><path d="m88.6207765 106.789155c4.2531822 3.406685 6.9782976 8.65302 6.9782976 14.537962 0 10.268148-8.2963026 18.592126-18.5303106 18.592126-7.0717326 0-13.2182392-3.974578-16.3415384-9.818756 3.1679588 2.537305 7.1834393 4.054062 11.5519997 4.054062 10.234008 0 18.5303106-8.323978 18.5303106-18.592125 0-3.15943-.7854488-6.134797-2.1711163-8.740253z" fill="#fff" mask="url(#c)" opacity=".8"/><ellipse cx="263.226347" cy="120.138568" fill="#fff" mask="url(#c)" opacity=".8" rx="6.26087" ry="6.281755"/></g><g transform="matrix(.92718385 .37460659 -.37460659 .92718385 177.616142 .865319)"><path d="m54.4396333.48715556c58.8240337 68.32356664 54.4396337 221.04683344 22.7745223 275.48646644-5.3587112 3.775456-13.7621445 5.967656-22.7745223 5.967656-9.0123777 0-17.4158111-2.1922-22.7745222-5.967656-31.54332221-54.561422-35.92772221-207.1628998 22.7745222-275.48646644z" fill="#e7b12c" fill-rule="nonzero"/><g transform="translate(8.525222)"><path d="m86.8354778 218.854633c7.5509111-44.9401 6.5766-102.180877-7.0637556-150.7746441-2.3139889-2.6793556-5.3587111-6.6983889-6.6983889-8.6470111-2.1922-3.2883-4.6279777-1.0961-5.1151333.3653666-.9743111 2.8011445-2.3139889 9.3777445-4.5061889 13.7621445-2.0704111 4.1408222-3.4100889 2.5575667-4.7497667.7307333-1.3396777-1.8268333-4.0190333-6.2112333-5.8458666-10.5956333-1.8268334-4.3844-4.2626111-3.5318778-5.7240778-.1217889s-4.9933444 10.3520556-6.4548111 12.6660444c-1.4614667 2.4357778-4.0190333 2.4357778-4.5061889.3653667-.3653667-2.0704111-2.8011444-9.2559555-3.2883-13.5185667-.6089444-4.8715555-4.2626111-4.7497666-5.9676556-2.5575666-2.0704111 2.4357778-5.4805 8.4034333-7.1855444 10.8392111s-4.1408222 2.8011444-4.2626111-.2435778c-.1217889-3.8972444.4871555-11.3263667.8525222-15.7107667-17.29402221 50.9077556-19.36443332 114.1161886-11.20457777 162.9535336 19.36443337 8.159855 60.89444447 6.820178 81.72034447.487155z"/><g fill-rule="nonzero"><path d="m15.2236111 71.1247111c.1217889 3.0447222 2.5575667 2.6793556 4.2626111.2435778 1.7050445-2.4357778 5.1151334-8.5252222 7.1855445-10.8392111 1.8268333-2.0704111 5.4805-2.3139889 5.9676555 2.5575666.4871556 4.2626112 2.9229334 11.4481556 3.2883 13.5185667.3653667 2.0704111 3.0447222 2.0704111 4.5061889-.3653667 1.4614667-2.4357777 4.9933445-9.2559555 6.4548111-12.6660444 1.4614667-3.4100889 3.8972445-4.2626111 5.7240778.1217889s4.5061889 8.6470111 5.8458667 10.5956333c1.3396777 1.8268334 2.8011444 3.5318778 4.7497666-.7307333 2.0704111-4.2626111 3.4100889-10.961 4.5061889-13.7621445.4871556-1.4614666 2.9229334-3.6536666 5.1151334-.3653666 1.3396777 1.9486222 4.5061888 5.9676555 6.6983888 8.6470111-4.8715555-17.4158111-11.4481555-33.6137333-19.7298-47.8630333-8.0380666 2.4357777-20.0951666 3.5318777-28.1332333-.1217889-6.3330222 10.7174222-11.5699444 22.5309444-15.8325555 35.1969889-.1217889 4.5061888-.7307334 11.9353111-.6089445 15.8325555z" fill="#e7d1a2"/><path d="m60.0419222 20.3387444c-4.2626111-7.1855444-8.8905889-13.88393329-14.1275111-19.85158884-5.1151333 5.96765555-9.8649 12.66604444-14.0057222 19.85158884 7.9162778 3.6536667 20.0951667 2.4357778 28.1332333 0z" fill="#373127"/><path d="m9.49953333 240.289478c3.65366667 14.127511 8.28164447 26.3064 13.64035557 35.562355 5.3587111 3.775456 13.7621444 5.967656 22.7745222 5.967656s17.4158111-2.1922 22.7745222-5.967656c5.4805-9.377744 10.1084778-21.800211 13.7621445-36.049511-16.8068667 8.525222-52.6128 9.255956-72.95154447.487156z" fill="#c04747"/><path d="m5.11513333 219.707156c.73073334 4.262611 1.58325556 8.525222 2.43577778 12.544255h76.72699999c.8525222-3.897244 1.5832556-7.916278 2.3139889-12.0571-20.8259 6.089445-61.8687556 7.550911-81.47676667-.487155z" fill="#d1d1d1"/><path d="m9.37774444 239.558744c20.33874446 8.890589 56.51004446 8.159856 73.31691116-.487155.6089444-2.1922 1.0961-4.506189 1.5832555-6.820178h-76.72699999c.60894445 2.435778 1.21788889 4.993345 1.82683333 7.307333z" fill="#d1d1d1"/><path d="m9.37774444 239.558744c0 .243578.12178889.487156.12178889.730734 20.33874447 8.7688 56.14467777 8.038066 72.95154447-.487156 0-.243578.1217889-.487155.1217889-.730733-16.6850778 8.647011-52.8563778 9.499533-73.19512226.487155z" fill="#5e5e5e"/><path d="m4.99334444 218.367478c.12178889.487155.12178889.852522.24357778 1.339678 19.60801108 8.038066 60.65086668 6.698388 81.47676668.487155.1217889-.365367.1217889-.852522.2435778-1.339678-20.9476889 6.333023-62.4777 7.6727-81.96392226-.487155z" fill="#fff"/></g></g><g fill-rule="nonzero"><path d="m0 304.594011 19.4862222-82.816444 5.1151334.974311-20.2169556 83.060022z" fill="#a3a3a3"/><path d="m24.6013556 222.751878-20.2169556 83.060022 7.7944889 6.211233 19.2426444-36.293089z" fill="#737373"/><path d="m4.3844 305.8119 7.7944889 6.211233-3.53187779-1.339677-8.64701111-6.089445z" fill="#505050"/><path d="m109.001056 304.594011-19.4862227-82.816444-5.1151333.974311 20.216956 83.060022z" fill="#a3a3a3"/><path d="m84.3997 222.751878 20.216956 83.060022-7.9162782 6.211233-19.1208556-36.293089z" fill="#737373"/><path d="m104.616656 305.8119-7.9162782 6.211233 3.5318782-1.339677 8.7688-6.089445z" fill="#505050"/></g><g transform="translate(8.525222)"><g mask="url(#e)"><g transform="translate(52.369222 94.995333)"><g fill-rule="nonzero"><use fill="#9abc74" xlink:href="#b"/><path d="m13.7621444 48.3501889-7.91627773 16.3197111-11.69173334-8.1598556 6.94196667-12.3006777z" fill="#986546" mask="url(#f)"/><path d="m-4.62797778 37.0238222c.24357778 9.8649 7.18554445 18.8772778 15.83255558 18.5119111 5.3587111-.2435777 8.4034333-.1217889 11.2045778-7.6727 1.2178888-3.4100889 4.7497666-6.9419666 5.3587111-11.9353111 1.2178889-9.8649-8.5252223-17.9029666-17.1722334-17.5376-8.64701108.3653667-15.46718886 8.6470111-15.22361108 18.6337z" fill="#cf885f" mask="url(#f)"/></g><path d="m7.18554444 38.4852889c2.07041112-1.3396778 5.35871116-2.0704111 7.55091116-.9743111" fill="none" mask="url(#f)" stroke="#19192d" stroke-width="1.0706"/><path d="m20.9476889 36.6584556c1.8268333-.2435778 3.2883 0 4.3844.8525222" fill="none" mask="url(#f)" stroke="#19192d" stroke-width="1.0706"/><path d="m19.7298 49.6898667c-2.9229333 4.5061889-10.23026667 3.7754555-9.3777444-.6089445 2.4357777 2.4357778 6.8201777 1.3396778 9.3777444.6089445z" fill="#994c23" fill-rule="nonzero" mask="url(#f)"/><circle cx="11.691733" cy="41.6518" fill="#19192d" fill-rule="nonzero" mask="url(#f)" r="2.070411"/><circle cx="22.165578" cy="40.921067" fill="#19192d" fill-rule="nonzero" mask="url(#f)" r="1.826833"/><path d="m19.6080111 45.1836778c-1.4614667 2.3139889-3.4100889 2.0704111-4.9933444.8525222" fill="none" mask="url(#f)" stroke="#994c23" stroke-width="1.0706"/><g fill-rule="nonzero"><path d="m-6.08944444 39.7031778c-4.74976666-3.0447222-5.72407776-7.4291222-5.35871116-12.7878334.8525223-12.5442555 13.03141116-15.4671888 20.70411116-16.92865551 15.83255554-3.04472222 30.08185554 13.15320001 18.87727774 23.87062221-.2435777-3.4100889-8.6470111-8.2816444-11.3263666-7.5509111-.4871556.1217889-4.5061889.9743111-1.7050445 3.1665111-2.0704111.6089445-4.1408222.7307333-6.82017776-1.0961 1.46146667.9743111 2.67935556 1.5832556 4.38439996 3.4100889-2.4357777.3653667-4.74976662.2435778-6.45481107-1.8268333 1.46146667 3.4100889-6.45481111 6.3330222-6.45481111 11.3263666 0 2.5575667-4.01903333.8525223-5.84586666-1.5832555z" fill="#19192d" mask="url(#f)"/><path d="m18.1465444 65.1570556-10.10847773-10.7174223 1.82683333-1.0961 9.6213222 10.8392111z" fill="#e7c77f" mask="url(#f)"/><path d="m8.89058889 57.8497222c2.07041111-.6089444 5.48050001-2.1922 6.94196671-.1217889 1.4614666 2.0704111 4.5061888 5.6022889 4.5061888 5.6022889l-5.6022888 3.6536667-6.21123338-1.0961-7.30733333-4.9933445z" fill="#cf885f" mask="url(#f)"/><path d="m8.03806667 54.4396333 1.82683333-.9743111c-.36536667-1.2178889-1.33967778-2.5575666-2.31398889-1.5832555-.97431111.8525222-.85252222 1.3396777.48715556 2.5575666z" fill="#c35a5a" mask="url(#f)"/><g fill="#e8eeed"><path d="m9.13416667 75.2655333 10.35205553-15.1018222h11.6917334l-11.6917334 17.1722333z" mask="url(#f)"/><path d="m37.1456111 28.8639667-12.4224667-5.8458667-2.0704111-16.19792222 10.7174223 6.69838892c1.8268333 4.3844 2.9229333 9.0123777 3.7754555 15.3454z" fill-opacity=".8" mask="url(#f)" opacity=".3"/></g></g></g></g><path d="m91.2198778 153.697578-17.4158111 11.448155-19.7298-9.986689-1.2178889-41.286433 21.0694778-18.1465443 13.6403555 9.8649003c4.9933445 14.736455 6.9419667 32.517633 3.6536667 48.106611zm-2.1922-51.029545-16.1979222-11.691733-25.4538778 21.313056 1.8268333 45.792622 24.3577778 12.909622 20.3387444-15.467189c3.7754556-18.6337 1.2178889-35.318778-4.8715555-52.856378z" fill="#96732b" fill-rule="nonzero" mask="url(#e)"/></g></g></g></svg>