<svg xmlns="http://www.w3.org/2000/svg" viewBox="0 0 24 24"><path fill="none" stroke="#3e9096" stroke-linejoin="round" d="M10 13.5H.5V19"/><path fill="none" stroke="#3e9096" stroke-linejoin="round" d="M.5 14V8.5H13M.5 3.5h11v5H.5zM4.5 3.5v5M8.5 8.5v5M4.5 13.5v5M16.5 19v4.5"/><path d="M17 6.64a1.49 1.49 0 002.12.14L23 3.27a1.45 1.45 0 00.5-1 1.42 1.42 0 00-.37-1.08A1.48 1.48 0 0021 1l-3.86 3.53A1.49 1.49 0 0017 6.64z" fill="none" stroke="#3e9096" stroke-linecap="round" stroke-linejoin="round"/><path fill="none" stroke="#3e9096" stroke-linecap="round" stroke-linejoin="round" d="M17.02 6.66l3.2 3.69-3.75 3.31"/><path d="M14 10.37a1.46 1.46 0 012.5-.5l3.5 3.5a1.45 1.45 0 01-.5 2.5l-9 3.5z" fill="none" stroke="#3e9096" stroke-linecap="round" stroke-linejoin="round"/><path fill="none" stroke="#3e9096" stroke-linejoin="round" d="M18.52 18.5h4.98v5H.5v-5h8v5"/><path fill="none" d="M0 0h24v24H0z"/></svg>