<svg xmlns="http://www.w3.org/2000/svg" viewBox="0 0 800 1600"><path fill="#c0bec2" d="M680 1072.2h20v400h-20z"/><path fill="#b0acb0" d="M700 1072.2h20v400h-20z"/><path d="M440 1152.2v40h20v-40z"/><path fill="#ffd800" d="M740 1132.2v20h-20v20h-20v20h60v-60zM440 1112.2v40h20v-40z"/><path d="M440 1092.2h20v20h-20zM600 1092.2h-20v40h20v-20h20v-20z"/><path fill="#ffd800" d="M640 1092.2h-20v20h-20v20h-20v40h20v-20h20v-20h20v-20h20v-20z"/><path d="M680 1092.2h-20v20h-20v20h-20v20h-20v20h-20v20h40v-20h20v-20h20v-20h20v-20h20v-20z"/><path fill="#ffd800" d="M720 1092.2h-20v20h-20v20h-20v20h-20v20h-20v20h40v-20h20v-20h20v-20h20v-20h20v-20z"/><path d="M740 1092.2v20h-20v20h-20v20h-20v20h-20v20h40v-20h20v-20h20v-20h20v-40zM440 1312.2v40h20v-40z"/><path fill="#ffd800" d="M740 1292.2v20h-20v20h-20v20h60v-60zM440 1272.2v40h20v-40z"/><path d="M440 1252.2h20v20h-20zM600 1252.2h-20v40h20v-20h20v-20z"/><path fill="#ffd800" d="M640 1252.2h-20v20h-20v20h-20v40h20v-20h20v-20h20v-20h20v-20z"/><path d="M680 1252.2h-20v20h-20v20h-20v20h-20v20h-20v20h40v-20h20v-20h20v-20h20v-20h20v-20z"/><path fill="#ffd800" d="M720 1252.2h-20v20h-20v20h-20v20h-20v20h-20v20h40v-20h20v-20h20v-20h20v-20h20v-20z"/><path d="M740 1252.2v20h-20v20h-20v20h-20v20h-20v20h40v-20h20v-20h20v-20h20v-40zM700 832.2v40h20v-40zM660 832.2v40h20v-40z"/><path fill="#b0acb0" d="M660 732.2v60h20v-60z"/><path fill="#e4b69d" d="M640 572.2v160h20v-160z"/><path fill="#efc7b0" d="M640 732.2v-160h-40v200h60v-40z"/><path d="M580 832.2v40h20v-40z"/><path fill="#b0acb0" d="M580 732.2v60h20v-60z"/><path fill="#15aef1" d="M640 532.2h-60v40h80v-40z"/><path d="M540 832.2v40h20v-40z"/><path fill="#0dccf1" d="M640 392.2v-20h-60v60h-20v-20h-20v60h20v20h20v40h80v-140z"/><path fill="#c0bec2" d="M740 852.2h-20v20h-20v-20h-20v20h-20v-20h-60v20h-20v-20h-20v20h-20v-20h-40v100h260v-100z"/><path fill="#989498" d="M740 792.2H500v60h40v-20h20v20h20v-20h20v20h60v-20h20v20h20v-20h20v20h40v-60z"/><path fill="#e4b69d" d="M520 332.2v-20h-20v60h40v-40z"/><path fill="#c89914" d="M600 1432.2H460v40h160v-40zM560 372.2v-160H460v20h60v20h-20v60h20v20h20v80h20v20h20v-60z"/><path fill="#fb0d41" d="M480 532.2h-80v100h100v-100z"/><path fill="#c11441" d="M480 492.2h-80v40h100v-40z"/><path fill="#0dccf1" d="M480 392.2h-80v20h100v-20z"/><path fill="#fff000" d="M440 112.2h-40v20h-20v40h20v-20h20v-20h40v-20z"/><path d="M560 492.2v-20h-20v-100h-40v40H400v-40h-40v1060h60v-640h40v640h120v-480h-80v-160h80v-300h-20zm-60 20v120H400v-140h100v20z" fill="#281857"/><path fill="#efc7b0" d="M480 252.2h-40v20h-60v-20h-20v80h40v60h100v-140zM440 212.2h-80v20h100v-20z"/><path d="M340 1332.2h20v20h-20z"/><path fill="#ffd800" d="M340 1252.2v80h20v-80z"/><path d="M340 1172.2h20v20h-20z"/><path fill="#ffd800" d="M340 1092.2v80h20v-80z"/><path d="M500 232.2H340v40h20v-20h20v20h60v-20h80v-20z"/><path fill="#ffaf00" d="M540 132.2v-20h-20v-20H400v20h60v20h-40v20h-20v20h-20v-40h-20v40h-40v40h240v-80z"/><path fill="#ffaf00" d="M380 112.2h20v20h-20z"/><path fill="#c89914" d="M420 1432.2H300v40h140v-40z"/><path fill="#15aef1" d="M340 492.2h-40v40h60v-40z"/><path fill="#0dccf1" d="M340 372.2v20h-20v20h-20v80h60v-120z"/><path fill="#e4b69d" d="M340 532.2v120H220v20h140v-140z"/><path fill="#7d8589" d="M200 672.2h-20v40h40v-40z"/><path fill="#ffaf00" d="M180 1012.2h-20v80h40v-80z"/><path fill="#efc7b0" d="M320 532.2v80H160v60h60v-20h120v-120z"/><path fill="#e9e9ea" d="M200 1092.2h-60v80h80v-80z"/><path fill="#7d8589" d="M240 412.2v-20h-20v80h-40v-80h-20v20h-20v100h20v20h20v80h40v-80h20v-20h20v-100z"/><path fill="#ffaf00" d="M220 1172.2H120v80h120v-80z"/><path fill="#e9e9ea" d="M240 1252.2H100v80h160v-80zM260 1412.2H80v40h200v-40z"/><path fill="#ffaf00" d="M260 1332.2H80v80h200v-80zM280 1452.2H40v20h260v-20z"/><path d="M420 792.2v640h20v-640z"/></svg>