<svg xmlns="http://www.w3.org/2000/svg" viewBox="0 0 565.46 1111.32"><path d="M60.8,120.3a96.2,96.2,0,0,0-.64,15.53L4.82,186.49l-4.82-5Z" style="fill:#a6544f"/><path d="M107.67,253.27c-.29-10.79-10.43-105.37-10.43-105.37l27.45-42.77-11.12-23L97.41,56.54l-34.24,40-6.65,34.91c12.6,12.51,7.34,153.33,7.34,153.33Z" style="fill:#ffac9d"/><path d="M105.51,82.88c-1.09-1.74-2.26-3.42-3.46-5.07l49.26-49.56a8.67,8.67,0,1,1,12,12.5l-53.55,49C108.33,87.49,107,85.17,105.51,82.88Z" style="fill:#a6544f"/><path d="M159.82,33c7.7.48,20.31-4.34,20.31-4.34S187.93,11.2,202,4.21C203.69-3.33,161.44-4.43,159.82,33Z" style="fill:#382636"/><path d="M180.13,28.63c-.68-3.68,1-15.39,1-15.39l-9.93,7s-1.69-5,3.47-12.06S191.4-.86,202,4.21C202,4.21,183.93,14.23,180.13,28.63Z" style="fill:#ee2a7b"/><path d="M246,589.09C219.08,563,159.61,434.65,159.61,434.65L108.44,158.94l-57.73,34.7S55.47,481.2,60.4,504.27s84.51,196.92,84.51,196.92Z" style="fill:#382636"/><path d="M402.49,604.77C419.4,629.5,500.28,691.62,564.75,784l-50.58,41.8S345,696.46,351.23,695.3,402.49,604.77,402.49,604.77Z" style="fill:#382636"/><path d="M263.37,385.44c-1.55,11.07-75.69,41.27-75.69,41.27,2,5,12.54,7.62,9.59,15.8-6.87,19.05-22.13,41.23-22.13,41.23l57.37,41.88-9.85,86.67,72.1,1-4.37-81.89s59.07-18.84,71-55.56S341.39,360.22,263.37,385.44Z" style="fill:#ffac9d"/><path d="M221.57,545c10.26-.61,91.55,14.77,91.55,14.77l-7.61,25.39s91.6,29,103.85,28.69-42.78,146.65-38.13,171.72S401.92,916,401.92,916s-162.2,55.41-314.45-28.16l39.86-162.65L113.54,619.5l75-71L219.08,563Z" style="fill:#382636"/><path d="M336.29,583.35c-47.93,37.94-115.33,392.25-36.83,528L480.3,996.09S367.38,901,395.58,742.17c0,0-48.27-106.42-37.28-141.52Z" style="fill:#ff6b57"/><path d="M296.64,341.8c-65.1,43.85-37.23,106.73-37.23,106.73s30.71,57.18-5.67,84.67,33.53,51.47,22.22,74.31-4.62,62.43,24.38,44.09,15.54-38.54,45.25-18.13,2.78-20,50.08-23.55,57.07-59.2,36.78-74.24-42.86-28.34-32.1-47.19,6-72.42-21.38-80.3S296.64,341.8,296.64,341.8Z" style="fill:#a9534f"/><path d="M217.08,562.69c-2.5,18-80.62,477.12-30,537.07-150.8-86.09-100.95-93.4-151.67-167.6l84.78-199.82L101.5,676.83Z" style="fill:#ff6b57"/><path d="M563.31,779.74c-76.13-8.55-212.91-78.45-212.91-78.45l11.73,91.16,164.34,47.28,39-17Z" style="fill:#4e394c"/><rect x="169.83" y="655.85" width="161.23" height="211.61" transform="translate(849.75 1294.25) rotate(149.83)" style="fill:#fefefe"/><path d="M373,728.85c-5.71-2.83-62.92-59.62-62.92-59.62l-46.92,30.1,11.7,3.66,23.34-6.92-28.67,30.6,24.61,27.84,28.45-14.36,51.67,23.47Z" style="fill:#ffac9d"/><path d="M189,449.88l7.95-4.4,11.15,25.41s-16.73-5.08-20.86-8.4S189,449.88,189,449.88Z" style="fill:#dc474c"/><path d="M385.6,493.15C326,459.87,338.79,362.37,338.79,362.37l23,.14a33,33,0,0,1,32.54,28.38c2.3,16.55,8.77,36.16,25.75,46.35C452.89,457,429.3,527.55,385.6,493.15Z" style="fill:#382636"/><path d="M385.36,426.29c24.1-10.86,64.57-7.06,64.57-7.06l-7.15-19.45S393.81,412.46,385.36,426.29Z" style="fill:#382636"/></svg>