<?xml version="1.0" encoding="UTF-8"?>
<svg viewBox="0 0 116.41 302.06" xmlns="http://www.w3.org/2000/svg">
<rect x="77.7" y="38.97" width="9.74" height="9.75"/>
<rect x="67.95" y="155.9" width="9.75" height="9.74" fill="#ffbf00"/>
<rect x="58.21" y="155.9" width="9.74" height="9.74" fill="#ffee58"/>
<rect x="48.46" y="155.9" width="9.75" height="9.74" fill="#ffee58"/>
<rect x="48.46" y="58.46" width="19.49" height="9.75" fill="#fff"/>
<rect x="38.71" y="155.9" width="9.75" height="9.74" fill="#ffbf00"/>
<polygon points="28.98 194.88 28.98 292.31 48.46 292.31 48.46 204.62 67.95 204.62 67.95 292.31 87.43 292.31 87.43 194.88" fill="#27cdef"/>
<polygon points="77.69 165.64 38.71 165.64 28.98 175.39 28.98 194.88 87.43 194.88 87.43 175.39" fill="#281b56"/>
<polygon points="48.46 155.91 67.95 155.91 67.95 126.67 77.69 116.92 38.71 116.92 48.46 126.67" fill="#281b56"/>
<rect x="28.98" y="38.97" width="9.74" height="9.75"/>
<rect x="87.43" y="68.2" width="9.75" height="9.75" fill="#ff1744"/>
<polygon points="87.43 97.44 77.69 97.44 77.69 116.92 67.95 126.67 67.95 155.91 77.69 155.91 87.43 146.16 87.43 185.13 97.18 185.13 97.18 107.18 87.43 107.18" fill="#f81746"/>
<polygon points="38.71 97.44 28.98 97.44 28.98 107.18 19.23 107.18 19.23 185.13 28.98 185.13 28.98 146.16 38.71 155.91 48.46 155.91 48.46 126.67 38.71 116.92" fill="#f81746"/>
<rect x="87.43" y="185.13" width="9.75" height="9.75" fill="#efc7b0"/>
<path d="M87.43,39v9.75H77.7V39H68V29.23H58.21V19.49H38.71v9.74H29V39h9.73v9.75H29V39H19.23V68.2H29V78H48.46V97.44H38.71v19.48h39V97.44H68V78H87.43V68.2h9.75V39Zm-39,29.23V58.46H68V68.2Z" fill="#efc7b0"/>
<rect x="19.23" y="185.13" width="9.75" height="9.75" fill="#efc7b0"/>
<rect x="19.23" y="29.23" width="9.75" height="9.74"/>
<polygon points="106.67 87.69 106.67 77.95 77.43 77.95 77.43 87.69 87.18 87.69 87.18 107.18 96.93 107.18 96.93 116.92 106.67 116.92 106.67 107.18 116.41 107.18 116.41 87.69" fill="#0f0f0d"/>
<polygon points="9.75 87.69 9.75 77.95 38.98 77.95 38.98 87.69 29.23 87.69 29.23 107.18 19.49 107.18 19.49 116.92 9.75 116.92 9.75 107.18 0 107.18 0 87.69" fill="#0f0f0d"/>
<polygon points="77.69 292.31 77.69 302.06 97.18 302.06 87.43 292.31" fill="#0f0f0d"/>
<polygon points="67.95 302.06 77.69 292.31 67.95 292.31" fill="#0f0f0d"/>
<polygon points="67.95 29.23 67.95 38.97 97.18 38.97 97.18 68.2 106.93 68.2 106.93 19.49 97.18 19.49 97.18 9.74 87.43 9.74 87.43 0 28.98 0 28.98 9.74 19.23 9.74 19.23 19.49 9.49 19.49 9.49 68.2 19.23 68.2 19.23 38.97 19.23 29.23 28.98 29.23 38.71 29.23 38.71 19.49 48.46 19.49 58.21 19.49 58.21 29.23" fill="#0f0f0d"/>
<polygon points="48.46 302.06 48.46 292.31 38.71 292.31" fill="#0f0f0d"/>
<polygon points="19.23 302.06 38.71 302.06 38.71 292.31 28.98 292.31" fill="#0f0f0d"/>
<rect x="19.23" y="68.2" width="9.75" height="9.75" fill="#f81746"/>
</svg>
