<?xml version="1.0" encoding="UTF-8"?>
<svg viewBox="0 0 3638.2 1220" xmlns="http://www.w3.org/2000/svg">
<g fill="#e9e9ea">
<path d="M10 930h10v10h50v-10h10v10h10v-10h10v10h30v-10h10v10h100V500H110V228.2h8.2v-26.4H91.8v26.4h8.2V510h130v420H0v10h10zM610 1170v-10h10v-100h-10v-10h10v-20h-10v-10h10v-60H490v180.1H248.2v-8.2h-26.4v26.4h26.4v-8.2H500V970h110v250h10v-50z"/>
<path d="M20 640h10v10h20v-10h10v10h10v-10h10v10h20v131.8h-8.2v26.4h26.4v-26.4H110V640H0v10h20zM630 130H488.2v-8.2h-26.4v26.4h26.4V140H620v120H340v-90h-10v-10h10v-10h-10v-10h10v-20h-10v-10h10V90h-10V80h10V70h-10V60h10V0h-10v270h300zM1061.8 750H740v-40h-10v-10h10v-20h-10v-10h10v-60h-10v-10h10v-10h-10v170h331.8v8.2h26.4v-26.4h-26.4zM841.8 878.2h8.2V1120H740v-10h-10v-10h10v-40h-10v-10h10v-10h-10v-10h10v-40h-10v-10h10v-20h-10v170h130V878.2h8.2v-26.4h-26.4zM748.2 878.2v-26.4h-26.4v8.2H350v179.8H100v179.8h10v-9.6h-10v-10h10v-30h-10v-10h10v-10h-10v-10h10v-30h-10v-10h10v-10h-10v-10h10v-30.2h250V870h361.8v8.2zM3390 261.8h-8.2v26.4h26.4v-26.4h-8.2V90h-260V80h-10V70h10V60h-10V50h10V0h-10v100h260z"/>
<path d="M3291.8 288.2h26.4v-26.4h-26.4v8.2H3140V170h90v-10h-10v10h-10v-10h-30v10h-10v-10h-40v120h161.8zM2800 331.8h-8.2v26.4h26.4v-26.4h-8.2V210h200V0h-10v200h-200zM2880 18.2h8.2V-8.2h-26.4v26.4h8.2V90h-210v10h220zM460 760h160V608.2h8.2v-26.4h-26.4v26.4h8.2V750H470V650h-10v-10h10v-10h-10v-10h10v-30h-10zM1760 330h-300V110h-10v-10h10V40h-10V30h10V0h-10v340h300v161.8h-8.2v26.4h26.4v-26.4h-8.2z"/>
<path d="M350 741.4h-8.2v26.4h26.4v-26.4H360V510h380V270h-10v-10h10v-10h-10v-10h10v-50h-10v-10h10v-20h-10v-10h10V50h-10V40h10V30h-10V20h10V0h-10v500H350zM2350 100h141.8v8.2h26.4V81.8h-26.4V90H2340v259.8h-140V70h-10V50h10V40h-10V30h10V0h-10v359.8h160zM1930 18.2h8.2V-8.2h-26.4v26.4h8.2V90h-250v10h260z"/>
<path d="M230 390h381.8v8.2h26.4v-26.4h-26.4v8.2H240V90H120v10h-10V90H90v10H80V90H40v10H30V90H20v10H10V90H0v10h230zM3510 549.6h8.2v-26.4h-26.4v26.4h8.2V780h50v-10h10v10h10v-10h10v10h10v-10h10v10h30v-10h-120zM3020 580h-141.8v-8.2h-26.4v26.4h26.4V590H3010v270h620v-10h-610zM3440 948.9h-161.8v-8.2h-26.4v26.4h26.4v-8.2H3430V1060h90v-10h10v10h10v-10h10v10h30v-10h10v10h40v-10h-190zM3510 1190v-10h10v-30h-250v-81.8h8.2v-26.4h-26.4v26.4h8.2v91.8h130v-10h20v10h50v-10h10v10h10v-10h10v10h20v60h10v-30z"/>
<path d="M3380 680h-111.8v-8.2h-26.4v26.4h26.4V690H3390V460h240v-10h-250zM2890 807.6h8.2v-26.5h-26.4v26.5h8.2V960h250v259.5h10V950h-250zM3611.8 151.8v8.2H3510v-50h-10V90h10V80h-10V70h10V60h-10V50h10V0h-10v170h111.8v8.2h26.4v-26.4zM3611.8 340H3110v10h-10v-10h-30v10h-20v-10h-10v10h-10v-10h-105.5v10h687.3v8.2h26.4v-26.4h-26.4z"/>
<path d="M3121.8 460v8.2h26.4v-26.4h-26.4v8.2H2670V200h-110v10h-10v-10h-10v10h-10v-10h-10v10h-10v-10h-70v10h220v250zM2190 950h10v-30h-10v-10h10v-10h-10v-10h10v-60h-10v-10h10V698.2h8.2v-26.4h-26.4v26.4h8.2zM2060 120h-10v-10h10V90h-10V80h10V0h-10v191.8h-8.2v26.4h26.4v-26.4h-8.2zM2571.8 1140H2420v-100h-10v-10h10v-10h-10v-10h10v-20h-10v-20h10v-30h-10v210h161.8v8.2h26.4v-26.4h-26.4zM1911.8 200H1570V40h-10V30h10V20h-10V10h10V0h-10v210h351.8v8.2h26.4v-26.4h-26.4z"/>
<path d="M2601.8 829.7H2310v231h-120V1215h10v-15h-10v-10h10v-30h-10v-10h10v-10h-10v-10h10v-59.3h120v-231h281.8v8.2h26.4v-26.5h-26.4zM3250 580h-120v181.8h-8.2v26.4h26.4v-26.4h-8.2V590h120v-30h-10v-10h10v-20h-10v-10h10v-10h-10v-10h10v-50h-10zM1840 1068.2h10v10h-10v30h10v10h-10v10h10v10h-10v90h10V886.4h8.2V860h-26.4v26.4h8.2zM2760 710h120v-10h10v10h10v-10h10v10h20v-10h-180v121.4h-8.2v26.5h26.4v-26.5h-8.2z"/>
</g>
<g fill="#fff000">
<path d="m2440 440h80v-20h-120v20h20zm-60 0h20v20h-20zm-20 20h20v20h-20zm120 100h-80v20h120v-20h-20zm40-80v80h20v-80z"/>
</g>
<g fill="#ffd800">
<path d="m2380 460h20v20h-20zm100 20h-80v80h120v-80h-20z"/>
<path d="m2480 580h-80v-20h-20v-80h-20v100h20v20h140v-20h-20zm60-120v-20h-140v20h120v20h20v80h20v-100zm-20 100h20v20h-20z"/>
</g>
<g fill="#ffaf00">
<path d="m2440 480h60v-20h-100v20h20zm-40 60v-60h-20v80h20zm100-80h20v20h-20zm20 120h20v20h-20zm20-20h20v20h-20zm-60 40h-80v20h120v-20h-20z"/>
</g>
<path d="m1160 420h-100v-20h-20v-20h-20v40h20v20h20v20h120v-40z" fill="#fb0d41"/>
<g fill="#fff000">
<path d="M1240 0h-40v20h60V0zM1220 620v20h20v-60h-20v20z"/>
<path d="M1220 540H900V60h-20v500h300v40h20v-20h20v-20h40v-20h-20zM1180 640v20h20v-40h-20zM1180 20V0h-40v20h20zM960 20h160V0H920v20h20zM880 0h20v20h-20z"/>
</g>
<g fill="#ffaf00">
<path d="M1280 580h-40v20h60v-20zM1240 80v460h20V40H880v20h360zM1140 580h-100v20h140v-20h-20zM980 580h-60v20h100v-20h-20zM860 580h-20v20h60v-20h-20z"/>
</g>
<g fill="#ffd800">
<path d="M1280 20h-160v20h140v20h40V20zM1260 80v60h20v20h-20v400h-20v20h60V200h-20v-20h20v-60h-20v-20h20V80h-20zM1140 560h-140v20h180v-20h-20zM1020 40h80V20H880v20h120zM960 560h20v20h-20zM920 560h20v20h-20zM840 280v100h20v20h-20v100h20v20h-20v20h20v20h-20v20h40V360h-20v-20h20v-20h-20v-20h20v-20h-20zM860 20h-20v100h20v20h-20v80h20v40h20V40h-20z"/>
</g>
<g fill="#fff">
<path d="m1300 260h20v20h-20zm-20 20h20v20h-20zm-20-20h20v20h-20zm-20 20h20v20h-20zm-120-20h20v20h-20zm-20 20h20v20h-20zm-20-20h20v20h-20zm-20 20h20v20h-20z"/>
</g>
<path d="M1340 240H960v20h20v20h20v20h20v20h100v-20h-20v-20h-20v20h-20v-20h20v-20h20v20h20v-20h20v20h20v-20h20v20h20v20h20v20h80v-20h-20v-20h-20v20h-20v-20h20v-20h20v20h20v-20h20v20h20v-20h20v-20z"/>
<path d="m1300 280h20v20h-20zm-180 0h20v20h-20z"/>
<path d="m2879.5 1160h-20v60h40v-60z" fill="#cea28b"/>
<path d="m2719.5 960h20v20h-20zm0-20h20v20h-20z" fill="#e4b69d"/>
<path d="m2699.5 980h20v20h-20z"/>
<path d="m2699.5 960h20v20h-20z" fill="#e4b69d"/>
<path d="m2719.5 980v20h-20v-20h-20v40h60v-40z" fill="#b08874"/>
<path d="M2979.5 1020v20h-20v20h-160v-20h-20V940h-20v20h-20v60h-60v-40h-20v40h-20v40h60v160h20v-60h20v60h40v-60h120v20h20v40h40v-80h-20v-40h20v-20h20v-20h20v-40z" fill="#efc7b0"/>
<path d="m2639.5 1e3h20v20h-20z"/>
<g fill="#d3d1d3">
<path d="m2619.5 920v40h20v-40zm-60 40h20v20h-20zm20 20h20v20h-20zm-20 40h-20v20h60v-20h-20z"/>
</g>
<path d="M2040 660h-100v540h60V720h40v480h20V660z" fill="#281857"/>
<g fill="#c89914">
<path d="m2060 1200h-40v20h60v-20zm-100 0h-40v20h80v-20h-20z"/>
</g>
<path d="m2060 300h-120v20h-20v20h-20v100h60v-40h-20v-40h20v-20h120v-40zm-40 440v460h20v-480h-20zm0-320h20v20h-20zm-100 220v-100h-20v160h40v-40h-20z"/>
<g fill="#efc7b0">
<path d="m2340 500h-40v40h40v-20h20v-20zm-320-160h-60v20h-20v40h20v60h60v-40h40v-80h-20zm-160 400v40h40v-40h-20z"/>
</g>
<g fill="#c11441">
<path d="m2280 500h-20v40h40v-40zm-240 120h-120v40h160v-40h-20zm-180 80v40h40v-40h-20z"/>
</g>
<path d="M2240 500h-160v-60h-60v20h-60v-20h-80v20h-20v240h40V540h20v80h160v-80h180v-40z" fill="#fb0d41"/>
<g fill="#cea28b">
<path d="M1340 940v240h20V920h-20zM1700 800h-180v60h160v40h-240v300h280V800z"/>
</g>
<path d="m1460 740h-60v40h80v-40z" fill="#15aef1"/>
<path d="M1640 660v-20h-140v20h-20v120h-100v40h80v20h60v-40h140V660z" fill="#0dccf1"/>
<path d="M1500 840h-140v340h80V900h80v-60z" fill="#281857"/>
<g fill="#989498">
<path d="M1540 440h-40v20h40v100h20V440zM1420 820h-60v20h100v-20h-20z"/>
</g>
<g fill="#b08874">
<path d="m1660 860h-140v40h160v-40zm-140-220h60v-20h-20v-20h-40v-20h-20v-60h-40v100h40v20zm-140 120h-20v60h20v-40h20v-40h-20z"/>
</g>
<g fill="#fb0d41">
<path d="m1560 520v40h-20v-40h-20v60h60v-60zm-160 660h-80v40h120v-40h-20z"/>
</g>
<path d="m1680 1200h-40v20h60v-20zm-100-600h-20v20h40v-40h-20zm-20-140v40h20v20h20v-60h-20zm-60 0h-40v60h60v-20h20v-40h-20zm-20 740h-20v20h60v-20h-20zm-160-360h-20v340h40v-260h20v-80h-20z"/>
<g fill="#c11441">
<path d="m1580 520v60h20v-60zm-20-20h20v20h-20zm-20 80h-20v20h60v-20h-20zm-20-80h20v20h-20zm0 40v-20h-20v60h20v-20zm-240 640h-20v40h60v-40h-20z"/>
</g>
<path d="m1340 820h-220v20h240v-20z" fill="#b0acb0"/>
<path d="M1340 660h-220v160h240V660h-20zm-120 80v-20h40v40h-40v-20z" fill="#d3d1d3"/>
<path d="m1080 1160h-80v60h100v-60z" fill="#cea28b"/>
<path d="M1100 1120H980v40h140v-40z" fill="#b08874"/>
<g fill="#67923d">
<path d="m1020 980v-20h-20v-20h-80v20h20v20h20v20h80v-20zm140 40h-40v20h-40v20h-20v-60h-20v120h20v-40h80v-20h20v-20h20v-20z"/>
</g>
<path d="m2340 690v-20h-20v20h-20v20h20v20h20v-20h20v-20z" fill="#ffd800"/>
<path d="m2540.5 320h-20v-40h-20v40h-40v20h40v40h20v-40h40v-20z" fill="#fff000"/>
<path d="m2679.5 582.5h-20v-40h-20v40h-40v20h40v40h20v-40h40v-20z" fill="#ffaf00"/>
</svg>
