<?xml version="1.0" encoding="UTF-8"?>
<svg viewBox="0 0 1226 332.68" xmlns="http://www.w3.org/2000/svg">
<rect y="321.55" width="1226" height="11.13" fill="#f7f5f4"/>
<rect x="929.1" y="68.2" width="9.74" height="9.75" fill="#fff"/>
<rect x="919.36" y="68.2" width="9.75" height="9.75" fill="#fff"/>
<polygon points="899.87 204.62 899.87 292.31 919.36 292.31 919.36 214.36 938.84 214.36 938.84 292.31 958.34 292.31 958.34 204.62" fill="#ff1744"/>
<polygon points="958.34 136.41 958.34 204.62 968.08 204.62 968.08 194.88 977.82 194.88 977.82 136.41" fill="#448aff"/>
<polygon points="938.84 107.18 919.36 107.18 919.36 97.44 909.62 97.44 909.62 116.92 919.36 116.92 919.36 126.67 938.84 126.67 938.84 116.92 948.59 116.92 948.59 97.44 938.84 97.44" fill="#448aff"/>
<polygon points="880.39 136.41 880.39 194.88 890.12 194.88 890.12 204.62 899.87 204.62 899.87 136.41" fill="#448aff"/>
<polygon points="968.08 116.92 968.08 107.18 958.34 107.18 958.34 97.44 948.59 97.44 948.59 116.92 938.84 116.92 938.84 126.67 919.36 126.67 919.36 116.92 909.62 116.92 909.62 97.44 899.87 97.44 899.87 107.18 890.12 107.18 890.12 116.92 880.39 116.92 880.39 126.67 880.39 136.41 899.87 136.41 899.87 204.62 958.34 204.62 958.34 194.88 958.34 136.41 977.82 136.41 977.82 126.67 977.82 116.92" fill="#1a237e"/>
<path d="M968.08,58.46V39h-78V58.46h-9.73V68.2h9.73V78h9.75v9.74h19.49v19.49h19.48V87.69h19.5V78h9.74V68.2h9.74V58.46Zm-58.46,0h-9.75V48.72h9.75ZM938.84,78H919.36V68.2h19.48Zm19.5-19.49h-9.75V48.72h9.75Z" fill="#fedcc7"/>
<rect x="958.34" y="204.62" width="9.74" height="9.74" fill="#fedcc7"/>
<rect x="890.12" y="204.62" width="9.75" height="9.74" fill="#fedcc7"/>
<rect x="968.08" y="38.97" width="9.75" height="19.49" fill="#ffbf00"/>
<rect x="938.84" y="292.31" width="19.5" height="9.75" fill="#ffbf00"/>
<rect x="909.62" y="19.49" width="38.97" height="9.75" fill="#ffbf00"/>
<rect x="899.87" y="292.31" width="19.49" height="9.75" fill="#ffbf00"/>
<rect x="880.39" y="38.97" width="9.74" height="19.49" fill="#ffbf00"/>
<path d="M968.08,19.49V9.74h-9.74V0H899.87V9.74h-9.75v9.75h-9.73V39h97.43V19.49Zm-58.46,9.74V19.49h39v9.74Z"/>
<polygon points="958.34 302.06 938.84 302.06 938.84 321.55 968.08 321.55 968.08 311.8 958.34 311.8"/>
<rect x="948.59" y="48.72" width="9.75" height="9.74"/>
<polygon points="899.87 302.06 899.87 311.8 890.12 311.8 890.12 321.55 919.36 321.55 919.36 302.06"/>
<rect x="899.87" y="48.72" width="9.75" height="9.74"/>
<rect x="724.84" y="292.31" width="19.5" height="9.75" fill="#2962ff"/>
<rect x="685.87" y="292.31" width="19.49" height="9.75" fill="#2962ff"/>
<rect x="734.59" y="38.97" width="9.75" height="9.75"/>
<rect x="705.36" y="58.46" width="19.49" height="9.75" fill="#fff"/>
<rect x="724.84" y="204.62" width="19.5" height="87.69" fill="#1a237e"/>
<rect x="685.87" y="204.62" width="19.49" height="87.69" fill="#1a237e"/>
<rect x="685.87" y="38.97" width="9.75" height="9.75"/>
<rect x="744.34" y="175.39" width="9.74" height="9.74" fill="#fafafa"/>
<rect x="744.34" y="155.9" width="9.74" height="9.74" fill="#fafafa"/>
<rect x="744.34" y="136.41" width="9.74" height="9.75" fill="#fafafa"/>
<rect x="744.34" y="116.92" width="9.74" height="9.75" fill="#fafafa"/>
<rect x="685.87" y="126.67" width="58.47" height="9.74" fill="#fafafa"/>
<rect x="685.87" y="185.13" width="58.47" height="9.75" fill="#fafafa"/>
<rect x="685.87" y="165.64" width="58.47" height="9.75" fill="#fafafa"/>
<rect x="685.87" y="146.16" width="58.47" height="9.75" fill="#fafafa"/>
<rect x="685.87" y="107.18" width="58.47" height="9.75" fill="#fafafa"/>
<rect x="676.12" y="175.39" width="9.75" height="9.74" fill="#fafafa"/>
<rect x="676.12" y="155.9" width="9.75" height="9.74" fill="#fafafa"/>
<rect x="676.12" y="136.41" width="9.75" height="9.75" fill="#fafafa"/>
<rect x="676.12" y="116.92" width="9.75" height="9.75" fill="#fafafa"/>
<polygon points="744.34 302.06 724.84 302.06 724.84 321.55 734.59 321.55 734.59 311.8 744.34 321.55 754.08 321.55 754.08 311.8 744.34 311.8" fill="#ff1744"/>
<polygon points="685.87 302.06 685.87 311.8 676.12 311.8 676.12 321.55 685.87 321.55 695.62 311.8 695.62 321.55 705.36 321.55 705.36 302.06" fill="#ff1744"/>
<rect x="744.34" y="185.13" width="9.74" height="9.75" fill="#ff1744"/>
<rect x="676.12" y="185.13" width="9.75" height="9.75" fill="#ff1744"/>
<rect x="744.34" y="165.64" width="9.74" height="9.75" fill="#ff1744"/>
<rect x="744.34" y="146.16" width="9.74" height="9.75" fill="#ff1744"/>
<rect x="744.34" y="126.67" width="9.74" height="9.74" fill="#ff1744"/>
<rect x="744.34" y="107.18" width="9.74" height="9.75" fill="#ff1744"/>
<rect x="685.87" y="116.92" width="58.47" height="9.75" fill="#ff1744"/>
<rect x="734.59" y="97.44" width="9.75" height="9.74" fill="#ff1744"/>
<rect x="685.87" y="194.88" width="58.47" height="9.75" fill="#ff1744"/>
<rect x="685.87" y="175.39" width="58.47" height="9.74" fill="#ff1744"/>
<rect x="685.87" y="155.9" width="58.47" height="9.74" fill="#ff1744"/>
<rect x="685.87" y="136.41" width="58.47" height="9.75" fill="#ff1744"/>
<rect x="685.87" y="97.44" width="9.75" height="9.74" fill="#ff1744"/>
<rect x="676.12" y="165.64" width="9.75" height="9.75" fill="#ff1744"/>
<rect x="676.12" y="146.16" width="9.75" height="9.75" fill="#ff1744"/>
<rect x="676.12" y="126.67" width="9.75" height="9.74" fill="#ff1744"/>
<rect x="676.12" y="107.18" width="9.75" height="9.75" fill="#ff1744"/>
<rect x="744.34" y="194.88" width="9.74" height="9.75" fill="#e6c9b2"/>
<rect x="676.12" y="194.88" width="9.75" height="9.75" fill="#e6c9b2"/>
<path d="M744.34,39v9.75h-9.75V39H705.36V29.23h-9.74V19.49h-9.75v9.74h-9.75v39h9.75V78h19.49V97.44h-9.74v9.74h39V97.44h-9.75V78h19.5V68.2h9.74V39Zm-58.47,0h9.75v9.75h-9.75ZM715.1,68.2h-9.74V58.46h19.48V68.2Z" fill="#e6c9b2"/>
<polygon points="773.56 58.46 773.56 68.2 763.82 68.2 763.82 58.46 773.56 58.46 773.56 48.72 763.82 48.72 763.82 38.97 773.56 38.97 773.56 29.23 763.82 29.23 763.82 19.49 754.08 19.49 754.08 9.74 744.34 9.74 744.34 0 685.87 0 685.87 9.74 676.12 9.74 676.12 19.49 666.39 19.49 666.39 38.97 656.64 38.97 656.64 48.72 666.39 48.72 666.39 68.2 646.9 68.2 646.9 87.69 656.64 87.69 656.64 77.95 666.39 77.95 666.39 87.69 656.64 87.69 656.64 97.44 646.9 97.44 646.9 107.18 656.64 107.18 656.64 116.92 666.39 116.92 666.39 126.67 676.12 126.67 676.12 107.18 685.87 107.18 685.87 97.44 705.36 97.44 705.36 77.95 685.87 77.95 685.87 68.2 676.12 68.2 676.12 29.23 685.87 29.23 685.87 19.49 695.62 19.49 695.62 29.23 705.36 29.23 705.36 38.97 754.08 38.97 754.08 68.2 744.34 68.2 744.34 77.95 724.84 77.95 724.84 97.44 744.34 97.44 744.34 107.18 754.08 107.18 754.08 116.92 763.82 116.92 763.82 126.67 783.31 126.67 783.31 97.44 773.56 97.44 773.56 107.18 763.82 107.18 763.82 97.44 773.56 97.44 773.56 87.69 763.82 87.69 763.82 77.95 783.31 77.95 783.31 58.46" fill="#502a1b"/>
<rect x="646.9" y="116.92" width="9.74" height="9.75" fill="#502a1b"/>
<rect x="1162.6" y="175.39" width="9.75" height="9.75" fill="#ffbf00"/>
<rect x="1143.1" y="175.39" width="19.49" height="9.75" fill="#ffee58"/>
<rect x="1143.1" y="68.2" width="19.49" height="9.75" fill="#fff"/>
<rect x="1133.4" y="175.39" width="9.75" height="9.75" fill="#ffbf00"/>
<rect x="1162.6" y="233.86" width="19.49" height="68.2" fill="#0f0f0d"/>
<rect x="1123.6" y="233.86" width="19.49" height="68.2" fill="#0f0f0d"/>
<path d="M1191.83,58.47V48.72h-9.75v9.75h-9.74V48.72h-29.23V39h-19.49v9.74h9.74v9.75h-9.74V48.72h-9.74V78h9.74V87.7h19.49v19.49h-9.75v29.23h9.75v9.74h19.49v-9.74h9.74V107.19h-9.74V87.7h19.48V78h9.75V68.2h9.74V58.47Zm-39,19.48h-9.74V68.2h19.49V78Z" fill="#efc7b0"/>
<rect x="1182.1" y="146.16" width="9.75" height="68.21" fill="#efc7b0"/>
<rect x="1113.9" y="146.16" width="9.75" height="68.21" fill="#efc7b0"/>
<polygon points="1191.8 126.67 1191.8 116.92 1182.1 116.92 1182.1 107.19 1172.3 107.19 1172.3 136.42 1162.6 136.42 1162.6 146.16 1143.1 146.16 1143.1 136.42 1133.4 136.42 1133.4 107.19 1123.6 107.19 1123.6 116.92 1113.9 116.92 1113.9 126.67 1104.1 126.67 1104.1 146.16 1123.6 146.16 1123.6 165.65 1133.4 175.39 1172.3 175.39 1182.1 165.65 1182.1 146.16 1201.6 146.16 1201.6 126.67" fill="#ff1744"/>
<polygon points="1133.4 185.14 1123.6 194.88 1123.6 233.86 1182.1 233.86 1182.1 194.88 1172.3 185.14" fill="#ff1744"/>
<rect x="1191.8" y="68.2" width="9.74" height="9.75"/>
<polygon points="1191.8 29.23 1191.8 19.49 1182.1 19.49 1182.1 9.75 1123.6 9.75 1123.6 19.49 1113.9 19.49 1113.9 29.23 1104.1 29.23 1104.1 48.72 1094.4 48.72 1094.4 58.47 1104.1 58.47 1104.1 68.2 1094.4 68.2 1094.4 77.95 1084.6 77.95 1084.6 87.7 1104.1 87.7 1104.1 97.44 1113.9 97.44 1113.9 107.19 1133.4 107.19 1133.4 97.44 1143.1 97.44 1143.1 87.7 1123.6 87.7 1123.6 77.95 1113.9 77.95 1113.9 48.72 1123.6 48.72 1123.6 38.98 1143.1 38.98 1143.1 48.72 1172.3 48.72 1172.3 58.47 1182.1 58.47 1182.1 48.72 1191.8 48.72 1191.8 58.47 1201.6 58.47 1201.6 29.23"/>
<polygon points="1182.1 87.7 1162.6 87.7 1162.6 97.44 1162.6 107.19 1182.1 107.19 1182.1 97.44 1201.6 97.44 1201.6 87.7 1191.8 87.7 1191.8 77.95 1182.1 77.95"/>
<polygon points="1182.1 302.06 1162.6 302.06 1162.6 321.55 1172.3 321.55 1172.3 311.81 1182.1 321.55 1191.8 321.55 1191.8 311.81 1182.1 311.81" fill="#ffbf00"/>
<polygon points="1123.6 302.06 1123.6 311.81 1113.9 311.81 1113.9 321.55 1123.6 321.55 1133.4 311.81 1133.4 321.55 1143.1 321.55 1143.1 302.06" fill="#ffbf00"/>
<rect x="1123.6" y="48.72" width="9.74" height="9.75"/>
<rect x="491.37" y="116.92" width="19.49" height="9.75" fill="#ffbf00"/>
<rect x="491.37" y="194.88" width="19.49" height="9.75" fill="#ffbf00"/>
<rect x="491.37" y="175.39" width="19.49" height="9.74" fill="#ffbf00"/>
<rect x="491.37" y="155.89" width="19.49" height="9.75" fill="#ffbf00"/>
<rect x="491.37" y="136.41" width="19.49" height="9.75" fill="#ffbf00"/>
<rect x="491.37" y="107.18" width="19.49" height="9.75" fill="#fafaf7"/>
<rect x="491.37" y="185.13" width="19.49" height="9.75" fill="#fafaf7"/>
<rect x="491.37" y="165.64" width="19.49" height="9.75" fill="#fafaf7"/>
<rect x="491.37" y="146.16" width="19.49" height="9.74" fill="#fafaf7"/>
<rect x="491.37" y="126.67" width="19.49" height="9.74" fill="#fafaf7"/>
<rect x="491.37" y="68.2" width="19.49" height="9.75" fill="#fff"/>
<rect x="510.85" y="302.06" width="19.49" height="9.74" fill="#448aff"/>
<rect x="471.87" y="302.06" width="19.5" height="9.74" fill="#448aff"/>
<rect x="510.85" y="214.36" width="19.49" height="87.7" fill="#1a237e"/>
<rect x="491.37" y="204.62" width="19.49" height="9.74" fill="#1a237e"/>
<rect x="471.87" y="214.36" width="19.5" height="87.7" fill="#1a237e"/>
<polygon points="540.09 116.92 540.09 107.18 530.34 107.18 530.34 97.44 510.85 97.44 510.85 214.36 530.34 214.36 530.34 204.62 549.82 204.62 549.82 116.92" fill="#ff1744"/>
<polygon points="471.87 97.44 471.87 107.18 462.13 107.18 462.13 116.92 452.39 116.92 452.39 204.62 471.87 204.62 471.87 214.36 491.37 214.36 491.37 97.44 481.62 97.44" fill="#ff1744"/>
<path d="M540.09,58.46V39h-9.75V19.49H510.85v9.74H491.37V19.49h-19.5V39h-9.74V58.46h-9.74V68.2h9.74V78h9.74v9.74h19.5v19.49h19.48V87.69h19.49V78h9.75V68.2h9.73V58.46Zm-9.75,0h-9.75V48.72h9.75Zm-58.47-9.74h9.75v9.74h-9.75ZM491.37,78V68.2h19.48V78Z" fill="#cf9e76"/>
<rect x="530.34" y="204.62" width="9.75" height="9.74" fill="#cf9e76"/>
<rect x="462.13" y="204.62" width="9.74" height="9.74" fill="#cf9e76"/>
<polygon points="540.09 29.23 540.09 19.49 530.34 19.49 530.34 38.97 540.09 38.97 540.09 58.46 549.82 58.46 549.82 29.23"/>
<rect x="510.85" y="311.8" width="29.23" height="9.75"/>
<rect x="520.59" y="48.72" width="9.75" height="9.74"/>
<polygon points="471.87 9.74 471.87 19.49 491.37 19.49 491.37 29.23 510.85 29.23 510.85 19.49 530.34 19.49 530.34 9.74"/>
<rect x="462.13" y="311.8" width="29.23" height="9.75"/>
<rect x="471.87" y="48.72" width="9.75" height="9.74"/>
<polygon points="462.13 29.23 452.39 29.23 452.39 58.46 462.13 58.46 462.13 38.97 471.87 38.97 471.87 19.49 462.13 19.49"/>
<rect x="316.34" y="204.61" width="9.74" height="9.75" fill="#e6c9b2"/>
<rect x="316.34" y="185.13" width="9.74" height="9.75" fill="#e6c9b2"/>
<rect x="316.34" y="175.39" width="9.74" height="9.74" fill="#e6c9b2"/>
<rect x="316.34" y="77.94" width="9.74" height="9.75" fill="#e6c9b2"/>
<rect x="316.34" y="68.2" width="9.74" height="9.74" fill="#e6c9b2"/>
<rect x="316.34" y="58.46" width="9.74" height="9.75" fill="#e6c9b2"/>
<rect x="306.6" y="302.05" width="9.75" height="9.75" fill="#e6c9b2"/>
<rect x="306.6" y="87.69" width="9.75" height="9.75" fill="#e6c9b2"/>
<rect x="306.6" y="77.94" width="9.75" height="9.75" fill="#e6c9b2"/>
<rect x="306.6" y="68.2" width="9.75" height="9.74" fill="#e6c9b2"/>
<rect x="296.85" y="116.92" width="9.75" height="9.74" fill="#e6c9b2"/>
<rect x="296.85" y="87.69" width="9.75" height="9.75" fill="#e6c9b2"/>
<rect x="296.85" y="77.94" width="9.75" height="9.75" fill="#e6c9b2"/>
<rect x="296.85" y="68.2" width="9.75" height="9.74" fill="#e6c9b2"/>
<rect x="296.85" y="58.46" width="9.75" height="9.75" fill="#e6c9b2"/>
<rect x="287.11" y="116.92" width="9.74" height="9.74" fill="#e6c9b2"/>
<rect x="287.11" y="97.44" width="9.74" height="9.74" fill="#e6c9b2"/>
<rect x="287.11" y="87.69" width="9.74" height="9.75" fill="#e6c9b2"/>
<rect x="287.11" y="68.2" width="9.74" height="9.74" fill="#e6c9b2"/>
<rect x="287.11" y="58.46" width="9.74" height="9.75" fill="#e6c9b2"/>
<rect x="277.36" y="116.92" width="9.75" height="9.74" fill="#e6c9b2"/>
<rect x="277.36" y="97.44" width="9.75" height="9.74" fill="#e6c9b2"/>
<rect x="277.36" y="87.69" width="9.75" height="9.75" fill="#e6c9b2"/>
<rect x="277.36" y="68.2" width="9.75" height="9.74" fill="#e6c9b2"/>
<rect x="277.36" y="58.46" width="9.75" height="9.75" fill="#e6c9b2"/>
<rect x="277.36" y="48.72" width="9.75" height="9.74" fill="#e6c9b2"/>
<rect x="267.62" y="87.69" width="9.74" height="9.75" fill="#e6c9b2"/>
<rect x="267.62" y="77.94" width="9.74" height="9.75" fill="#e6c9b2"/>
<rect x="267.62" y="68.2" width="9.74" height="9.74" fill="#e6c9b2"/>
<rect x="267.62" y="58.46" width="9.74" height="9.75" fill="#e6c9b2"/>
<rect x="267.62" y="48.72" width="9.74" height="9.74" fill="#e6c9b2"/>
<rect x="267.62" y="38.97" width="9.74" height="9.75" fill="#e6c9b2"/>
<rect x="257.88" y="302.05" width="9.75" height="9.75" fill="#e6c9b2"/>
<rect x="316.34" y="194.88" width="9.74" height="9.74" fill="#ff1744"/>
<rect x="296.85" y="233.85" width="19.5" height="68.2" fill="#ff1744"/>
<rect x="277.36" y="107.18" width="19.49" height="9.75" fill="#ff1744"/>
<rect x="257.88" y="233.85" width="19.49" height="68.2" fill="#ff1744"/>
<polygon points="257.88 116.92 257.88 126.66 267.62 126.66 267.62 136.41 277.36 136.41 277.36 116.92" fill="#ff1744"/>
<rect x="257.88" y="87.69" width="9.75" height="9.75" fill="#e6c9b2"/>
<rect x="257.88" y="77.94" width="9.75" height="9.75" fill="#e6c9b2"/>
<rect x="257.88" y="68.2" width="9.75" height="9.74" fill="#e6c9b2"/>
<rect x="257.88" y="48.72" width="9.75" height="9.74" fill="#e6c9b2"/>
<rect x="248.13" y="204.61" width="9.75" height="9.75" fill="#e6c9b2"/>
<rect x="248.13" y="194.88" width="9.75" height="9.74" fill="#e6c9b2"/>
<rect x="248.13" y="185.13" width="9.75" height="9.75" fill="#e6c9b2"/>
<rect x="248.13" y="175.39" width="9.75" height="9.74" fill="#e6c9b2"/>
<rect x="316.34" y="155.89" width="9.74" height="9.75" fill="#fafafa"/>
<rect x="316.34" y="136.41" width="9.74" height="9.75" fill="#fafafa"/>
<rect x="257.88" y="146.16" width="58.47" height="9.74" fill="#fafafa"/>
<rect x="277.36" y="126.66" width="38.98" height="9.75" fill="#fafafa"/>
<rect x="257.88" y="224.11" width="58.47" height="9.74" fill="#fafafa"/>
<rect x="257.88" y="204.61" width="58.47" height="9.75" fill="#fafafa"/>
<rect x="257.88" y="185.13" width="58.47" height="9.75" fill="#fafafa"/>
<rect x="257.88" y="165.64" width="58.47" height="9.75" fill="#fafafa"/>
<rect x="277.36" y="77.94" width="19.49" height="9.75" fill="#fff"/>
<rect x="257.88" y="126.66" width="9.75" height="9.75" fill="#fafafa"/>
<rect x="248.13" y="155.89" width="9.75" height="9.75" fill="#fafafa"/>
<rect x="248.13" y="136.41" width="9.75" height="9.75" fill="#fafafa"/>
<rect x="316.34" y="165.64" width="9.74" height="9.75"/>
<rect x="316.34" y="146.16" width="9.74" height="9.74"/>
<rect x="316.34" y="126.66" width="9.74" height="9.75"/>
<polygon points="306.6 311.8 306.6 321.55 326.08 321.55 316.34 311.8"/>
<rect x="257.88" y="136.41" width="58.47" height="9.75"/>
<rect x="306.6" y="116.92" width="9.75" height="9.74"/>
<rect x="306.6" y="58.46" width="9.75" height="9.75"/>
<polygon points="296.85 302.05 296.85 321.55 306.6 311.8 306.6 302.05"/>
<rect x="257.88" y="214.36" width="58.47" height="9.75"/>
<rect x="257.88" y="175.39" width="58.47" height="9.74"/>
<rect x="257.88" y="155.89" width="58.47" height="9.75"/>
<polygon points="267.62 311.8 277.36 321.55 277.36 302.05 267.62 302.05"/>
<rect x="257.88" y="194.88" width="58.47" height="9.74"/>
<rect x="257.88" y="58.46" width="9.75" height="9.75"/>
<polygon points="248.13 321.55 267.62 321.55 267.62 311.8 257.88 311.8"/>
<rect x="248.13" y="165.64" width="9.75" height="9.75"/>
<rect x="248.13" y="146.16" width="9.75" height="9.74"/>
<rect x="248.13" y="126.66" width="9.75" height="9.75"/>
<rect x="248.13" y="77.94" width="9.75" height="9.75" fill="#e6c9b2"/>
<rect x="248.13" y="68.2" width="9.75" height="9.74" fill="#e6c9b2"/>
<rect x="248.13" y="58.46" width="9.75" height="9.75" fill="#e6c9b2"/>
<polygon points="345.57 68.2 345.57 58.46 335.83 58.46 335.83 38.97 326.08 38.97 326.08 29.22 316.34 29.22 316.34 19.49 257.88 19.49 257.88 29.22 248.13 29.22 248.13 38.97 238.39 38.97 238.39 68.2 228.64 68.2 228.64 87.69 238.39 87.69 238.39 97.44 248.13 97.44 248.13 107.18 277.36 107.18 277.36 97.44 257.88 97.44 257.88 87.69 248.13 87.69 248.13 58.46 257.88 58.46 257.88 48.72 267.62 48.72 267.62 38.97 277.36 38.97 277.36 48.72 287.11 48.72 287.11 58.46 326.08 58.46 326.08 87.69 316.34 87.69 316.34 97.44 296.85 97.44 296.85 107.18 335.83 107.18 335.83 97.44 345.57 97.44 345.57 77.94 335.83 77.94 335.83 68.2" fill="#7b221f"/>
<rect x="228.64" y="97.44" width="9.75" height="9.74" fill="#7b221f"/>
<rect x="341.3" y="256.55" width="5" height="5"/>
<rect x="336.3" y="281.55" width="5" height="5" fill="#ffbf00"/>
<rect x="331.3" y="276.55" width="15" height="5" fill="#ff1744"/>
<rect x="331.3" y="266.55" width="5" height="5" fill="#ff80ab"/>
<rect x="331.3" y="261.54" width="5" height="5"/>
<rect x="321.3" y="256.55" width="5" height="5"/>
<polygon points="391.3 271.54 386.3 271.54 386.3 276.55 386.3 281.55 391.3 281.55 396.3 281.55 396.3 276.55 396.3 271.54" fill="#f2ebda"/>
<polygon points="341.3 281.55 341.3 286.54 336.3 286.54 336.3 281.55 331.31 281.55 331.31 311.54 336.3 311.54 336.3 301.54 341.3 301.54 341.3 311.54 346.3 311.54 346.3 296.54 366.3 296.54 366.3 311.54 371.3 311.54 371.3 296.54 376.3 296.54 376.3 311.54 381.3 311.54 381.3 286.54 386.3 286.54 386.3 281.55" fill="#f2ebda"/>
<path d="m346.3 276.55v-5h5v-15h-5v5h-5v-5h5v-5h-25v5h5v5h-5v-5h-5v15h5v5zm-10-15v10h-5v-10z" fill="#f2ebda"/>
<rect x="376.3" y="311.54" width="10" height="10" fill="#dcd6c6"/>
<rect x="361.3" y="311.54" width="10" height="10" fill="#dcd6c6"/>
<rect x="341.3" y="311.54" width="10" height="10" fill="#dcd6c6"/>
<rect x="326.3" y="311.54" width="10" height="10" fill="#dcd6c6"/>
<polygon points="361.3 261.54 356.3 261.54 356.3 256.55 351.3 256.55 351.3 276.55 361.3 276.55" fill="#dcd6c6"/>
<polygon points="351.3 246.54 346.3 246.54 346.3 241.55 321.3 241.55 321.3 246.54 316.3 246.54 316.3 256.55 321.3 256.55 321.3 251.55 346.3 251.55 346.3 256.55 351.3 256.55" fill="#dcd6c6"/>
<polygon points="311.3 261.54 306.31 261.54 306.31 276.55 316.3 276.55 316.3 256.55 311.3 256.55" fill="#dcd6c6"/>
<rect x="102.34" y="204.62" width="9.75" height="9.75" fill="#f2d4c0"/>
<rect x="63.37" y="68.2" width="19.49" height="9.75" fill="#fff"/>
<polygon points="43.87 204.62 43.87 311.81 63.37 311.81 63.37 214.37 82.85 214.37 82.85 311.81 102.34 311.81 102.34 204.62" fill="#1a237e"/>
<rect x="82.85" y="311.81" width="29.23" height="9.74"/>
<rect x="92.59" y="48.72" width="9.75" height="9.75"/>
<rect x="34.13" y="311.81" width="29.23" height="9.74"/>
<rect x="43.87" y="48.72" width="9.75" height="9.75"/>
<rect x="34.13" y="204.62" width="9.74" height="9.75" fill="#f2d4c0"/>
<path d="M92.59,29.23V39H34.13V78h9.74V87.7h19.5v19.49H82.85V87.7h19.49V78h9.75V29.23ZM43.87,48.72h9.75v9.75H43.87ZM73.1,78H63.37V68.2H82.85V78Zm29.24-19.48H92.59V48.72h9.75Z" fill="#fedcc7"/>
<polygon points="112.09 194.88 102.34 194.88 102.34 204.62 112.09 204.62 121.82 204.62 121.82 194.88" fill="#2962ff"/>
<rect x="102.34" y="107.19" width="9.75" height="9.74" fill="#2962ff"/>
<polygon points="102.34 175.39 102.34 165.65 102.34 155.91 102.34 146.16 102.34 136.42 92.59 136.42 92.59 146.16 92.59 155.91 92.59 165.65 92.59 175.39 92.59 185.14 92.59 194.88 102.34 194.88 102.34 185.14" fill="#2962ff"/>
<rect x="92.59" y="116.92" width="9.75" height="9.75" fill="#2962ff"/>
<polygon points="92.59 97.44 82.85 97.44 82.85 107.19 63.37 107.19 63.37 97.44 53.62 97.44 53.62 116.92 92.59 116.92" fill="#2962ff"/>
<polygon points="43.87 146.16 43.87 155.91 43.87 165.65 43.87 175.39 43.87 185.14 43.87 194.88 53.62 194.88 53.62 185.14 53.62 175.39 53.62 165.65 53.62 155.91 53.62 146.16 53.62 136.42 43.87 136.42" fill="#2962ff"/>
<rect x="43.87" y="116.92" width="9.75" height="9.75" fill="#2962ff"/>
<rect x="34.13" y="107.19" width="9.74" height="9.74" fill="#2962ff"/>
<polygon points="24.39 194.88 24.39 204.62 34.13 204.62 43.87 204.62 43.87 194.88 34.13 194.88" fill="#2962ff"/>
<polygon points="102.34 116.92 102.34 126.67 92.59 126.67 92.59 116.92 53.62 116.92 53.62 126.67 43.87 126.67 43.87 116.92 24.39 116.92 24.39 194.88 43.87 194.88 43.87 136.42 53.62 136.42 53.62 194.88 43.87 194.88 43.87 204.62 102.34 204.62 102.34 194.88 92.59 194.88 92.59 136.42 102.34 136.42 102.34 194.88 121.82 194.88 121.82 116.92" fill="#448aff"/>
<rect x="92.59" y="97.44" width="9.75" height="19.49" fill="#448aff"/>
<rect x="43.87" y="97.44" width="9.75" height="19.49" fill="#448aff"/>
<rect x="112.09" y="29.23" width="9.74" height="29.23" fill="#ffbf00"/>
<polygon points="102.34 19.49 102.34 9.75 43.87 9.75 43.87 19.49 34.13 19.49 34.13 29.23 24.39 29.23 24.39 58.47 34.13 58.47 34.13 38.98 92.59 38.98 92.59 29.23 112.09 29.23 112.09 19.49" fill="#ffbf00"/>
</svg>
