<svg xmlns="http://www.w3.org/2000/svg" viewBox="0 0 701.99 182.71"><path d="M27,96.74V58.18a.93.93,0,0,0-1.86,0V96.74Z" style="fill:#6d6e71"/><rect x="24.96" y="104.28" width="2.29" height="64.05" style="fill:#6d6e71"/><rect x="24.71" y="95.88" width="2.79" height="9.5" style="fill:#58595b"/><path d="M27.21,62.74l.09,0c.21-.13.07-.45.07-.63s0-.49,0-.73l-.05-1.72,0-1.34a3.62,3.62,0,0,1,0-.56,16.36,16.36,0,0,0-1.71,1.19l-.72.48c-.33.22-.65.44-1,.67a6.57,6.57,0,0,1,.68.61,1.1,1.1,0,0,1,.43.83c0,.2,0,.4,0,.6a2.12,2.12,0,0,0,0,.5c0,.13.16.19.3.22.39,0,.77,0,1.15,0A2.45,2.45,0,0,0,27.21,62.74Z" style="fill:#414042"/><path d="M51.08,40.29l-.85-1.22A.78.78,0,0,1,50.4,38l10-7.63a.78.78,0,0,1,1.12.18L63,32.62a.79.79,0,0,1-.23,1.11L52.14,40.51A.78.78,0,0,1,51.08,40.29Z" style="fill:#422a1a"/><path d="M63.32,34a3.22,3.22,0,1,0-2.91-4.18Z" style="fill:#939598"/><path d="M63,34.34l-3-4.33a.3.3,0,0,1,.08-.42h0a.3.3,0,0,1,.41.07l3,4.34a.31.31,0,0,1-.07.42h0A.3.3,0,0,1,63,34.34Z" style="fill:#bcbec0"/><path d="M1.93,73.28h0a.71.71,0,0,1,.21-1l56.58-36a.72.72,0,0,1,1,.21h0a.72.72,0,0,1-.22,1L2.9,73.5A.7.7,0,0,1,1.93,73.28Z" style="fill:#6d6e71"/><path d="M8,68.43l0-.06L.27,73.24a.6.6,0,0,0-.18.81l.35.55a.59.59,0,0,0,.81.18l7.82-5C8.71,69.35,8.34,68.89,8,68.43Z" style="fill:#58595b"/><path d="M30.66,56.06c.07-.19-.15-.39-.26-.51a5.3,5.3,0,0,1-.45-.71.9.9,0,0,0-.14-.2.33.33,0,0,0-.4-.06c-.1.05-.2.13-.3.19L28,55.46l-3.23,2-2.95,1.88-.82.52a.65.65,0,0,0-.2.91l.39.61a.66.66,0,0,0,.91.21l1.58-1,3.3-2.1c.6-.38,1.19-.8,1.8-1.15a19.59,19.59,0,0,0,1.7-1.16.53.53,0,0,0,.13-.13Z" style="fill:#58595b"/><path d="M27.25,166.45v1.7l-.45.18-.27.11-.45.18L5.85,176.73a.79.79,0,1,1-.59-1.46l18.51-7.42,1.12-.45.07,0,1.43-.57.09,0Z" style="fill:#6d6e71"/><path d="M7.35,174.21l-2.46,1A1,1,0,1,0,5.64,177l2.51-1C7.87,175.42,7.61,174.82,7.35,174.21Z" style="fill:#58595b"/><path d="M46.42,171.88a.78.78,0,0,1-.94.6l-17-3.61-2-.43-.5-.11-.29-.06L25,168.1l-1.19-.25,1.12-.45.07,0v-.88l.09,0,1.34.29.16,0,.7.15,18.56,4A.77.77,0,0,1,46.42,171.88Z" style="fill:#6d6e71"/><path d="M46.3,171l-2.63-.57c-.15.6-.3,1.2-.39,1.81v0l2.62.56a.93.93,0,0,0,1.13-.72A.92.92,0,0,0,46.3,171Z" style="fill:#58595b"/><path d="M38.84,180.58a.78.78,0,0,1-1.12,0L26.08,168.62l-.28-.29-.06-.06-.78-.8-.07-.07.07,0v-2.16l0,0,.62.63.87.89.07.07.7.73,1.27,1.31,10.32,10.6A.76.76,0,0,1,38.84,180.58Z" style="fill:#6d6e71"/><path d="M39.51,179.78l-2-2.08c-.49.47-1,.94-1.44,1.43l2,2.07a1,1,0,0,0,1.45,0A1,1,0,0,0,39.51,179.78Z" style="fill:#58595b"/><path d="M29.88,167.37a.18.18,0,0,0-.1-.09,8.27,8.27,0,0,0-1.1-.47c-.08,0-1.05-.33-1.05-.31,0-.28,0-2.7-.24-2.7a6.24,6.24,0,0,1-2.51.06c-.33-.06-.23,2.85-.44,3.11a.69.69,0,0,1-.2.13,3.73,3.73,0,0,0-1.22.74.19.19,0,0,0-.05.09c0,.09.22.27.28.34a3.63,3.63,0,0,1,.49.83,3.38,3.38,0,0,0,.16.48c.15.25.55,0,.74-.06l1-.43c.1,0,.19-.1.3-.05a.57.57,0,0,1,.16.15,6.86,6.86,0,0,0,.67.65c.16.14.45.49.68.41a.65.65,0,0,0,.23-.13,3.2,3.2,0,0,1,.77-.42c.2-.07.41-.12.61-.2s.37-.16.08-.3a.74.74,0,0,0,.36.05c.12,0,.17-.06.19-.14a3.29,3.29,0,0,1,0-1c0-.16.07-.33.11-.49S29.9,167.44,29.88,167.37Z" style="fill:#58595b"/><path d="M27.56,141.7H24.81a.65.65,0,0,1-.65-.65h0a.65.65,0,0,1,.65-.64h2.75a.64.64,0,0,1,.64.64h0A.65.65,0,0,1,27.56,141.7Z" style="fill:#58595b"/><path d="M48.9,45h0a.42.42,0,0,1-.58-.13l-1-1.53a.44.44,0,0,1,.13-.59h0a.42.42,0,0,1,.59.13l1,1.53A.44.44,0,0,1,48.9,45Z" style="fill:#58595b"/><path d="M58.72,38.12l-1.67-2.64L57,35.4s0,0,0-.06a.41.41,0,0,0-.58-.13l-3.85,2.44a.42.42,0,0,0-.13.59s0,0,.06.07h0L54.12,41a.43.43,0,0,0,.72-.46l-1.5-2.36,3.12-2L58,38.57a.44.44,0,0,0,.59.14A.43.43,0,0,0,58.72,38.12Z" style="fill:#414042"/><circle cx="54.09" cy="40.1" r="0.31" style="fill:#231f20"/><circle cx="57.93" cy="37.66" r="0.31" style="fill:#231f20"/><path d="M57.3,36.4a3.89,3.89,0,0,0,.43-1.74,4.1,4.1,0,0,0-.41-2.54c-.2-.28-.36-.64-.77-.63s-.77.36-1.1.59c-.51.34-1.05.29-1.51.73a2.24,2.24,0,0,1-.76.55,3,3,0,0,0-.66.34c-.5.36-1,.53-1.13,1.18a1.44,1.44,0,0,0-.1,1.12,8.39,8.39,0,0,0,.91,2.16,2.36,2.36,0,0,0,.59.77c.35.26.65.13,1-.06a20.7,20.7,0,0,0,1.93-1.13A4.67,4.67,0,0,0,57.3,36.4Z" style="fill:#f2b6c6"/><path d="M78.19,49.2c-1,2.23-1.63,4.62-2.62,6.87s-2.56,4.27-3.5,6.59c-.82,2-1.91,4.18-3.79,5.4a2,2,0,0,1-1,.53c-2.14.32-4.2-2.37-5.11-4a12,12,0,0,1-.75-1.53,96.16,96.16,0,0,1-3.18-9.4c-.38-1.36-.74-2.73-1.07-4.1-.06-.23-.11-.47-.17-.7-.36-1.6-.81-3.13-1.3-4.7a6.45,6.45,0,0,0-1.48-2.64c-.13-.14-.25-.28-.37-.43l.31-.2,0,0a.43.43,0,1,0,.72-.46l0,0,3.12-2,.06.09a.44.44,0,0,0,.59.13.42.42,0,0,0,.13-.59L58.67,38l.82-.52a.69.69,0,0,0,.32-.6.62.62,0,0,0-.11-.37.7.7,0,0,0-1-.23l.66-.43.34-.21c.06,0,.07,0,.09-.1l.06-.19a7.7,7.7,0,0,1,.45-1,6.51,6.51,0,0,1,1.07-1.67.7.7,0,0,1,.29-.19h.11a.36.36,0,0,1,.28.23,1.11,1.11,0,0,1,.07.37.28.28,0,0,0,0,.09,12.59,12.59,0,0,0,.16,1.85,1.3,1.3,0,0,1,.09.55,2.86,2.86,0,0,1-.39.85A11.28,11.28,0,0,1,61,38l-.6.7a4.69,4.69,0,0,1-.56.69,1.78,1.78,0,0,0-.07,2c.62,1.43,1.27,2.83,2,4.18.37.66.77,1.31,1.19,1.94.9,1.34,1.78,2.71,2.6,4.13l.36-1.06a40.42,40.42,0,0,1,1.33-4c.69-1.56,1.5-3.07,2.2-4.63a6.7,6.7,0,0,1,4.49-4.09,3.56,3.56,0,0,1,2.45.14,4.88,4.88,0,0,1,1.58,1.49l0,0a10.54,10.54,0,0,1,1.71,3.07C80.44,45,79.17,47,78.19,49.2Z" style="fill:#f2b6c6"/><path d="M78.19,49.2c-1,2.23-1.63,4.62-2.62,6.87s-2.56,4.27-3.5,6.59c-.82,2-1.91,4.18-3.79,5.4a2,2,0,0,1-1,.53c-2.14.32-4.2-2.37-5.11-4a12,12,0,0,1-.75-1.53c-.61-1.55-1.19-3.11-1.72-4.68-.47-1.39-.85-2.84-1.35-4.23-.24-.68-.55-1.33-.79-2s-.48-1.5-.68-2.25a.22.22,0,0,1,0-.14c0-.1.3-.2.39-.27l.65-.53c.44-.36.88-.73,1.31-1.11,1-.85,1.87-1.76,2.79-2.65a1.83,1.83,0,0,1,.31.76,4.8,4.8,0,0,0,.39.93c.91,1.58,1.94,3.09,2.86,4.67l.36-1.06a40.42,40.42,0,0,1,1.33-4c.69-1.56,1.5-3.07,2.2-4.63a6.7,6.7,0,0,1,4.49-4.09,3.56,3.56,0,0,1,2.45.14,4.88,4.88,0,0,1,1.58,1.49l0,0a10.54,10.54,0,0,1,1.71,3.07C80.44,45,79.17,47,78.19,49.2Z" style="fill:#e06427"/><path d="M84.24,17.2a2.88,2.88,0,0,0,.66-.85c.31-.61.63-1.27,1-1.91s.75-1.12,1.11-1.68a4.41,4.41,0,0,1,2.64-1.64c2.49-.43,4.78,1.42,6.51,3.1-.06.39-.12.79-.21,1.17a32.81,32.81,0,0,1-1.25,3.74,3.32,3.32,0,0,0-.2,2.06,10.66,10.66,0,0,0,.76,1.46A2.55,2.55,0,0,1,94,25.93a5.28,5.28,0,0,1-1.88.7,25.05,25.05,0,0,1-2.6,0,6.92,6.92,0,0,1-2.66-.44,5.74,5.74,0,0,1-2.2-1.31C82.82,23.07,83,20,84,17.69,84.07,17.52,84.16,17.36,84.24,17.2Z" style="fill:#3c2415"/><path d="M77.55,35.67a.44.44,0,0,1,.13-.14L80,33.77a6.19,6.19,0,0,0,2.38-5c-2.21-.32-3-2.34-3.62-4.32A20.86,20.86,0,0,1,78,20.39c0-.55-.06-1.15,0-1.75a15.84,15.84,0,0,1,1.34-6.38,7,7,0,0,1,4.53-4,7.41,7.41,0,0,1,7.75,3.15,7.91,7.91,0,0,1,1.11,3c0,.28.22,3.53-.06,3.53l.09,0A1.31,1.31,0,0,1,93,18a2.39,2.39,0,0,1,1.14,3.39,5.79,5.79,0,0,1-2.44,2.53c-.28.16-.6.26-.85.44,0,.47,0,.83,0,.93a9.79,9.79,0,0,0,.54,3.39c1,2.73,3.77,4.43,5.82,6.3a18.52,18.52,0,0,1-.45,3.79A8.88,8.88,0,0,1,94.58,43a7.66,7.66,0,0,1-4.47,2.06,10.66,10.66,0,0,1-5.1-.45,7.9,7.9,0,0,1-1.17-.46,8.11,8.11,0,0,1-3-2.68c-1.23-1.78-1.41-3.86-3.11-5.34C77.63,36,77.47,35.84,77.55,35.67Z" style="fill:#edb2c2"/><path d="M93.07,8.2a11.79,11.79,0,0,0-8.16-1.42A21.32,21.32,0,0,0,80.8,8.69a3,3,0,0,0-1.17,3.64,3.5,3.5,0,0,0,1.49,1.23,2,2,0,0,0,.42,0c1.25-.26,2.34-1,3.61-1.26a6,6,0,0,1,3.79.42,4.43,4.43,0,0,1,1.39,1.12,3.26,3.26,0,0,1,.79,1.12c.1.42-.24.59-.54.78a1.91,1.91,0,0,0-.61.47,1.32,1.32,0,0,0-.11.9,18.13,18.13,0,0,0,.48,2.05c0,.11,0,.22,0,.33a3.13,3.13,0,0,1-.25,1,5.37,5.37,0,0,1-.94,1.18,3.9,3.9,0,0,1-2.47,1.26,1.63,1.63,0,0,1-.84-.14c-.29-.14-.5-.42-.79-.54a1.8,1.8,0,0,0-1-.05c-1.24.17-2.49.32-3.73.52-.41.06-.59.15-.88-.16a1.79,1.79,0,0,0-.22-.24c-.17-.18-.33-.26-.72-.15a1,1,0,0,0-.25.07,1,1,0,0,0-.2.13,1.07,1.07,0,0,0-.14.93A35.34,35.34,0,0,0,78.67,27c.19.65.46,1.25.67,1.88s.31,1.26.48,1.89a1.8,1.8,0,0,0,.24.55c.32.46,1,.45,1.49.42a3,3,0,0,0,1.83-.7,9.32,9.32,0,0,1,2.17-1.52c.72-.28,1.49-.5,2.23-.76A5.69,5.69,0,0,0,90,27.56a3.48,3.48,0,0,0,.79-1.38,9.16,9.16,0,0,0,.33-2.45s0-.05,0-.07a20,20,0,0,1,.07-3.55.33.33,0,0,0,.06-.1A9.36,9.36,0,0,1,94,17.66a5.55,5.55,0,0,0,.8-.73A5.47,5.47,0,0,0,96,14.73C96.79,12,95.45,9.6,93.07,8.2Z" style="fill:#3c2415"/><path d="M104.31,182.71h9.26a2.16,2.16,0,0,0,.77-.66,2.25,2.25,0,0,0-.24-2.13,38.9,38.9,0,0,1-3-8.06c-.16-.81-.3-1.62-.38-2.44h-.14l-4.86.22a8.41,8.41,0,0,1-1.12,0,82.06,82.06,0,0,1-.61,10.5,3.61,3.61,0,0,0,.28,2.51Z" style="fill:#d1d3d4"/><path d="M83.78,171.57a1.68,1.68,0,0,0-.83-1.31v-.2l-.54.06h-.08a1.33,1.33,0,0,0-.44.09l-.39.06a24.13,24.13,0,0,1-2.94.15,12.31,12.31,0,0,1-3.07-.39l-.19.2c-.35.31-.74.6-1.1.87-2.9,2.18-6,5.3-9.89,5.57-.87.07-2.26.37-1.39,1.51a.37.37,0,0,0,.13.12l0,0h17.3c1,0,2.67.35,3.34-.64a5.24,5.24,0,0,0,.31-2.46A22.32,22.32,0,0,0,83.78,171.57Z" style="fill:#d1d3d4"/><path d="M107.32,132.88a17.84,17.84,0,0,1-1.29-2.94,14.7,14.7,0,0,1-.44-3c-.51-6.68-.64-13.38-1.21-20.06a154.17,154.17,0,0,0-3-19,6.47,6.47,0,0,0-.3-1c-1.06.26-2.11.54-3.18.76-3.17.68-6.4.54-9.62.67-5.55.23-11.61.53-16.4-2.63a20.62,20.62,0,0,0-.48,2.58c-.19,1.48-.65,3-.95,4.44a74.6,74.6,0,0,0-1.84,14.38c0,1,0,2,.09,3.06.38,5.85,1.64,11.59,2.51,17.38a302.36,302.36,0,0,1,3,42.94,10.9,10.9,0,0,0,3.17.52,32,32,0,0,0,6.27-.27c1.16-.22.34-5.7.29-6.57a58,58,0,0,1,.39-9.59c.64-6.14,1.62-12.51.27-18.56a38,38,0,0,1-1.2-10.77,79.46,79.46,0,0,1,1-10.78s0-.07,0-.11c-.16.81,2.45,3.78,3,4.53,1,1.5,2,3,3,4.51A59.87,59.87,0,0,1,95,132a91,91,0,0,1,5.82,20c.84,4.59,1.45,9.22,2,13.85.22,2,.12,6.06,1.19,8.56l8.39-.58c0-.2,0-.4,0-.59C112.92,159.74,113.48,145.32,107.32,132.88Z" style="fill:#029594"/><path d="M147.33,36.06c.09.41.8-.19,1-.33.49-.34,1-.67,1.5-1a2.93,2.93,0,0,1,1.39-.55h.05c.26.06.34.17.32.29,0,.36-.76.9-1,1.07-.59.48-1.22.92-1.81,1.4-.94.78-1.55,1.86-2.51,2.6A5.77,5.77,0,0,1,143.51,41c-.24,0-.79.8-.94,1l-1.15,1.4c-.78,1-1.57,1.89-2.36,2.84-.69.8-1.38,1.61-2.08,2.4q-3.4,3.94-7,7.76a12.12,12.12,0,0,1-4.68,3,7.45,7.45,0,0,1-5.47-.31c-4.62-2.1-9.06-3.88-13.16-7a11.2,11.2,0,0,0-3.28-2c-1-.31-1.58-.61-1.79-1.71a10.3,10.3,0,0,1,1.65-8,4.48,4.48,0,0,1,2.88-1.84,5.08,5.08,0,0,1,4.44,1.85,14.75,14.75,0,0,1,2.59,3.53c1,.69,2.21,1,3.27,1.61A20.3,20.3,0,0,1,119.79,48a15.31,15.31,0,0,0,2.5,2.24.05.05,0,0,1,0,0,2.9,2.9,0,0,0,1.2-.69c.38-.29.73-.6,1.1-.89.82-.64,1.65-1.24,2.5-1.83,2.27-1.56,4.67-2.91,7-4.35,1.39-.85,2.77-1.73,4.08-2.71A3.46,3.46,0,0,0,139.92,37a8.47,8.47,0,0,1,.17-2.75,4.41,4.41,0,0,1,.23-.56,33.65,33.65,0,0,1,2.52-4.74.23.23,0,0,1,.39,0c.69.66,0,1.67-.32,2.33a2.06,2.06,0,0,0-.22,1.45c.18.65.9.21,1.23-.06A17.36,17.36,0,0,0,146,30.3,23.56,23.56,0,0,1,148.24,28c.21-.18.53-.37.74-.18s.08.51,0,.74A45.14,45.14,0,0,1,146,32.48a1.65,1.65,0,0,0-.28.5c-.07.36.37.06.46,0,.28-.24.52-.55.77-.81l1.54-1.6a32.29,32.29,0,0,1,2.32-2.36,1.9,1.9,0,0,1,.33-.22.54.54,0,0,1,.63.29c.2.46-.39,1-.65,1.35a52.85,52.85,0,0,1-3.57,3.91c-.22.21-.77.64-.69,1,.05,0,1.81-1.3,2-1.44.68-.57,1.34-1.17,2-1.8a1.58,1.58,0,0,1,.42-.31c.48-.22.68.23.6.64a2.55,2.55,0,0,1-.75,1.18c-.57.56-1.15,1.11-1.75,1.63A18,18,0,0,0,147.33,36.06Z" style="fill:#f2b6c6"/><path d="M94.63,88.67l-1.1.56c-.57.29-.07,1.15.51.86l1.09-.56C95.71,89.24,95.2,88.38,94.63,88.67Z" style="fill:#8597ad"/><path d="M137.66,45.35a46.77,46.77,0,0,1-1.85-4.3c-2.59,1.59-5.24,3.08-7.75,4.8-.94.65-1.86,1.32-2.76,2-.41.32-.8.66-1.21,1a3.32,3.32,0,0,1-1.33.77l-.05,0A17.15,17.15,0,0,1,120,47.17a23.06,23.06,0,0,0-3.68-2.8c-1.17-.69-2.5-1-3.61-1.78a16.36,16.36,0,0,0-2.86-3.89,6.1,6.1,0,0,0-4-2.1l0,0a4.08,4.08,0,0,0-.72-.37l-.75-.27c-1.48-.51-3-1-4.48-1.42-.75-.22-1.51-.43-2.26-.63a6.4,6.4,0,0,1-1-.36c-.1,0-.87-.54-.91-.52-6.51,3.44-15.44,7-16.48.9-.75.42-1.51.82-2.26,1.23l-.09.05-4.7,2.69a2.93,2.93,0,0,0-.79.64.4.4,0,0,0-.46.36,65.16,65.16,0,0,0-.54,18c.3,2.44.57,4.88.92,7.32.55,3.82,0,8-.2,11.83q-.39,6.24-1.3,12.44c-.23,1.53,0,2,1.42,2.49a37.24,37.24,0,0,0,21.42,1.18,105.91,105.91,0,0,0,10.65-3.48c1.8-.63,2.09-1.32,1.84-3.18-.69-5.26-1-10.52-1.46-15.81a89.7,89.7,0,0,1-.38-15.11c.08-.87.18-1.73.3-2.59.08-.53.16-1,.25-1.57.59.38,1.15.82,1.71,1.24C110,55,114.93,57,120,59.32a8.2,8.2,0,0,0,6,.35,13.34,13.34,0,0,0,5.17-3.31q3.93-4.22,7.7-8.56C138.49,47,138.06,46.18,137.66,45.35Z" style="fill:#f47732"/><path d="M71.52,88.74a1.71,1.71,0,0,0-.11-.14v0l.22.1-.07,0Z" style="fill:#8597ad"/><path d="M271.18,26.6v0a.6.6,0,0,1,0,.19,1,1,0,0,1-.86.89c-.26,0-.51.07-.77.09h0a.57.57,0,0,1-.18,0h0c-.45.06-.88.12-1.33.16a.62.62,0,0,1-.19,0,.09.09,0,0,1-.07,0,.68.68,0,0,1-.2,0l-.84.1h0l-.18,0-.49,0h0c-7.22.76-14.49,1-21.58,1.3-2.17.08-4.37.16-6.58.27l-3.51-.48c-.61-.08-1.25-.21-1.88-.29l-.29.24-.09-.06a.67.67,0,0,1-.06.12c-.31.46-1,.46-1.49.45a3.09,3.09,0,0,1-1.84-.66c-.31-.24-.62-.5-.94-.74l1.24-.1c.63-.05,1.26-.09,1.9-.12l1.51-.1c4-.23,8-.38,12-.53,8-.3,16.3-.62,24.41-1.62h0a2.7,2.7,0,0,0,.41-.06h0a.55.55,0,0,0,.18,0l.67-.08h.15l.18,0s0,0,0,0h.12a.87.87,0,0,1,.27.14l.29.33,0,0a1,1,0,0,1,0,.1.43.43,0,0,1,0,.17h0A0,0,0,0,1,271.18,26.6Z" style="fill:#261a11"/><path d="M253.17,62.53a26.16,26.16,0,0,0-.18-4.6c-.27-1.8-.82-3.54-1.25-5.3s-.55-3.31-1-4.9c-.4-1.4-.37-2.9-.76-4.32-.32-1.2-1.09-2.28-1.27-3.53a37.42,37.42,0,0,0-.56-3.8,9.43,9.43,0,0,0-1.08-2.63,4.86,4.86,0,0,0-4.67-2.63,5,5,0,0,0-3.67,2.79c-2.8,5.08-.57,10.69.87,15.79a83.28,83.28,0,0,0,3.12,9.43,36.76,36.76,0,0,0,4.35,7.94A11.11,11.11,0,0,0,251,70c.26.13.68.27.92.05a.64.64,0,0,0,.18-.32,22.37,22.37,0,0,0,1-6.44Zm-2.58-15.08.1.72h0C250.65,47.93,250.62,47.69,250.59,47.45Z" style="fill:#f2b6c6"/><path d="M211.45,68.85c-1.48,3.53-4.2,5.77-7.12,8.12A126.83,126.83,0,0,1,188.9,87.59c-.11.06-.11.34-.12.44a4.23,4.23,0,0,1-1.14,2.68,5.27,5.27,0,0,1-1.79.84,4.11,4.11,0,0,0-1.17.8,2.94,2.94,0,0,1-.6.39c-1.34.63-2.92-.46-4-1.41a5.75,5.75,0,0,1-.73-2.59,5.58,5.58,0,0,1,.13-1c.1-.26.18-.5.28-.76a1.9,1.9,0,0,1,.34-.62c.48-.58,1.19-.6,2.07-.72a4.82,4.82,0,0,0,2.11-.68c.08,0,.15-.1.23-.15a34,34,0,0,0,5-5.06c1.63-1.84,3.16-3.74,4.66-5.67s2.92-4.09,4.58-6a10.62,10.62,0,0,1,2.06-1.85c.32-.21,1.52-.74,1.59-1.16.43-2.76.81-5.53,1.06-8.32.49-5.65.46-12.64,5.3-16.55A5.06,5.06,0,0,1,213.19,39a4.83,4.83,0,0,1,3.32,4.19,9.08,9.08,0,0,1,0,2.85,36.07,36.07,0,0,1-.92,3.72c-.3,1.24,0,2.52-.15,3.75a39.81,39.81,0,0,1-1.16,4.67C213.4,61.75,212.88,65.44,211.45,68.85Z" style="fill:#f2b6c6"/><path d="M243.28,182.71h9.26a2.16,2.16,0,0,0,.77-.66,2.25,2.25,0,0,0-.24-2.13,38.33,38.33,0,0,1-3-8.06c-.16-.81-.3-1.62-.38-2.44h-.14l-4.86.22a8.41,8.41,0,0,1-1.12,0,82.06,82.06,0,0,1-.61,10.5,3.61,3.61,0,0,0,.28,2.51S243.27,182.69,243.28,182.71Z" style="fill:#d1d3d4"/><path d="M222.75,171.57a1.68,1.68,0,0,0-.83-1.31v-.2l-.54.06h-.08a1.33,1.33,0,0,0-.44.09l-.39.06a24.13,24.13,0,0,1-2.94.15,12.25,12.25,0,0,1-3.07-.39,1.89,1.89,0,0,1-.2.2,13.13,13.13,0,0,1-1.1.87c-2.89,2.18-6,5.3-9.89,5.57-.86.07-2.25.37-1.38,1.51a.37.37,0,0,0,.13.12l0,0h17.3c1,0,2.67.35,3.34-.64a5.24,5.24,0,0,0,.31-2.46A23.49,23.49,0,0,0,222.75,171.57Z" style="fill:#d1d3d4"/><path d="M227.31,15.32a3.36,3.36,0,0,1-.68-.83c-.32-.6-.66-1.26-1-1.9s-.78-1.09-1.15-1.65a4.35,4.35,0,0,0-2.68-1.57c-2.49-.38-4.74,1.52-6.43,3.24q.09.59.24,1.17a31,31,0,0,0,1.33,3.71,3.29,3.29,0,0,1,.24,2.05,10.63,10.63,0,0,1-.72,1.48,2.55,2.55,0,0,0,1.35,3.25,5.31,5.31,0,0,0,1.89.65,25.26,25.26,0,0,0,2.61-.05,7,7,0,0,0,2.64-.5A6,6,0,0,0,227.1,23c1.77-1.85,1.55-4.89.46-7.21C227.48,15.64,227.4,15.48,227.31,15.32Z" style="fill:#cc5627"/><path d="M234.45,33.66a17.38,17.38,0,0,0,1.87-3.25,7.38,7.38,0,0,1-5.58-2.2c-.32-.37-.92-1.16-.53-1.56.17-.18.55-.28.75-.44a3.71,3.71,0,0,0,.57-.55,8.11,8.11,0,0,0,1.42-3.2,20.81,20.81,0,0,0,.69-4.09,17.11,17.11,0,0,0,0-1.76,15.61,15.61,0,0,0-1.48-6.34,7,7,0,0,0-4.62-3.95,7.42,7.42,0,0,0-7.68,3.33,8,8,0,0,0-1,3c0,.29-.14,3.53.14,3.53l-.09,0a1.33,1.33,0,0,0-.34.1,2.39,2.39,0,0,0-1.06,3.42A5.82,5.82,0,0,0,220,22.19a6.87,6.87,0,0,1,.86.42c0,.46,0,.83,0,.92a9.83,9.83,0,0,1-.45,3.41c-1,2.75-3.68,4.51-5.68,6.43a19.13,19.13,0,0,0,.53,3.78,8.93,8.93,0,0,0,2.29,4.22,7.71,7.71,0,0,0,4.52,2,10.78,10.78,0,0,0,5.09-.57,8.22,8.22,0,0,0,1.15-.48,8,8,0,0,0,2.9-2.76c.95-1.44,1.21-3.3,2.3-4.64C233.85,34.48,234.16,34.07,234.45,33.66Z" style="fill:#edb2c2"/><path d="M246.29,132.88a17.84,17.84,0,0,1-1.29-2.94,14.7,14.7,0,0,1-.44-3c-.51-6.68-.65-13.38-1.21-20.06a154.19,154.19,0,0,0-3.06-19,5.55,5.55,0,0,0-.29-1c-1.06.26-2.11.54-3.18.76-3.17.68-6.4.54-9.62.67-5.55.23-11.61.53-16.4-2.63a20.62,20.62,0,0,0-.48,2.58c-.2,1.48-.65,3-.95,4.44a74.6,74.6,0,0,0-1.84,14.38c0,1,0,2,.09,3.06.38,5.85,1.64,11.59,2.5,17.38a300.91,300.91,0,0,1,3,42.94,10.85,10.85,0,0,0,3.17.52,32,32,0,0,0,6.27-.27c1.16-.22.34-5.7.29-6.57a58,58,0,0,1,.39-9.59c.64-6.14,1.62-12.51.27-18.56a38,38,0,0,1-1.2-10.77,77.89,77.89,0,0,1,1-10.78s0-.07,0-.11c-.16.81,2.45,3.78,3,4.53,1,1.5,2,3,3,4.51A59.87,59.87,0,0,1,234,132a91.53,91.53,0,0,1,5.82,20c.84,4.59,1.45,9.22,2,13.85.22,2,.12,6.06,1.18,8.56l8.4-.58c0-.2,0-.4,0-.59C251.88,159.74,252.44,145.32,246.29,132.88Z" style="fill:#1d71b9"/><path d="M240.61,86.41a15.25,15.25,0,0,1-.54-2.48c0-.79-.26-1.56-.3-2.33-.1-2.06.5-4.29.69-6.34a91.39,91.39,0,0,0,.18-19.77l-.75-6.07a38,38,0,0,1-.13-5.23c.08-4.92.57-9.23,3-13.54-1-.61-3-.56-4.18-.73-1.48-.22-3-.42-4.47-.61-.61-.08-1.24-.21-1.88-.29-.46.39-.95.78-1.46,1.16a17.4,17.4,0,0,1-2.47,1.7c-4.38,2.7-9.48,4.19-12.72.48a1.44,1.44,0,0,0-.52.34c-.36.36-.77.68-1.16,1q-.93.76-1.89,1.5c-3.1,2.4-7.16,5.67-6,10.19.39,1.52,1,3,1.49,4.45s.91,3.16,1.39,4.73c1.76,5.69,2.15,11.79,2.24,17.86.06,3.18-.42,6.47-.61,9.65a32.39,32.39,0,0,1-1.44,9,.94.94,0,0,0-.07.4.77.77,0,0,0,.24.38c1.09,1.09,2.49,1.22,3.94,1.38a64.17,64.17,0,0,0,14.33.09A49.32,49.32,0,0,0,234.65,92c2.07-.56,4.74-1.15,6.46-2.47.18-.14.38-.32.36-.55a.8.8,0,0,0-.13-.32A5.23,5.23,0,0,1,240.61,86.41Z" style="fill:#e71d73"/><path d="M218.28,6.52a11.78,11.78,0,0,1,8.12-1.6,21.38,21.38,0,0,1,4.16,1.81,3,3,0,0,1,1.25,3.61,3.39,3.39,0,0,1-1.46,1.27l-.42,0c-1.26-.23-2.37-1-3.64-1.18a6,6,0,0,0-3.78.51,4.42,4.42,0,0,0-1.36,1.15,3.24,3.24,0,0,0-.77,1.14c-.09.41.26.58.56.76a1.93,1.93,0,0,1,.62.46,1.25,1.25,0,0,1,.13.89,15.69,15.69,0,0,1-.44,2.07c0,.11,0,.22,0,.33a3.07,3.07,0,0,0,.27,1,5.34,5.34,0,0,0,1,1.16,3.8,3.8,0,0,0,2.49,1.2,1.63,1.63,0,0,0,.84-.15c.28-.15.49-.44.78-.57a1.87,1.87,0,0,1,1-.07c1.25.15,2.5.27,3.75.44.41.05.58.14.87-.18l.21-.24a.64.64,0,0,1,.72-.18l.25.07a.77.77,0,0,1,.2.13,1.05,1.05,0,0,1,.17.92A33.68,33.68,0,0,1,233.1,25c-.17.64-.43,1.25-.63,1.89s-.27,1.27-.44,1.9a1.76,1.76,0,0,1-.22.55c-.31.47-1,.47-1.48.45a3,3,0,0,1-1.85-.65,9,9,0,0,0-2.2-1.47c-.72-.27-1.5-.47-2.24-.71a5.6,5.6,0,0,1-2.21-1.13,3.27,3.27,0,0,1-.82-1.36,9,9,0,0,1-.39-2.44s0-.05,0-.07a20,20,0,0,0-.15-3.55l-.07-.09A9.31,9.31,0,0,0,217.55,16a5.57,5.57,0,0,1-.82-.71,5.46,5.46,0,0,1-1.26-2.17C214.65,10.37,215.93,8,218.28,6.52Z" style="fill:#cc5627"/><rect x="274.62" y="18.48" width="10.89" height="0.51" transform="translate(108.55 -203.46) rotate(48.51)" style="fill:#6d6e71"/><path d="M276.74,15c-.45.4-.94.58-1.1.4s.08-.65.53-1.05.94-.57,1.1-.39S277.19,14.59,276.74,15Z" style="fill:#939598"/><path d="M284.07,23.27c-.45.4-.94.58-1.1.4s.08-.65.53-1.05.94-.57,1.1-.39S284.52,22.87,284.07,23.27Z" style="fill:#939598"/><rect x="271.73" y="21.04" width="10.89" height="0.51" transform="translate(109.49 -200.43) rotate(48.51)" style="fill:#6d6e71"/><path d="M273.85,17.54c-.45.4-.94.57-1.1.39s.08-.64.53-1,.94-.58,1.1-.4S274.3,17.14,273.85,17.54Z" style="fill:#939598"/><path d="M281.18,25.83c-.45.39-.94.57-1.1.39s.08-.64.53-1,.94-.58,1.1-.4S281.63,25.43,281.18,25.83Z" style="fill:#939598"/><rect x="268.84" y="23.6" width="10.89" height="0.51" transform="translate(110.43 -197.41) rotate(48.51)" style="fill:#6d6e71"/><path d="M271,20.09c-.44.4-.94.58-1.1.4s.08-.65.53-1,.94-.57,1.1-.39S271.41,19.7,271,20.09Z" style="fill:#939598"/><path d="M278.3,28.38c-.45.4-.95.58-1.11.4s.08-.65.53-1.05.94-.57,1.1-.39S278.74,28,278.3,28.38Z" style="fill:#939598"/><path d="M192.51,83a26,26,0,0,0,2.66,4.47c4.64,6.36,12.82,15.56,22.17,12.24,4.69-1.67,8.33-6,10.09-10.37,1.28-3.21,1.9-6.91,3.83-9.91a12.3,12.3,0,0,1,4.87-4c3.58-2,3.47-5.59,2.62-8.54a21.09,21.09,0,0,0-11.24-12.71c-2.83-1.2-6.41-1.76-8.8,1.55a12.31,12.31,0,0,1-4.61,4.34c-3.22,1.55-7,1.72-10.31,2.6-4.58,1.21-9.29,4.29-11.52,8.74C190.29,75.35,190.87,79.41,192.51,83Z" style="fill:#d6854d"/><polygon points="217.69 83.66 208.27 73.02 206.45 74.64 207.77 76.14 207.44 76.81 213.82 84.03 214.53 83.78 215.86 85.28 217.69 83.66" style="fill:#754c29"/><path d="M218.17,79.58a4.54,4.54,0,0,0,2.11,2.24c2.26,1.15,4.87-.22,6.49-1.86a13.46,13.46,0,0,0,3.36-5.61,7.7,7.7,0,0,0,.25-2.94,14.91,14.91,0,0,0-1-2.76c-.51.5-.53,1.22-.94,1.78a5.2,5.2,0,0,1-1.61,1.45,7.72,7.72,0,0,1-4.15.91.85.85,0,0,0-.45.06.91.91,0,0,0-.33.37c-.84,1.34-2.34,2-3.32,3.26A3,3,0,0,0,218.17,79.58Z" style="fill:#0c0a0b"/><path d="M227.31,72.91a5.42,5.42,0,1,1,.47-7.66A5.42,5.42,0,0,1,227.31,72.91Z" style="fill:#333031"/><path d="M219.36,72.7a5.82,5.82,0,1,1,8.22.5A5.82,5.82,0,0,1,219.36,72.7Zm8.13-7.19a5,5,0,1,0-.43,7.1A5,5,0,0,0,227.49,65.51Z" style="fill:#827c7a"/><polygon points="230.39 67.58 225.67 62.24 226.01 61.95 226.14 61.84 227.57 60.63 227.69 60.52 229.12 59.32 229.24 59.21 230.67 58 230.8 57.9 232.44 56.51 232.56 56.4 234.21 55.01 234.33 54.91 236.71 52.89 236.83 52.78 239.21 50.77 239.33 50.66 241.71 48.65 241.84 48.54 244.5 46.29 244.62 46.18 247.28 43.92 247.4 43.82 250.06 41.57 250.19 41.47 252.85 39.21 252.97 39.1 255.63 36.85 255.75 36.74 258.41 34.48 258.54 34.38 261.2 32.13 261.32 32.02 263.98 29.77 264.1 29.66 266.76 27.41 266.89 27.31 269.68 24.93 272.79 28.45 270.1 30.93 269.98 31.05 267.42 33.41 267.3 33.52 264.74 35.89 264.62 35.99 262.06 38.35 261.94 38.47 259.38 40.84 259.25 40.95 256.69 43.31 256.57 43.42 254.01 45.78 253.89 45.9 251.33 48.26 251.21 48.37 248.65 50.73 248.52 50.84 245.96 53.2 245.84 53.32 243.55 55.43 243.43 55.54 241.15 57.66 241.02 57.77 238.73 59.88 238.61 59.98 237.03 61.45 236.91 61.56 235.33 63.02 235.21 63.13 233.84 64.41 233.71 64.52 232.34 65.78 232.22 65.89 230.84 67.16 230.72 67.27 230.39 67.58" style="fill:#754c29"/><path d="M283.27,19,282,17.49l-.29-.33L280.3,15.6l-1.21-1.37-8.66,8.17a4.73,4.73,0,0,1-.88,2.66l0,0L271,26.65l.29.33,1.3,1.46.11.13A4.73,4.73,0,0,1,275.4,28l9.17-7.59Z" style="fill:#a06d47"/><rect x="268.71" y="26.76" width="4.72" height="0.17" transform="translate(111.59 -193.99) rotate(48.51)" style="fill:#e6e7e8"/><polygon points="269.98 31.05 266.76 27.41 266.89 27.31 270.1 30.93 269.98 31.05" style="fill:#e6e7e8"/><rect x="265.62" y="29.09" width="0.17" height="5.01" transform="translate(45.8 184.03) rotate(-41.51)" style="fill:#e6e7e8"/><rect x="262.89" y="31.43" width="0.16" height="5.16" transform="translate(43.45 182.73) rotate(-41.49)" style="fill:#e6e7e8"/><polygon points="261.94 38.47 258.41 34.48 258.54 34.38 262.06 38.35 261.94 38.47" style="fill:#e6e7e8"/><rect x="257.42" y="36.11" width="0.17" height="5.47" transform="translate(38.88 180.33) rotate(-41.49)" style="fill:#e6e7e8"/><rect x="254.69" y="38.45" width="0.17" height="5.62" transform="translate(36.65 179.22) rotate(-41.51)" style="fill:#e6e7e8"/><polygon points="253.89 45.9 250.06 41.57 250.19 41.47 254.01 45.78 253.89 45.9" style="fill:#e6e7e8"/><rect x="249.23" y="43.13" width="0.16" height="5.93" transform="translate(32.01 176.71) rotate(-41.49)" style="fill:#e6e7e8"/><rect x="246.49" y="45.47" width="0.17" height="6.08" transform="translate(29.73 175.52) rotate(-41.49)" style="fill:#e6e7e8"/><polygon points="245.84 53.32 241.71 48.65 241.84 48.54 245.96 53.2 245.84 53.32" style="fill:#e6e7e8"/><rect x="241.3" y="49.92" width="0.16" height="6.37" transform="translate(25.39 173.23) rotate(-41.49)" style="fill:#e6e7e8"/><rect x="238.84" y="52.01" width="0.17" height="6.52" transform="translate(23.34 172.16) rotate(-41.49)" style="fill:#e6e7e8"/><rect x="236.39" y="54.12" width="0.16" height="6.64" transform="translate(21.32 171.16) rotate(-41.51)" style="fill:#e6e7e8"/><rect x="234.65" y="55.61" width="0.17" height="6.75" transform="translate(19.87 170.39) rotate(-41.51)" style="fill:#e6e7e8"/><polygon points="235.21 63.13 230.67 58 230.8 57.9 235.33 63.02 235.21 63.13" style="fill:#e6e7e8"/><rect x="231.39" y="58.4" width="0.17" height="6.94" transform="translate(17.09 168.86) rotate(-41.49)" style="fill:#e6e7e8"/><rect x="229.87" y="59.7" width="0.17" height="7.02" transform="translate(15.87 168.28) rotate(-41.51)" style="fill:#e6e7e8"/><rect x="228.34" y="61.01" width="0.17" height="7.1" transform="matrix(0.75, -0.66, 0.66, 0.75, 14.5, 167.44)" style="fill:#e6e7e8"/><path d="M269.67,25.38l-59,51.29-.69.6a.1.1,0,0,1-.07,0s0,0,0,0l.71-.62,59-51.28Z" style="fill:#bcbec0"/><path d="M270.15,25.92,211.48,77.56l-.71.62,0,0s0,0,0-.05l.7-.63,58.68-51.63Z" style="fill:#bcbec0"/><path d="M270.72,26.57,211.47,79s0,0,0,0a.05.05,0,0,1,0,0l59.24-52.41Z" style="fill:#bcbec0"/><path d="M271.37,27.3,212.11,79.71a.16.16,0,0,1-.05-.09l59.24-52.4Z" style="fill:#bcbec0"/><path d="M213.55,79.9l-.7.63,0,0s0,0,0-.07l.68-.61,58.38-52,.07.08Z" style="fill:#bcbec0"/><path d="M214.24,80.7l-.69.61s-.05,0-.07,0h0l.71-.64,58.26-52.1.06.07Z" style="fill:#bcbec0"/><path d="M210.6,77.28a.46.46,0,0,1-.61,0,.1.1,0,0,1-.07,0s0,0,0,0a.47.47,0,0,1,.71-.62s0,0,0,0a.1.1,0,0,1,0,.07A.49.49,0,0,1,210.6,77.28Z" style="fill:#a7a9ac"/><path d="M211.41,78.19a.47.47,0,0,1-.64,0l0,0s0,0,0-.05a.47.47,0,0,1,.07-.63.47.47,0,0,1,.63,0,.11.11,0,0,1,0,0,.13.13,0,0,1,0,0A.48.48,0,0,1,211.41,78.19Z" style="fill:#a7a9ac"/><path d="M212.11,79a.47.47,0,0,1-.64,0s0,0,0,0a.05.05,0,0,1,0,0,.48.48,0,0,1,.06-.64.49.49,0,0,1,.64,0l0,0a.13.13,0,0,1,0,0A.48.48,0,0,1,212.11,79Z" style="fill:#a7a9ac"/><path d="M212.79,79.75a.48.48,0,0,1-.68,0,.16.16,0,0,1-.05-.09.47.47,0,0,1,.09-.59.48.48,0,0,1,.6,0,.24.24,0,0,1,.08.06A.48.48,0,0,1,212.79,79.75Z" style="fill:#a7a9ac"/><path d="M213.5,80.55a.47.47,0,0,1-.65,0l0,0s0,0,0-.07a.46.46,0,0,1,.68-.61.1.1,0,0,1,.07,0,0,0,0,0,1,0,0A.47.47,0,0,1,213.5,80.55Z" style="fill:#a7a9ac"/><path d="M214.16,81.3a.46.46,0,0,1-.61,0s-.05,0-.07,0h0a.49.49,0,0,1,.06-.67.48.48,0,0,1,.65,0h0s.05,0,0,.08A.45.45,0,0,1,214.16,81.3Z" style="fill:#a7a9ac"/><path d="M269.65,25.39l-.07-.08a17.32,17.32,0,0,1,1.61-1.13,12.59,12.59,0,0,0,2-1.49.68.68,0,0,0,.25-.39h.1a.78.78,0,0,1-.28.46,12.22,12.22,0,0,1-2,1.5A16.94,16.94,0,0,0,269.65,25.39Z" style="fill:#bcbec0"/><path d="M275.11,21.7a8.07,8.07,0,0,0,1.17-1.38,1.12,1.12,0,0,0,.18-.45.74.74,0,0,0-.17-.5.26.26,0,0,1-.05.09.69.69,0,0,1,.12.4,1.23,1.23,0,0,1-.17.41A7.81,7.81,0,0,1,275,21.63a18.71,18.71,0,0,1-1.82,1.65c-.31.25-.64.48-1,.71a10.23,10.23,0,0,0-2.18,1.87l.08.07a10.12,10.12,0,0,1,2.16-1.86c.33-.22.66-.46,1-.71A21.63,21.63,0,0,0,275.11,21.7Z" style="fill:#bcbec0"/><path d="M273.06,24.35a49,49,0,0,0,6-6.37,1.16,1.16,0,0,0,.32-.87.71.71,0,0,0-.31-.46l-.09.06a.64.64,0,0,1,.3.42,1.12,1.12,0,0,1-.3.79,49.47,49.47,0,0,1-6,6.36l-2.41,2.27.08.07Z" style="fill:#bcbec0"/><path d="M272.42,28.52l.07.07a15.14,15.14,0,0,0,1.32-1.45,12.07,12.07,0,0,1,1.71-1.79.76.76,0,0,1,.43-.21V25a.82.82,0,0,0-.49.22,12.84,12.84,0,0,0-1.73,1.81A16.33,16.33,0,0,1,272.42,28.52Z" style="fill:#bcbec0"/><path d="M276.64,23.44a8,8,0,0,1,1.51-1,1.14,1.14,0,0,1,.47-.13.73.73,0,0,1,.48.23l-.1,0a.63.63,0,0,0-.38-.17,1.06,1.06,0,0,0-.42.12,8,8,0,0,0-1.49,1,20.17,20.17,0,0,0-1.87,1.61c-.28.28-.55.58-.81.87a10.06,10.06,0,0,1-2.13,1.94l-.06-.09A9.86,9.86,0,0,0,274,25.93c.26-.29.54-.59.82-.88A21.56,21.56,0,0,1,276.64,23.44Z" style="fill:#bcbec0"/><path d="M273.78,25.17A49.46,49.46,0,0,1,280.84,20a1.17,1.17,0,0,1,.9-.21.73.73,0,0,1,.42.37l-.07.07a.64.64,0,0,0-.38-.34,1.09,1.09,0,0,0-.82.2,50,50,0,0,0-7,5.17l-2.55,2.11-.07-.08Z" style="fill:#bcbec0"/><path d="M279.08,17.65a.7.7,0,1,1,.06-1A.7.7,0,0,1,279.08,17.65Z" style="fill:#939598"/><path d="M282.09,21.05a.7.7,0,1,1,.06-1A.7.7,0,0,1,282.09,21.05Z" style="fill:#939598"/><path d="M276.2,20.19a.7.7,0,1,1,.06-1A.7.7,0,0,1,276.2,20.19Z" style="fill:#939598"/><path d="M279.21,23.6a.7.7,0,1,1,.06-1A.7.7,0,0,1,279.21,23.6Z" style="fill:#939598"/><path d="M273.31,22.75a.7.7,0,0,1-1-.06.71.71,0,0,1,1.06-.93A.7.7,0,0,1,273.31,22.75Z" style="fill:#939598"/><path d="M276.32,26.15a.7.7,0,0,1-1-.06.71.71,0,0,1,1.06-.93A.7.7,0,0,1,276.32,26.15Z" style="fill:#939598"/><path d="M265.93,32.89c-.06-.24-.11-.48-.17-.72a2.93,2.93,0,0,0-.22-.65,3.81,3.81,0,0,0-3.17-1.69,4.12,4.12,0,0,0-2.66,2.33c-.13.33-.19.69-.32,1-.36,1-1.25,1.49-1.64,2.4a3.7,3.7,0,0,0-.29,1.91,1.37,1.37,0,0,0,.07.29,5.81,5.81,0,0,0,.5,1.68c0,.09.19.33.13.43a125.93,125.93,0,0,0-7.49,17.18,28.31,28.31,0,0,0-2,7.59c-.13,1.93.53,4.61,2.52,5.42a2.4,2.4,0,0,0,2.39-.16,16.48,16.48,0,0,0,2.07-2.26A15.61,15.61,0,0,0,258,64a17,17,0,0,0,1.26-4.31q.94-5.1,1.81-10.2c.29-1.74.58-3.47.85-5.21a15.49,15.49,0,0,1,.52-2.24,11.46,11.46,0,0,1,.44-1.1c.1-.23.52-.74.52-1l0-.06a6.27,6.27,0,0,1,1.39-1.78,3.66,3.66,0,0,0,1.5-2.51A9.28,9.28,0,0,0,265.93,32.89Z" style="fill:#f2b6c6"/><path d="M218.21,30.2a11.53,11.53,0,0,1-.93,1.35c-.32.45-.6.93-.93,1.38-.85,1.18-1.86,2.19-2.79,3.3a25.53,25.53,0,0,0-1.93,2.67A42.92,42.92,0,0,0,208.92,44q-1,2.19-2,4.28c-1.16,2.45-2.3,4.78-3.44,7-1.72,3.42-3.43,6.63-5.16,9.68a16.9,16.9,0,0,0-5.11,4.74,221.78,221.78,0,0,0,10.86-20.14c.64-1.32,1.28-2.68,1.93-4.07.35-.77.72-1.55,1.08-2.35s.86-1.83,1.38-2.81a31,31,0,0,1,3-4.75,21,21,0,0,1,1.57-1.83,16.44,16.44,0,0,1,2.4-2.08,14.41,14.41,0,0,1,1.34-.85A7.11,7.11,0,0,1,218.21,30.2Z" style="fill:#261a11"/><path d="M500,18.94A17.77,17.77,0,0,1,500,22c0,.19,0,.37-.07.56s-.37.42-.44.56a3.15,3.15,0,0,0-.33.78,33.52,33.52,0,0,1-1.51,4.43c-.82,1.69-2.37,3.14-4.4,2.6a3.2,3.2,0,0,0-.42-.1c.21.8.37,1.61.53,2.43,2.53.61,4.74-1.53,5.78-3.61a22.44,22.44,0,0,0,1.8-6.85,15,15,0,0,0,.26-3.88Z" style="fill:#231f20"/><path d="M478,31.25a1.53,1.53,0,0,0-2,.54l-.75,1.09a1.09,1.09,0,0,0-.14.31c-5.06,5-5.78,14.18-7.1,20.77-1.8,8.94-3.35,17.91-6,26.66-.56,1.85,2.34,2.64,2.9.79a233.18,233.18,0,0,0,5.26-22.95c.72-3.7,1.45-7.4,2.32-11.07.95-4,1.69-9.1,4.77-12.11a1.45,1.45,0,0,0,.39-.65,1.43,1.43,0,0,0,.19-.24l.75-1.09A1.52,1.52,0,0,0,478,31.25Z" style="fill:#754c29"/><path d="M514.17,46.32c0,.22,0,.44,0,.66a17.37,17.37,0,0,1-2.06,7.77,4.32,4.32,0,0,1-2.19,1.7,5.39,5.39,0,0,1-3.51-.34l-.73-.32-.16-.08-1.15-.56c-1.2-.6-2.37-1.27-3.51-2-.24-.16-.48-.3-.71-.46-.43-.27-.86-.55-1.28-.84-4.27-2.89-8.93-5.74-12.61-9.37-2.28-2.27-4.62-5.76-3.11-9.06s5.5-3.3,8.53-2.08,5.35,3.75,7.64,6.19c1.75,1.33,3.66,2.45,5.46,3.7.07-.73.15-1.45.27-2.18.17-1.17.41-2.34.69-3.51.82-3.27,1.85-6.9-.16-10-.32-.49-.69-.94-1-1.45-1.05-1.95-.56-4.43-.12-6.48.23-1.07.79-1.94,1.7-2.07a2.31,2.31,0,0,1,1.3.28c1.67.82,1.22,2.6,1.4,4.11.3,2.4,3.7,4.42,2.94,7-.67,2.27.13,4.67.72,6.87.06.21.12.43.17.64.44,2,.85,4.05,1.12,6.09,0,.17.05.33.07.5l.06.46c0,.27.06.53.08.8s.07.68.08,1,0,.58,0,.88C514.19,44.93,514.19,45.62,514.17,46.32Z" style="fill:#e5a5b9"/><path d="M514.17,46.32c0,.22,0,.44,0,.66a16.66,16.66,0,0,1-1.71,7.21c-.11.19-.23.38-.35.56a4.32,4.32,0,0,1-2.19,1.7,5.39,5.39,0,0,1-3.51-.34l-.73-.32-.16-.08-1.15-.56c-1.2-.6-2.37-1.27-3.51-2-.24-.16-.48-.3-.71-.46-.43-.27-.86-.55-1.28-.84-4.27-2.89-8.93-5.74-12.61-9.37-2.28-2.27-4.62-5.76-3.11-9.06s5.5-3.3,8.53-2.08,5.35,3.75,7.64,6.19c1.75,1.33,3.66,2.45,5.46,3.7.07-.73.15-1.45.27-2.18a6.36,6.36,0,0,0,.66.18q3.21.68,6.46,1.11c.56.08,1.11.14,1.67.2h0l.06.5.06.46c0,.27.06.53.08.8s.07.68.08,1,0,.59,0,.88C514.19,44.93,514.19,45.62,514.17,46.32Z" style="fill:#931f93"/><path d="M464.77,180.82h-9.26a2.14,2.14,0,0,1-.77-.65A2.25,2.25,0,0,1,455,178a39.69,39.69,0,0,0,3-8.06c.16-.81.3-1.63.38-2.44h.14l4.86.22a10.46,10.46,0,0,0,1.12,0,82,82,0,0,0,.61,10.5,3.64,3.64,0,0,1-.28,2.52Z" style="fill:#d1d3d4"/><path d="M485.3,169.68a1.62,1.62,0,0,1,.83-1.3,1.27,1.27,0,0,0,0-.2,3.31,3.31,0,0,1,.54.06h.09a1.36,1.36,0,0,1,.44.08l.39.06a22.23,22.23,0,0,0,2.93.16,12.81,12.81,0,0,0,3.08-.39c.06.07.13.13.19.19.35.32.74.6,1.1.88,2.9,2.17,6.05,5.3,9.89,5.57.87.06,2.25.37,1.39,1.51a.37.37,0,0,1-.13.12l0,0H488.7c-1,0-2.67.34-3.34-.65a5.35,5.35,0,0,1-.32-2.46A23.5,23.5,0,0,1,485.3,169.68Z" style="fill:#d1d3d4"/><path d="M486.77,13.68a2.9,2.9,0,0,1-.55-.93c-.23-.64-.46-1.34-.74-2s-.6-1.2-.88-1.81a4.39,4.39,0,0,0-2.41-2c-2.42-.75-4.92.79-6.85,2.23a11.71,11.71,0,0,0,.06,1.19,29.74,29.74,0,0,0,.76,3.87,3.4,3.4,0,0,1-.07,2.07,12.53,12.53,0,0,1-.94,1.35,2.56,2.56,0,0,0,.85,3.42,5.05,5.05,0,0,0,1.76.93,24.78,24.78,0,0,0,2.59.34,7,7,0,0,0,2.69-.1,5.88,5.88,0,0,0,2.35-1c2-1.56,2.28-4.6,1.55-7.06C486.89,14,486.82,13.85,486.77,13.68Z" style="fill:#af6325"/><path d="M490.89,30.77a10.86,10.86,0,0,1-1.84-2.33c-.65-1.11-1.27-2.74-.18-3.79.45-.42,1-.62,1.4-1.14a16.19,16.19,0,0,0,2.28-5.87,14.67,14.67,0,0,0,.29-1.72,15.83,15.83,0,0,0-.51-6.49,7,7,0,0,0-4-4.61A7.41,7.41,0,0,0,480.27,7a7.85,7.85,0,0,0-1.49,2.81c-.09.28-.67,3.47-.39,3.51h-.1a2.15,2.15,0,0,0-.34.05,2.4,2.4,0,0,0-1.57,3.23,5.77,5.77,0,0,0,2.1,2.82,6.54,6.54,0,0,1,.77.54,12.59,12.59,0,0,1-.76,3.27,8.09,8.09,0,0,1-2.94,4.39A28.13,28.13,0,0,1,468.47,31a21.68,21.68,0,0,0,2.22,6.12,13.89,13.89,0,0,0,6.53,5.75,12.44,12.44,0,0,0,12.72-1.42,15.71,15.71,0,0,0,1.29-1.16,23.59,23.59,0,0,0,2.46-3c.37-.52.72-1.05,1.07-1.59.21-.32.95-1.11.61-1.48a22.31,22.31,0,0,0-3.2-2.35A12.08,12.08,0,0,1,490.89,30.77Z" style="fill:#edb2c2"/><path d="M461.76,131a17.84,17.84,0,0,0,1.29-2.94,15.23,15.23,0,0,0,.44-2.94c.51-6.68.64-13.39,1.21-20.06a154.63,154.63,0,0,1,3.05-19,6.08,6.08,0,0,1,.3-1c1.06.26,2.11.53,3.18.76,3.17.68,6.4.54,9.62.67,5.55.23,11.61.53,16.4-2.63a20.55,20.55,0,0,1,.48,2.57c.19,1.49.65,3,.95,4.45a73.71,73.71,0,0,1,1.83,14.37c0,1,0,2-.08,3.07-.38,5.85-1.64,11.59-2.51,17.37a301,301,0,0,0-3,42.94,11,11,0,0,1-3.17.53,33,33,0,0,1-6.28-.27c-1.16-.22-.34-5.7-.28-6.57a58.16,58.16,0,0,0-.39-9.6c-.65-6.14-1.62-12.5-.27-18.55a38,38,0,0,0,1.2-10.77,79.6,79.6,0,0,0-1-10.79.36.36,0,0,1,0-.1c.15.81-2.46,3.78-2.95,4.52-1,1.51-2,3-3,4.52a59.34,59.34,0,0,0-4.69,8.62,91.35,91.35,0,0,0-5.81,20c-.84,4.58-1.45,9.21-2,13.85-.22,2-.12,6.06-1.19,8.55l-8.39-.57c0-.2,0-.4,0-.6C456.16,157.86,455.6,143.43,461.76,131Z" style="fill:#020202"/><path d="M500.54,48c.58-1.83,1.63-3.72,1.64-5.66a5.18,5.18,0,0,0-.42-2.14,4.71,4.71,0,0,0-.38-.74,17.28,17.28,0,0,0-4.1-4.75A32.77,32.77,0,0,0,494,32.37c-.56-.35-1.14-.69-1.72-1-.33-.18-1.27-.49-1.38-.89a.59.59,0,0,1,0,.19c-.06,1.14-1.71,5.76-2,5.63l-4.37-2.16c-.62-.31-1.23-.61-1.84-1a41.67,41.67,0,0,1-4.17-2.81,20.52,20.52,0,0,1-3-2.87c-.05-.1-.06-.17,0-.2a4.14,4.14,0,0,1-.62.35c-.3.17-.61.34-.93.5-1.91,1-3.91,1.8-5.9,2.6-1.77.72-3.91,1.28-5.44,2.43A7.64,7.64,0,0,0,459.76,38c-.45,2.76.32,5.27,1.14,7.87s1.82,5.33,2.77,8c1.66,4.61,3.36,9.17,3.93,14.07.79,6.85-.67,13.54-2.42,20.12-.41,1.53,8.26,3.62,9.54,4a38.44,38.44,0,0,0,12.39,2.07c.69,0,.78-.67,1-1.19a16.12,16.12,0,0,0,.92-2.33c.12-.46.23-.92.34-1.38.06-.24.12-.47.19-.71a3.23,3.23,0,0,0,.2-.65,4.76,4.76,0,0,0,.39,1.25c.18.56.35,1.12.53,1.69l.52,1.68a5.61,5.61,0,0,0,.44,1.46c.2.31.52.25.83.22l1.13-.09c.91-.08,1.81-.17,2.72-.33,1.16-.2,3.49-.55,3.82-2a1.84,1.84,0,0,0,0-.33,7.2,7.2,0,0,0-.84-2.59c-.22-.49-.44-1-.59-1.42a32.91,32.91,0,0,1-1.07-4.72,72.71,72.71,0,0,1-.77-12.16c.1-6.06.49-12.16,2.24-17.85C499.63,51.13,500,49.53,500.54,48Z" style="fill:#923a8d"/><path d="M492.54,31.3a10.42,10.42,0,0,0-1.19-.7c-.19-.14-.7-.77-1-.63s-.37,1.24-.44,1.5c-.35,1.32-.71,2.64-1.07,4a6.08,6.08,0,0,1-2.9-1,33.94,33.94,0,0,1-7.46-5.93c-.15-.16-1.76-2.1-1.81-2.09a6,6,0,0,0-1.21.48c-.78.47-1.71.81-2.54,1.21.46.49.81,1.1,1.22,1.62,1,1.3,2.1,2.49,3.2,3.69l7.89,8.49a22.92,22.92,0,0,0,3.84-5.48c-.1.22,1.41,1.9,1.59,2.15a19.83,19.83,0,0,1,1.47,2.22A23.46,23.46,0,0,0,492.54,31.3Z" style="fill:#d1d3d4"/><path d="M492.06,19.41a1.33,1.33,0,0,0-.24-.11.62.62,0,0,0-.73.06l-.25.21c-.33.27-.49.16-.89.05-1.2-.36-2.42-.66-3.63-1a1.93,1.93,0,0,0-1-.08c-.31.09-.55.34-.86.45a1.6,1.6,0,0,1-.84,0,3.88,3.88,0,0,1-2.29-1.56,5.75,5.75,0,0,1-.78-1.3,3,3,0,0,1-.12-1c0-.11,0-.21,0-.33a19.73,19.73,0,0,0,.74-2,1.3,1.3,0,0,0,0-.91c-.29-.63-1.09-.72-1.1-1.56a1.24,1.24,0,0,1,.48-1,3.25,3.25,0,0,1,2.2-.29c1.77.37,3.5.92,5.3,1.19a6,6,0,0,0,4.18-.48c1.63-1.07,1.47-3.35,1.69-5.05.12-.94-.69-1.48-1.52-1.51-1.19,0-2.37-.11-3.56-.23-3.25-.33-6.62-.72-9.71.6-2.55,1.08-4.18,3.25-3.78,6.1a5.36,5.36,0,0,0,.92,2.33,5.59,5.59,0,0,0,.7.83,9.59,9.59,0,0,1,2.47,2.69.31.31,0,0,0,0,.1,20.17,20.17,0,0,1-.38,3.54.17.17,0,0,0,0,.07,9.28,9.28,0,0,0,0,2.47,3.45,3.45,0,0,0,.6,1.47,5.74,5.74,0,0,0,2,1.44c.69.35,1.43.67,2.11,1a9.16,9.16,0,0,1,1.95,1.78,3,3,0,0,0,1.72.93c.5.1,1.16.2,1.54-.22a1.71,1.71,0,0,0,.31-.52c.25-.59.43-1.22.72-1.81s.64-1.16.9-1.77a32.32,32.32,0,0,0,1.23-3.59,1.07,1.07,0,0,0,0-.94A.68.68,0,0,0,492.06,19.41Z" style="fill:#af6325"/><path d="M514.06,41.31a.33.33,0,0,1-.14,0l-.72,0-1-.08-2-.21a15.31,15.31,0,0,1-4.58-1.08,2.71,2.71,0,0,1-.81-.42c-.29-.37-.07-1.43,0-1.85a7.81,7.81,0,0,1,.46-2.07c2.7.13,5.36,1.08,8.06,1.08.05,0,0,0,.05.06.24.79.43,1.59.61,2.39.09.4.23.8.29,1.21a2,2,0,0,1,0,.64C514.23,41.06,514.21,41.25,514.06,41.31Z" style="fill:#d1d3d4"/><path d="M495.09,35.25A13.75,13.75,0,0,0,494,31.77a6.18,6.18,0,0,0-2.11-2.29,7.2,7.2,0,0,0-1.39-.69,6.61,6.61,0,0,0-.76-.22c-.12,0-.62-.05-.69-.17l0,0c.25.42.55.8.83,1.2a6.11,6.11,0,0,1,.68,1.29,28,28,0,0,1,1.77,7c0,.32.06.65.11,1,0,.13,0,.26.05.38,0,.35.07.67.11,1,.31,2.57.48,5.15.54,7.74.05,2.07,0,4.15,0,6.22a140.59,140.59,0,0,1-4.74,30c-.48,1.87,2.41,2.67,2.89.8a184.56,184.56,0,0,0,5-34.93c.08-2.48.06-5-.1-7.44a45.11,45.11,0,0,0-.86-6.66C495.21,35.78,495.15,35.51,495.09,35.25Z" style="fill:#754c29"/><path d="M491.14,84.9c-1.06-1.33-2.92-1.69-4.58-2-6.84-1.23-13.73-2.8-20.64-3.53-1.88-.2-4.69-1-6.18.57a3.94,3.94,0,0,0-.81,2.59c-.1,1.27-.21,2.54-.31,3.8-.18,2.53-.31,5.06-.27,7.59,0,3.12,2.39,4,5,5a60.44,60.44,0,0,0,7.35,2.23,61.27,61.27,0,0,0,8.29,1.38,33.13,33.13,0,0,0,8.14.15,6.46,6.46,0,0,0,2.78-1c1.88-1.35,1.9-4.32,2-6.37.11-1.74.16-3.49.12-5.23,0-1.51.12-3.23-.58-4.6A3.6,3.6,0,0,0,491.14,84.9Z" style="fill:#d38550"/><path d="M493.16,85c-.49-1.7-2.94-2.48-4.6-2.85a62,62,0,0,0-6.66-.92c-5.26-.54-10.52-1.15-15.76-1.87-2.43-.33-7.65-1.31-8,2.16-.21,1.89,1.68,3.46,2.94,4.65a59.14,59.14,0,0,0,5.12,4.89,9.91,9.91,0,0,0,7.55,1.83c2.51-.39,5-1.42,7.46-2,2.86-.72,5.88-1.09,8.67-2,1.3-.41,2.91-1.06,3.3-2.46A2.51,2.51,0,0,0,493.16,85Z" style="fill:#e09c6e"/><path d="M468.18,93.75a15.67,15.67,0,0,0,.09,3.35c.08.81,1,1.26,1.72,1.46,1.06.29,1.32-.5,1.39-1.31a22.34,22.34,0,0,1,.33-3.56c.16-.65,1-1.63.85-2.28s-1.78-.89-2.4-.92C468.39,90.39,468.31,92.51,468.18,93.75Z" style="fill:#a97c50"/><polygon points="489.32 18.5 489.32 28.26 493.36 29.66 493.36 19.5 502.24 17.75 498.22 16.92 489.32 18.5" style="fill:#264260"/><polygon points="493.36 29.66 502.24 27.56 502.24 17.75 493.36 19.5 493.36 29.66" style="fill:#17303f"/><path d="M520.24,27a6.7,6.7,0,0,1-2.1,3.7,4.23,4.23,0,0,1-1.28.75,3.19,3.19,0,0,1-.87.1l-.82,0a18.6,18.6,0,0,1-2.35-.28c-1.37-.24-2.72-.57-4.09-.85l-.52-.11c-1.53-.3-3-.63-4.55-1-1.66-.38-3.31-.78-5-1.2l-.09,0a6.12,6.12,0,0,1-1-.43,3.74,3.74,0,0,1-1.05-.84,4.83,4.83,0,0,1-1.06-2.06,5,5,0,0,1,.46-3.47,3.83,3.83,0,0,1,1-1.22,2.35,2.35,0,0,1,1.1-.5c1.28-.25,2.56-.53,3.84-.74l2.56-.41,2.37-.35,2.72-.38c1.66-.24,3.33-.46,5-.71a9.1,9.1,0,0,1,2-.17l.35,0c1.69.2,2.63,1.51,3.16,3a11,11,0,0,1,.59,2.53A12.61,12.61,0,0,1,520.24,27Z" style="fill:#122641"/><path d="M520.18,24.38c-.24,3.76-2.17,6.7-4.33,6.56s-3.7-3.3-3.46-7.06,2.17-6.7,4.33-6.56S520.42,20.62,520.18,24.38Z" style="fill:#041423"/><path d="M507.77,20.58a9.67,9.67,0,0,1,.91-1.75c.12-.18,1.1-1.26.62-1.42a.74.74,0,0,0-.21,0c-.87.08-1.72.29-2.58.4l-1.1.16a.91.91,0,0,0-.69.43,8.43,8.43,0,0,0-1.07,1.6c-1.47,2.83-1.64,7.32.68,9.76l0,0,1,.21c.92.19,1.83.37,2.75.54.16,0,.51.12.38-.18s-.29-.67-.45-1a3.52,3.52,0,0,1-.47-1.12,11,11,0,0,1-.54-2.65A11.33,11.33,0,0,1,507.77,20.58Z" style="fill:#264260"/><polygon points="489.32 18.5 493.36 19.5 493.36 29.66 489.32 28.26 489.32 18.5" style="fill:#1b3954"/><path d="M494.26,18.37s0,0,0,0c.05-.25-.37-.51-.55-.6a1.33,1.33,0,0,0-.83-.17,1.26,1.26,0,0,0-.66.31c-.13.11-.41.45-.27.64a.43.43,0,0,0,.13.09,2,2,0,0,0,1,.18,2.32,2.32,0,0,0,1-.3A.32.32,0,0,0,494.26,18.37Z" style="fill:#335370"/><path d="M506,24.89c-.84,2.41,1.42,5.9-.48,7.94-1.69,1.83-2.06,4.46-2.53,6.82s-1,4.65-1.53,7c-.28,1.22-.58,2.46-.95,3.69A22.19,22.19,0,0,1,497.41,57c-1.94,2.76-5,5.66-8.66,4.62a40.76,40.76,0,0,1-12.19-6c-4.47-3.07-9.36-6.09-13.2-9.94-2.39-2.4-4.83-6.09-3.21-9.54,1.69-3.61,5.8-3.44,9-2.13s5.6,4,8,6.55c2.77,2.12,5.92,3.76,8.48,6.11a26,26,0,0,1,3.22,3.58l.12.07a8.45,8.45,0,0,0,.4-1,26.25,26.25,0,0,1,2.32-5.38,36.86,36.86,0,0,1,4.08-5.78c2.29-2.71,5-5.65,4.49-9.47-.07-.61-.21-1.21-.24-1.82-.07-2.33,1.54-4.44,2.91-6.17a2.47,2.47,0,0,1,2.56-1.16,2.44,2.44,0,0,1,1.11.88C507.75,21.91,506.5,23.39,506,24.89Z" style="fill:#f2b1c0"/><path d="M500.48,50.33A22.19,22.19,0,0,1,497.41,57c-1.94,2.76-5,5.66-8.66,4.62a40.76,40.76,0,0,1-12.19-6c-4.47-3.07-9.36-6.09-13.2-9.94-2.39-2.4-4.83-6.09-3.21-9.54,1.69-3.61,5.8-3.44,9-2.13s5.6,4,8,6.55c2.77,2.12,5.92,3.76,8.48,6.11a26,26,0,0,1,3.22,3.58l.12.07a8.45,8.45,0,0,0,.4-1,26.25,26.25,0,0,1,2.32-5.38c.47.36.91,1,1.31,1.32.57.51,1.17,1,1.77,1.47A35.49,35.49,0,0,0,500.48,50.33Z" style="fill:#931f93"/><path d="M502,47.06a1,1,0,0,0-.62-.92c-.21-.12-.45-.2-.67-.31l-1-.54-2.14-1.11a30.88,30.88,0,0,1-4-2.13c-.24-.18-1.17-1.14-1.48-.57-.71,1.3-1.31,2.61-1.92,4a16.41,16.41,0,0,0,3,2.7,28.73,28.73,0,0,0,4.93,3.17,14,14,0,0,0,2.54.93c.07,0,.75-2.63.8-2.81.16-.61.33-1.21.49-1.81A2,2,0,0,0,502,47.06Z" style="fill:#d1d3d4"/><polygon points="492.46 18.86 492.15 18.91 491.96 18.86 490.96 18.6 490.64 18.52 490.92 18.47 491.1 18.52 492.08 18.77 492.46 18.86" style="fill:#3c2415"/><polygon points="500.17 17.51 499.86 17.57 499.67 17.52 498.66 17.29 498.34 17.22 498.62 17.16 498.8 17.21 499.79 17.43 500.17 17.51" style="fill:#3c2415"/><path d="M501.36,17.58l-.79-.16a.21.21,0,0,1-.1-.06.36.36,0,0,0-.35-.05,1.92,1.92,0,0,0-.26.17h-.05s-.07,0-.1,0l-.11,0-.23-.05a2.18,2.18,0,0,1-.44-.11,1,1,0,0,0-.23-.07.64.64,0,0,1,.16-.29,1.52,1.52,0,0,1,.59-.37,1.62,1.62,0,0,1,.95-.1A1.33,1.33,0,0,1,501.36,17.58Z" style="fill:#231f20"/><path d="M491,18.51a.85.85,0,0,0-.26.11,4.42,4.42,0,0,0-.53.44,2.53,2.53,0,0,0-.49.49,4,4,0,0,0-.61,1.18,6.73,6.73,0,0,0-.33,1.41c-.06.49-.05,1-.09,1.49a3.13,3.13,0,0,1-.47,1.55,1.74,1.74,0,0,0-.22.9c-.25,3.45-1.18,8.11-4.44,10a7.21,7.21,0,0,1-5.51.4,7.73,7.73,0,0,1-4.71-4.28,6.59,6.59,0,0,1-.52-1.74,3,3,0,0,1,0-1.51.88.88,0,0,1,.44-.43.38.38,0,0,0-.2-.26H473a1.8,1.8,0,0,0-.55.15c-.43.15-.85.34-1.28.52a3.11,3.11,0,0,0-.41.2c-.63.44-.4,1.41-.3,2.05a8.72,8.72,0,0,0,.58,2,10.05,10.05,0,0,0,2.39,3.38l0,0a9.84,9.84,0,0,0,5.16,2.54c5.16.77,9.32-3.27,10.8-7.88a8.75,8.75,0,0,0,.24-5.84c-.45-1.1-.08-2.82.22-3.94a3.27,3.27,0,0,1,1.93-2.53.2.2,0,0,0,.09-.05s.11,0,.12-.09-.06-.1-.09-.12a1.16,1.16,0,0,0-.4-.16l-.15,0A.69.69,0,0,0,491,18.51Z" style="fill:#231f20"/><path d="M691.82,37.81a1.6,1.6,0,0,0-1.19-.24,13.48,13.48,0,0,1-3.23-.21,16,16,0,0,0-2-.37,8.61,8.61,0,0,0-2.25.27,35.89,35.89,0,0,0-6.94,2.41c-2.3,1-4.54,2.12-6.79,3.23l-.06,0c-.26.12-.5.25-.76.39a28.56,28.56,0,0,0-8.72,6.46c-1.76-5.47-3.84-11.26-7.54-15.42-1.65-1.86-4.8-3.18-7.13-1.85-5.61,3.18-.53,12.06,1.6,15.81A71,71,0,0,0,651.87,56c1.46,1.94,3,4.76,5.5,5.49,3,.89,5.41-1.35,7.59-3.14a77.39,77.39,0,0,0,7.79-7.5c.14-.14.26-.28.4-.43,1.65-1.79,3.24-3.62,4.83-5.47a26.64,26.64,0,0,1,2.2-2.55,4.31,4.31,0,0,1,2.62-.88c1.43-.09,2.86.05,4.29,0a7.31,7.31,0,0,0,3.62-1.13,3.81,3.81,0,0,0,1-.8A1.36,1.36,0,0,0,691.82,37.81Z" style="fill:#edb2c2"/><path d="M673.14,50.38l.22.27c0,.05.08.1.07.15a.2.2,0,0,1-.08.13c-1.15,1.11-2.3,2.22-3.54,3.24-.82.67-1.64,1.31-2.42,2s-1.6,1.42-2.43,2.1c-2.18,1.79-4.54,4-7.59,3.14-2.47-.73-4-3.55-5.5-5.49a71,71,0,0,1-5.11-7.63c-2.13-3.75-7.21-12.63-1.6-15.81,2.33-1.33,5.48,0,7.13,1.85,3.7,4.16,5.78,10,7.54,15.42,0-.09.59-.65.67-.73.23-.25.48-.49.73-.73.5-.48,1-.94,1.57-1.37,1.17-.93,2.37-1.81,3.57-2.7a9,9,0,0,1,2-1.24,21.27,21.27,0,0,0,1.7,3.15c.66,1.05,1.37,2.06,2.12,3,0,.17.49.63.6.76Z" style="fill:#2e6859"/><path d="M601.89,50.44c-1.32-.25-2.65-.47-4-.7-2.87-.5-5.78-.9-8.62-1.57a2,2,0,0,1-1.72-1.39,4.76,4.76,0,0,0-.25-1c-.07-.33-.15-.67-.22-1a12,12,0,0,0-.59-2,2.87,2.87,0,0,0-.47-.88c-.2-.2-.49-.34-.71-.52a5.23,5.23,0,0,1-1.23-1.5,1.1,1.1,0,0,0-.25-.37.35.35,0,0,0-.42,0,.58.58,0,0,0-.1.21,3.84,3.84,0,0,0,0,1.35,2.94,2.94,0,0,0,.19.84,8.24,8.24,0,0,0,.54.9,1.27,1.27,0,0,1,.15.31,1.13,1.13,0,0,1,0,.41,19.4,19.4,0,0,1-.37,2.74l-.4,2.91L583,53.12a9.74,9.74,0,0,0,2.85.15,7.25,7.25,0,0,1,3.35.43c2.11.75,4.24,1.46,6.32,2.28,1.59.62,3.14,1.32,4.7,2A32.54,32.54,0,0,0,601.89,50.44Z" style="fill:#edb2c2"/><polygon points="587.18 65.31 586.26 65.47 579.76 30.94 581.86 30.58 587.18 65.31" style="fill:#3c2415"/><rect x="579.41" y="30.4" width="2.77" height="0.57" rx="0.18" transform="translate(3.11 98.07) rotate(-9.68)" style="fill:#a97c50"/><path d="M580.64,26.43l1-.16a.27.27,0,0,1,.31.22l.46,2.74a.84.84,0,0,1-.61,1l-2,.35h0a.85.85,0,0,1-.87-.75l-.47-2.74a.28.28,0,0,1,.1-.27l.07,0h0l0,.05,0,.2.05.13s0,.07,0,.12c0-.17,0-.35-.06-.52h.09l.29-.05.53-.09.27-.05s0,0,0,0,0,0,0,.06l.05.13a4.41,4.41,0,0,1,.15.55.7.7,0,0,0,.06.19,4.4,4.4,0,0,1-.12-.65,1.91,1.91,0,0,0-.06-.33Z" style="fill:#603913"/><path d="M620.88,44.56c-1.21-3.19-2.57-6.31-4-9.41-.27-.58-1-1.61-1.51-.78-1.55,2.39-3.51,4.47-5.06,6.86a59.22,59.22,0,0,1-4.82,7.08,3.07,3.07,0,0,1-2.88,1.18c-1-.15-2-.21-3-.33-1.27-.15-2.53-.45-3.81-.51a22.1,22.1,0,0,1-1.4,8c3,1.87,6.6,3.3,10.15,3.09a13.58,13.58,0,0,0,6.12-2c3.89-2.3,6.86-5.9,9.61-9.42.11-.13.21-.27.32-.41a3.83,3.83,0,0,0,.75-1.26C621.59,45.87,621.13,45.24,620.88,44.56Z" style="fill:#2e6859"/><path d="M642.74,180.3h8.92a2.07,2.07,0,0,0,.74-.63,2.17,2.17,0,0,0-.23-2,37.37,37.37,0,0,1-2.89-7.76,23.43,23.43,0,0,1-.37-2.35h-.13l-4.68.22a9.72,9.72,0,0,1-1.08,0,79.61,79.61,0,0,1-.59,10.11,3.53,3.53,0,0,0,.27,2.42Z"/><path d="M628.6,169.32a1.58,1.58,0,0,0-.8-1.26,1.21,1.21,0,0,1,0-.19,3,3,0,0,0-.52.06h-.09a1.25,1.25,0,0,0-.42.08l-.38.06a24.21,24.21,0,0,1-2.82.14,11.83,11.83,0,0,1-3-.37l-.19.19c-.33.3-.71.58-1.06.84-2.79,2.09-5.83,5.1-9.52,5.37-.84.05-2.17.35-1.34,1.45,0,0,.08.1.13.11l0,0h16.65c1,0,2.58.34,3.22-.62a5.1,5.1,0,0,0,.31-2.37A22.93,22.93,0,0,0,628.6,169.32Z"/><path d="M628,13.23a2.76,2.76,0,0,0,.66-.85c.32-.6.63-1.27,1-1.91s.75-1.11,1.11-1.68a4.38,4.38,0,0,1,2.65-1.63c2.48-.43,4.77,1.41,6.5,3.09a11,11,0,0,1-.21,1.17,31.55,31.55,0,0,1-1.25,3.74,3.32,3.32,0,0,0-.2,2.06,11.22,11.22,0,0,0,.76,1.46A2.55,2.55,0,0,1,637.76,22a5.23,5.23,0,0,1-1.87.7,25.25,25.25,0,0,1-2.61,0,7.07,7.07,0,0,1-2.65-.45,5.7,5.7,0,0,1-2.21-1.31c-1.81-1.81-1.66-4.85-.63-7.19Z" style="fill:#3c2415"/><path d="M621.34,31.71a.4.4,0,0,1,.14-.15l2.32-1.76a6.2,6.2,0,0,0,2.37-5c-2.21-.31-3-2.34-3.62-4.32a20.84,20.84,0,0,1-.77-4.08,16.48,16.48,0,0,1-.06-1.75,15.84,15.84,0,0,1,1.34-6.38,7,7,0,0,1,4.53-4,7.41,7.41,0,0,1,7.75,3.15,7.91,7.91,0,0,1,1.11,3c0,.29.22,3.53-.06,3.53l.1,0,.33.09a2.4,2.4,0,0,1,1.15,3.4,5.87,5.87,0,0,1-2.44,2.52,6.18,6.18,0,0,0-.85.45c0,.46,0,.83,0,.92a9.78,9.78,0,0,0,.53,3.39c1,2.73,3.78,4.43,5.82,6.31a18.6,18.6,0,0,1-.45,3.79,8.91,8.91,0,0,1-2.18,4.26,7.69,7.69,0,0,1-4.48,2.06,10.78,10.78,0,0,1-5.1-.44,8.41,8.41,0,0,1-1.17-.47,8,8,0,0,1-3-2.68c-1.22-1.78-1.41-3.86-3.11-5.34C621.42,32.06,621.26,31.88,621.34,31.71Z" style="fill:#edb2c2"/><path d="M636.86,4.23a11.75,11.75,0,0,0-8.15-1.41,20.79,20.79,0,0,0-4.12,1.9,3,3,0,0,0-1.17,3.64,3.66,3.66,0,0,0,1.49,1.24,3,3,0,0,0,.42,0c1.26-.25,2.34-1,3.61-1.26a6,6,0,0,1,3.79.43,4.4,4.4,0,0,1,1.39,1.11,3.1,3.1,0,0,1,.79,1.12c.1.42-.24.59-.54.78a1.91,1.91,0,0,0-.61.47,1.32,1.32,0,0,0-.11.9,17.16,17.16,0,0,0,.49,2.06l0,.32a3.13,3.13,0,0,1-.25,1,5.36,5.36,0,0,1-.94,1.19,3.93,3.93,0,0,1-2.47,1.25,1.73,1.73,0,0,1-.84-.13c-.29-.15-.49-.43-.79-.55a1.8,1.8,0,0,0-1,0c-1.24.18-2.49.32-3.73.52-.41.07-.58.15-.87-.16a2.76,2.76,0,0,0-.23-.24.63.63,0,0,0-.72-.15l-.24.07a1.07,1.07,0,0,0-.21.13,1.15,1.15,0,0,0-.14.93,33.63,33.63,0,0,0,.77,3.72c.18.64.45,1.24.66,1.87s.31,1.27.49,1.89a1.78,1.78,0,0,0,.23.55c.32.47,1,.45,1.5.42a3,3,0,0,0,1.82-.7,9,9,0,0,1,2.17-1.51c.72-.29,1.5-.51,2.23-.77a5.69,5.69,0,0,0,2.18-1.17,3.35,3.35,0,0,0,.79-1.38,9.53,9.53,0,0,0,.34-2.45s0-.05,0-.07a19.11,19.11,0,0,1,.08-3.55l.06-.09a9.23,9.23,0,0,1,2.79-2.36,5.55,5.55,0,0,0,.8-.73,5.49,5.49,0,0,0,1.22-2.2C640.58,8,639.25,5.63,636.86,4.23Z" style="fill:#3c2415"/><path d="M647.83,31.83c-1.48-.55-2.94-1.15-4.44-1.64l-.06,0c-.71-.22-1.43-.46-2.13-.71l-.92-.34c-.2-.08-.4-.15-.59-.24s-.63-.26-.94-.4l-.42.22c-3.18,1.6-6.68,3.81-10.4,3.54a5.13,5.13,0,0,1-2.54-.82,4.06,4.06,0,0,1-1-.84c-.11-.13-.46-1-.54-1a.43.43,0,0,0-.37.05c-.93.54-1.88,1-2.82,1.54l-.09.05-3.67,2.1-1.06.61a2.64,2.64,0,0,0-.86.65,1.92,1.92,0,0,0-.18.31,3.49,3.49,0,0,0-.24.91c-.13.79-.23,1.57-.29,2.36-.55,5.75.41,11.53.92,17.27,0,.57.09,1.13.12,1.7s.07,1.22.09,1.84c0,1.55,0,3.1-.1,4.65a.57.57,0,0,1,.08.24c.24,3.1.08,6.22.24,9.33.14.84.3,1.68.48,2.51h29.52c0-.22.09-.44.12-.67.51-3.43.6-6.89,1.32-10.29l0-.07c-.16-2.34-.4-4.68-.48-7,0-.77,0-1.54,0-2.31a56.06,56.06,0,0,1,.66-8.49c.54-3.46,1.48-6.86,1.78-10.36a15.26,15.26,0,0,1,.64-4C649.06,32.27,648.44,32.05,647.83,31.83Z" style="fill:#2e6859"/><path d="M650.16,138.9c-.52-5.05-1-10.12-1.2-15.19s.13-9.92.43-14.9a69.44,69.44,0,0,0,.21-11.89c-.24-2.11-.67-4.2-.94-6.31-.18-1.35-.39-2.7-.61-4a18.66,18.66,0,0,0-.74-3.7c-.09-.33-.24-.71-.35-1.1-3.37.4-6.79.55-10.18.73-6.73.36-13.49.8-20.22.15A13.41,13.41,0,0,1,616,84a24.87,24.87,0,0,0-1.59,9.2c0,3.35,0,6.7.08,10.05.18,6.91.6,13.8,1.1,20.69.28,3.75.65,7.5.87,11.25,0,.34.06.68.08,1,.47,5.89.94,11.78,1.36,17.68.15,2.08-.11,15.36,1.68,15.6a38.43,38.43,0,0,0,7.95.29,1.64,1.64,0,0,0,1.11-.56c1.91.15,2-1.47,1.84-2.93-.71-6.93.11-13.83.2-20.77.07-5-1.16-9.72-1.72-14.66-.79-7,.47-14,.51-21,.09-1.32.17-2.64.25-4,.59,2.4.83,5,1.31,7.36,1.28,6.38,2.59,12.82,4.17,19.14,2.75,12.61,3,25.57,5.34,38.27a3.1,3.1,0,0,0,.1.36c0,.44.08.89.11,1.34,0,.26,8.53.08,9.47.08,1.94,0,2.08-7,1.67-14.59C651.44,149.63,650.34,140.61,650.16,138.9Z" style="fill:#414042"/><path d="M651.17,93c-.12-1.08-.24-2.16-.37-3.23-.47-4.16-.8-8.37-1.48-12.49l-1-6.16c-.28-1.7-.2-4.5-1-6a40.31,40.31,0,0,1-2.52-6,34.53,34.53,0,0,1-2.21-7.07c-.8-4.1-2.14-9.26-.42-13.28a39.91,39.91,0,0,1,1.23-8.58l-.06,0c-.71-.22-1.43-.46-2.13-.71l-.92-.34c-.2-.08-.4-.15-.59-.24a5.07,5.07,0,0,0-.27.75c0,.21-.1.41-.15.58-.18.61-.33,1.23-.48,1.85-.55,2.32-1,4.65-1.52,7a8.24,8.24,0,0,1-.34,1.1,9.61,9.61,0,0,0-.35,1l-.17,0-.74,0L634.31,41c-1.41-.07-2.84-.07-4.26,0-2.67.09-5.32.34-8,.68a74.53,74.53,0,0,0-1.36-10.53l-.09.05-3.67,2.1a19.72,19.72,0,0,1,.25,3.52V37c0,.23,0,.45,0,.68l0,2a34.54,34.54,0,0,1-.66,6,47.53,47.53,0,0,0-.37,5.73c-.11,3.34-.27,6.69-.51,10-.25,3.53-1.49,7.11-1.84,10.68s-.32,7.17-.36,10.77c-.13,11.56-.15,23-1.24,34.56a1.27,1.27,0,0,0,1.46,1.42,1.34,1.34,0,0,0,.71.37c12.87,2.64,25.74,2.68,38.18-1.93a1.54,1.54,0,0,0,.48-.29,1.17,1.17,0,0,0,.69-1.3Q652.51,104.33,651.17,93Z" style="fill:#fcb316"/><path d="M621.47,44.43h-3.79a1.18,1.18,0,0,1-1.18-1.18V40.52a1.17,1.17,0,0,1,1.18-1.17h3.79a1.17,1.17,0,0,1,1.17,1.17v2.73A1.18,1.18,0,0,1,621.47,44.43Zm-3.79-4.35a.44.44,0,0,0-.44.44v2.73a.44.44,0,0,0,.44.44h3.79a.44.44,0,0,0,.43-.44V40.52a.44.44,0,0,0-.43-.44Z" style="fill:#8b5e3c"/><path d="M641.28,44.43h-3.79a1.17,1.17,0,0,1-1.17-1.18V40.52a1.17,1.17,0,0,1,1.17-1.17h3.79a1.17,1.17,0,0,1,1.17,1.17v2.73A1.17,1.17,0,0,1,641.28,44.43Zm-3.79-4.35a.44.44,0,0,0-.44.44v2.73a.44.44,0,0,0,.44.44h3.79a.44.44,0,0,0,.44-.44V40.52a.44.44,0,0,0-.44-.44Z" style="fill:#8b5e3c"/><path d="M649.74,93.44A8.14,8.14,0,0,1,646,95.53a24,24,0,0,1-15.54-.79c-.28-6.68-.35-13.43-.62-20.12a54.12,54.12,0,0,0,17.5-.61C648,80.49,648.75,87,649.74,93.44Z" style="fill:#e29b3d"/><path d="M619.16,67a1.82,1.82,0,0,0,.44-1,5.24,5.24,0,0,0,0-1,1.87,1.87,0,0,1,.07-.91,1.77,1.77,0,0,0,.23-.63s0-.22-.06-.2-.15.18-.22.27a1,1,0,0,1-.32.24c-.39.21-.84.31-1.24.53a1.87,1.87,0,0,0-1,1.06,1.94,1.94,0,0,0,.13,1.4,2.13,2.13,0,0,0,.16.25c.08.11.15.2.29.21h.24a3.37,3.37,0,0,1,.55,0c.16,0,.32.06.46,0A.92.92,0,0,0,619.16,67Z" style="fill:#231f20"/><polygon points="615.8 93.25 615.12 93.18 617.38 67.26 618.95 67.43 615.8 93.25" style="fill:#754c29"/><rect x="617.15" y="67.08" width="2.05" height="0.42" rx="0.18" transform="translate(10.36 -63.95) rotate(5.97)" style="fill:#a97c50"/><polygon points="615.48 93.22 614.81 93.06 620.33 67.64 621.87 68 615.48 93.22" style="fill:#603913"/><rect x="620.09" y="67.55" width="2.05" height="0.42" rx="0.18" transform="translate(32.04 -140.49) rotate(13.24)" style="fill:#a97c50"/><path d="M620.73,64.46a.21.21,0,0,0-.25.15l-.47,2a.62.62,0,0,0,.41.77l1.49.36a.62.62,0,0,0,.7-.52l.47-2a.2.2,0,0,0-.14-.24Z" style="fill:#231f20"/><path d="M613,74.36c.18,6.74-.08,13.53-.33,20.27a13.44,13.44,0,0,0,7.62.09c.21-6.6.55-13.36.86-20A17.3,17.3,0,0,1,613,74.36Z" style="fill:#e29b3d"/><path d="M585.48,47.71a4.4,4.4,0,0,0-1.27-1.54,4.53,4.53,0,0,0-2.53-1.33c-.38,0-.81-.1-1.07.27a2.59,2.59,0,0,0-.22,1.38c0,.68-.43,1.13-.35,1.84a2.43,2.43,0,0,1,0,1,3.05,3.05,0,0,0-.14.8c0,.69-.21,1.28.31,1.8a1.52,1.52,0,0,0,.92.84,9.65,9.65,0,0,0,2.54.63,3,3,0,0,0,1.08,0c.46-.14.54-.5.61-.93a23,23,0,0,0,.28-2.48A5.24,5.24,0,0,0,585.48,47.71Z" style="fill:#edbecc"/><path d="M701.59,32.39c-2.24-3.72-9.41-2.77-13.14-1.87a19.42,19.42,0,0,0-5.66,2.1,4,4,0,0,0-1.56,1.53c-.24.53,0,1,.72,1,1.42,0,2.34-2.25,3.86-1.59.76.34-.17,1.29-.52,1.6a19.44,19.44,0,0,0-2.87,2.35,2.84,2.84,0,0,0-.66,1.73c0,1.94,2.52,2.79,4.5,2.86a21.42,21.42,0,0,0,12.43-3.4C700.73,37.31,702.92,34.62,701.59,32.39ZM688.3,38.07a1.53,1.53,0,0,1-1.48,1.53,1.51,1.51,0,0,1-1.52-1.47v0a1.5,1.5,0,0,1,3-.05Z" style="fill:#f3ddc6"/><path d="M692.39,39.91a3.19,3.19,0,0,0,1.61-.32,1.2,1.2,0,0,0,.53-.49.64.64,0,0,0,0-.69c-.26-.31-.76-.19-1.16-.26s-.67-.29-1-.35c-.58-.09-1.87.4-2.07,1C689.91,39.83,691.78,39.88,692.39,39.91Z" style="fill:#ffde17"/><path d="M696.28,38.13a3,3,0,0,0,1.61-.31,1.26,1.26,0,0,0,.53-.49.64.64,0,0,0,0-.69c-.27-.31-.76-.19-1.16-.26s-.67-.29-1-.35a2.33,2.33,0,0,0-2.06,1C693.8,38.05,695.68,38.1,696.28,38.13Z" style="fill:#be1e2d"/><path d="M698.76,35.41a2.45,2.45,0,0,0,1.28-.25,1,1,0,0,0,.42-.38.5.5,0,0,0,0-.55c-.21-.24-.6-.15-.92-.2s-.53-.23-.81-.28c-.45-.07-1.47.31-1.63.81C696.8,35.35,698.28,35.39,698.76,35.41Z" style="fill:#009444"/><path d="M697.47,32.49c-.24-.14-.56-.2-.7-.44a.65.65,0,0,1,.28-.82,1.82,1.82,0,0,1,.93-.17,1.12,1.12,0,0,1,.48.07,2.61,2.61,0,0,1,.28.17c.22.14.47.21.7.34a.74.74,0,0,1,.42.61c0,.57-.7.58-1.11.56A2.49,2.49,0,0,1,697.47,32.49Z" style="fill:#27aae1"/><path d="M692.64,30.93a.51.51,0,0,0-.2.59c.08.16.28.21.46.25l.74.17a1,1,0,0,0,.34,0,1.28,1.28,0,0,0,.34-.06,1.73,1.73,0,0,0,.8-.43c.6-.69-.23-1.07-.82-1.08A2.66,2.66,0,0,0,692.64,30.93Z" style="fill:#231f20"/><path d="M689,31.27a1.72,1.72,0,0,0-.51.33.46.46,0,0,0-.14.2.4.4,0,0,0,.22.43,1.87,1.87,0,0,0,1.24.14,2.7,2.7,0,0,0,1.12-.29.8.8,0,0,0,.27-.25c.29-.44-.16-1-.62-1a2.8,2.8,0,0,0-.63.17A7.31,7.31,0,0,0,689,31.27Z" style="fill:#fff"/><path d="M682.22,37.88a2.1,2.1,0,0,1,.21-.39,3,3,0,0,1,.62-.67,4.5,4.5,0,0,1,1.82-.79,1.17,1.17,0,0,0,.76-.59,1,1,0,0,0,.1-1,.1.1,0,0,0-.13,0c-1,.44-2.14.56-3.19.91-.54.18-.86.7-1.22,1.11A10,10,0,0,0,680,37.91a1.74,1.74,0,0,0-.24.58A17.27,17.27,0,0,1,682.22,37.88Z" style="fill:#edb2c2"/><path d="M641.85,11.18c-.42-2.27-2.3-4.59-3.85-6.22-.2-.2-.4-.41-.61-.61l0,0c.39-.41.89-.67,1.31-1a.76.76,0,0,0,.28-.43c0-.29-.27-.52-.56-.53a1.26,1.26,0,0,0-.76.34,7.38,7.38,0,0,0-1,1.06C633.58,1,629.4-.91,625.26.45c-2.09.69-3.79,2.59-3.21,4.9.55,2.14,2.52,3.42,4.36,4.4a39.37,39.37,0,0,0,6.89,2.65c2.07.64,4.37,1.49,6.58,1.24C641.68,13.44,642.08,12.41,641.85,11.18Z" style="fill:#f7b658"/><path d="M383,45.88a8.24,8.24,0,0,0-.64-.82c-1.93-2.24-5.26-3.28-5.67-6.51-.2-1.51.41-3,.65-4.51a10.93,10.93,0,0,0-1.64-7.25c-2.09-3.35-6.77-2.88-9.05-5.93a8.14,8.14,0,0,1-1.33-6c.4-2.86,1.67-6.13.06-8.84a10.4,10.4,0,0,0-3-3.22,3.63,3.63,0,0,0-1.2-1A9.07,9.07,0,0,0,356.29,1a9.6,9.6,0,0,0-4.93,1.77,9.81,9.81,0,0,0-3.91,8.6,16,16,0,0,0,.77,4.51,10.65,10.65,0,0,0,.61,1.49c-.62,1.41-2.42,2.15-4.09,2.4s-3.63.21-5.25.93a5,5,0,0,0-2.7,6.26c.85,2.08,3.18,3.69,3.1,5.9-.05,1.63-1.44,3-2.94,3.79-2.71,1.52-6.16,2-8.47,4.08a12.4,12.4,0,0,0-3.77,8.86c0,4.81,2.93,9.1,7.14,11.78,11.76,7.42,29.66,4.9,42,.07,4.48-1.75,9.15-4.42,10.43-8.76A8.14,8.14,0,0,0,383,45.88ZM362.35,19.46a8.22,8.22,0,0,1-1,1.37,28.16,28.16,0,0,0,.25,6.35c-2.95.09-5.92.07-8.88-.08a14.56,14.56,0,0,0,0-6.6,7.23,7.23,0,0,1-.73-1,16.46,16.46,0,0,1-1.31-2.85,13.9,13.9,0,0,1,4.69-5.34c2.13-1.57,4.45-2.85,6.43-4.6a6.2,6.2,0,0,0,.76-.78,4.93,4.93,0,0,0,.21,1.75c.55,1.83,1.34,3.66,1.77,5.51A17.58,17.58,0,0,1,362.35,19.46Z" style="fill:#ffaa64"/><path d="M361.81,17.69a24,24,0,0,1-2.91.53c-1.2.16-2.41.23-3.62.35q-.93.08-1.86.21a6.58,6.58,0,0,0-1.24.2,13.76,13.76,0,0,1,.55,8.12c3,.15,5.92.17,8.88.08A26.51,26.51,0,0,1,361.81,17.69Z" style="fill:#e5a5b9"/><path d="M364.51,13.15a17.59,17.59,0,0,1-2.17,6.31,8.16,8.16,0,0,1-1,1.37,6.57,6.57,0,0,1-4.21,2.35,6.68,6.68,0,0,1-4.46-2.68,7.23,7.23,0,0,1-.73-1,16.16,16.16,0,0,1-1.31-2.86,13.88,13.88,0,0,1,4.69-5.33c2.12-1.57,4.45-2.85,6.43-4.6a7,7,0,0,0,.76-.78,4.93,4.93,0,0,0,.21,1.75C363.29,9.47,364.07,11.3,364.51,13.15Z" style="fill:#edb2c2"/><path d="M352.83,178.78a.71.71,0,0,1-.27.41.85.85,0,0,1-.37.12c-1.76.05-3.51,0-5.27-.06-1.3,0-1-1.49-.72-2.34.23-.6.44-1.2.64-1.8,0,0,0,0,0,0a33.89,33.89,0,0,0,1.3-4.94c.11-.69.19-1.37.25-2.06.12-1.58.13-3.15.14-4.74l3.93.3c-.08,1.55-.11,3.09-.1,4.64q0,3.51.27,7c.06.94.13,1.88.22,2.83A1.88,1.88,0,0,1,352.83,178.78Z" style="fill:#eea0ad"/><path d="M352.83,178.78a.71.71,0,0,1-.27.41.85.85,0,0,1-.37.12c-1.76.05-3.51,0-5.27-.06-1.3,0-1-1.49-.72-2.34.23-.6.44-1.2.64-1.8.26.11.6.41.78.5a5,5,0,0,0,2.4.52,4.9,4.9,0,0,0,2.62-.89c.06.94.13,1.88.22,2.83A1.88,1.88,0,0,1,352.83,178.78Z" style="fill:#3c2415"/><path d="M362.61,178.78a.71.71,0,0,0,.27.41.85.85,0,0,0,.37.12c1.76.05,3.51,0,5.27-.06,1.3,0,1-1.49.72-2.34-.23-.6-.44-1.2-.64-1.8,0,0,0,0,0,0a33.89,33.89,0,0,1-1.3-4.94c-.11-.69-.19-1.37-.25-2.06-.12-1.58-.13-3.15-.14-4.74l-3.93.3c.09,1.55.11,3.09.1,4.64,0,2.34-.11,4.66-.27,7-.06.94-.13,1.88-.21,2.83A1.7,1.7,0,0,0,362.61,178.78Z" style="fill:#eea0ad"/><path d="M362.61,178.78a.71.71,0,0,0,.27.41.85.85,0,0,0,.37.12c1.76.05,3.51,0,5.27-.06,1.3,0,1-1.49.72-2.34-.23-.6-.44-1.2-.64-1.8-.26.11-.6.41-.78.5a4.89,4.89,0,0,1-5-.37c-.06.94-.13,1.88-.21,2.83A1.7,1.7,0,0,0,362.61,178.78Z" style="fill:#3c2415"/><path d="M367.71,68.59c-.44-.88-.82-.88-1.75-.52a4.82,4.82,0,0,1-1.14.24,64.22,64.22,0,0,1-14.49,0,4.82,4.82,0,0,1-1.14-.24c-.93-.36-1.3-.36-1.75.52a60.4,60.4,0,0,0-6.79,29.33A150.38,150.38,0,0,0,343,116.1c.49,3,.94,6,1.23,9,.49,5.12-.44,10.23-.52,15.35a94.28,94.28,0,0,0,.92,13.82c.44,3.4,1,6.8,1.45,10.2a9.7,9.7,0,0,0,.39,2.1h7.21q.22-7.83.55-15.67a119.37,119.37,0,0,1,.78-17.16c0-.25,0-.51,0-.75s0-.51,0-.77c0-.51.05-1,.08-1.53.06-1,.11-2,.17-3.06s.11-2,.17-3.06l.18-3.06c.06-1,.12-2,.19-3.06s.12-2,.19-3.06.13-2,.2-3.06.13-2,.2-3l.21-3.06c.07-1,.15-2,.22-3.06s.15-2,.22-3.06l.24-3c0-.45.07-.89.1-1.33,0-.22,0-.44.05-.66l0-.33a.59.59,0,0,1,0-.19c0-.14.08,0,.08.11l.06.76.12,1.53c.08,1,.16,2,.23,3s.15,2,.23,3.06.14,2,.22,3.06l.21,3.06c.07,1,.13,2,.2,3.06s.14,2,.2,3,.13,2,.19,3.06.13,2,.19,3.06l.18,3.06c.06,1,.11,2,.17,3.06s.11,2,.17,3.06.1,2,.16,3.07v.09a119.36,119.36,0,0,1,.79,17.16c.2,5.22.39,10.45.54,15.67h7.21a9.15,9.15,0,0,0,.4-2.1c.48-3.4,1-6.8,1.44-10.2a95.7,95.7,0,0,0,.93-13.82c-.08-5.12-1-10.23-.52-15.35.28-3,.74-6,1.23-9a150.38,150.38,0,0,0,2.34-18.18A60.52,60.52,0,0,0,367.71,68.59Z" style="fill:#00bfc9"/><path d="M350.17,39.37l0,0,0,0A.17.17,0,0,1,350.17,39.37Z" style="fill:#fff"/><path d="M373.29,74.6c-.25-2.68-2-5.66-2.71-8.25a51.42,51.42,0,0,1-1.8-9.33A17.68,17.68,0,0,1,371,46.31,11,11,0,0,0,372,39.2a25.28,25.28,0,0,0-1.61-4.29,11.73,11.73,0,0,0-.86-2.59c-.13-.18-.71-.33-.91-.44l-.87-.45a13.88,13.88,0,0,1-4.08-2.66,5.06,5.06,0,0,1-1.17-4c.09-.87-.93-1.11-2.05-1.13-.94,0-1.9,0-2.86,0h-.1c-1,0-1.92,0-2.87,0-1.12,0-2.13.26-2,1.13a7.15,7.15,0,0,1-.22,2.35,4.76,4.76,0,0,1-1,1.77,9.83,9.83,0,0,1-2.74,1.86,40.08,40.08,0,0,0-3.56,1.87l-.09.08a.25.25,0,0,0,0,.17,7.68,7.68,0,0,1-.71,3.23,14.42,14.42,0,0,0-1.11,3.11,11,11,0,0,0,1.08,7.11A17.61,17.61,0,0,1,346.37,57a52.27,52.27,0,0,1-1.79,9.33c-.73,2.59-2.47,5.57-2.71,8.25a2.45,2.45,0,0,0,0,.27c-.11,2.06,4.74,2.87,6.39,3.29a44.29,44.29,0,0,0,8.51,1.28l.78,0h.1c.26,0,.52,0,.77,0a44.39,44.39,0,0,0,8.52-1.28c1.65-.42,6.5-1.23,6.39-3.29C373.3,74.78,373.3,74.69,373.29,74.6Z" style="fill:#f1f2f2"/><path d="M378.7,57.19c-1.35,2.47-4.11,3.47-6.83,3.39a14.7,14.7,0,0,1-2.71-.36c-1.32-.29-2.63-.71-3.92-1.1-1.1-.34-2.2-.65-3.3-.95l-.07,0c-3.34-.9-6.7-1.63-10.12-2.29-1.7-.32-3.83-.58-5.06-2-.11-.12-.21-.25-.32-.38-.24-.33-.46-.68-.73-1a3.84,3.84,0,0,0-2.21-1.2c-.9-.25-1.85-.4-2.74-.66-.15-.05-.31-.1-.37-.24-.16-.31.27-.57.6-.65a19.86,19.86,0,0,1,4.51-.69,6.9,6.9,0,0,1,3.33.76c1.2.65,2.15,1.73,3.42,2.27a11.39,11.39,0,0,0,4.2.44,63.05,63.05,0,0,0,6.85-.57h0l1.78-.19a35.75,35.75,0,0,1,3.88-.16h.29a19.82,19.82,0,0,1,2.18.18c-.12-.24-.23-.49-.34-.75-.39-.92-.78-1.82-1.14-2.74a21.52,21.52,0,0,1,1-2.07A11,11,0,0,0,372,39.15a25.78,25.78,0,0,0-1.6-4.29,21.7,21.7,0,0,0-.73-2.4,7.36,7.36,0,0,1,3.49,3,32.42,32.42,0,0,1,2.08,5.2c.66,1.88,1.26,3.77,1.85,5.67.81,2.62,2.24,5.91,2,8.8A2.74,2.74,0,0,1,378.7,57.19Z" style="fill:#edb2c2"/><path d="M378.69,57.19c-1.12,2.37-4.27,3.46-6.82,3.39a14.7,14.7,0,0,1-2.71-.36c-1.32-.29-2.63-.71-3.92-1.1-1.1-.34-2.2-.65-3.3-.95l-.07,0a13.15,13.15,0,0,0,1.38-4.88c0-.43,0-.86,0-1.28l1.78-.19a35.75,35.75,0,0,1,3.88-.16h.29a19.82,19.82,0,0,1,2.18.18c-.12-.24-.23-.49-.34-.75-.39-.92-.78-1.82-1.14-2.74a21.52,21.52,0,0,1,1-2.07A11,11,0,0,0,372,39.15a25.78,25.78,0,0,0-1.6-4.29,21.7,21.7,0,0,0-.73-2.4,7.36,7.36,0,0,1,3.49,3,32.42,32.42,0,0,1,2.08,5.2c.66,1.88,1.26,3.77,1.85,5.67.91,3,2.12,5.84,2,9A4.42,4.42,0,0,1,378.69,57.19Z" style="fill:#e6e7e8"/><path d="M367.94,45.85a6.55,6.55,0,0,0,1-1.57,11.9,11.9,0,0,0,.7-1.83c.09-.28.17-.58.25-.87a6.58,6.58,0,0,0,.45-1.08.75.75,0,0,0-.51-.47,1,1,0,0,0-.87.32,12.4,12.4,0,0,0-1.64,2.48,18.89,18.89,0,0,1-1.42,1.55,4.16,4.16,0,0,0-.85,1.54c-.24.87.52,1.15,1.29.93A3.48,3.48,0,0,0,367.94,45.85Z" style="fill:#e5a5b9"/><path d="M376.86,30.46h0a1.57,1.57,0,0,0-2.29.49l-1.71,3,1.84,1.35,2.37-2.53A1.56,1.56,0,0,0,376.86,30.46Z"/><path d="M375.11,35l-3.59,4.39-5.59,6.83a.51.51,0,0,1-.69.09.5.5,0,0,1-.12-.68L370,38.21l3.12-4.73a.5.5,0,0,1,.72-.13l1.22.9A.49.49,0,0,1,375.11,35Z" style="fill:#c49a6c"/><path d="M375.11,35l-3.59,4.39L370,38.21l3.12-4.73a.5.5,0,0,1,.72-.13l1.22.9A.49.49,0,0,1,375.11,35Z" style="fill:#3c2415"/><path d="M370.68,40.84a1.39,1.39,0,0,0-.21-.27c-.36-.42-.71-1-1.29-1.19-.28-.07-.61-.07-.9-.12s-.73-.11-1.1-.15a.88.88,0,0,0-.28,0,.93.93,0,0,0-.2.1c-.89.44-1.67,1.08-2.53,1.58-.24.14-.55.28-.6.59a10.1,10.1,0,0,1-.72,2.65,4.62,4.62,0,0,1-1.71,1.8,18,18,0,0,1-3.06,1.39c-.91.35-1.84.65-2.78.93-1.84.54-3.72,1-5.57,1.52l-.86.26a28.34,28.34,0,0,0-2.85,1l-.23.09-.25.12-.61.3a2.73,2.73,0,0,1-.4.23c-.12,0-.17,0-.27-.09a2.14,2.14,0,0,0-.27-.09l-.58-.17c-.9-.25-1.85-.4-2.74-.66-.15-.05-.31-.1-.37-.24-.16-.31.27-.57.6-.65a19.86,19.86,0,0,1,4.51-.69.17.17,0,0,0,0-.12l-.12-.33-.06-.15c-.1-.25-.2-.49-.31-.73s-.23-.5-.35-.74l-.37-.72a11,11,0,0,1-1.08-7.11,24.93,24.93,0,0,1,1.6-4.29c.06-.17.11-.34.16-.51a7.61,7.61,0,0,0,.09-.82,7.42,7.42,0,0,1,.06-.94c-2-.31-3.87,2.15-4.51,3.8-2.28,5.81-3.71,12.54-2.95,18.79a8.45,8.45,0,0,0,1.06,3.49c1.3,2.1,3.08,1.92,5.19,1.35a21.5,21.5,0,0,0,2.27-.74A35.72,35.72,0,0,0,352.63,56c1.36-.83,2.69-1.74,4-2.66l1.22-.87c1.45-1,2.91-2.06,4.4-3,.44-.29.88-.58,1.33-.86a14.52,14.52,0,0,0,2.6-1.8A5.74,5.74,0,0,0,367.58,44c.17-.66.59-1.27,1.36-1.24.52,0,.68.49.8.91s.47.76.72.17a2.29,2.29,0,0,0,.11-.58c.05-.41.26-.78.3-1.17A2.45,2.45,0,0,0,370.68,40.84Z" style="fill:#efbdcc"/><path d="M356.64,53.38c-1.32.92-2.65,1.83-4,2.66a35.72,35.72,0,0,1-6.54,3.28,21.5,21.5,0,0,1-2.27.74c-2.11.57-3.89.75-5.19-1.35a8.45,8.45,0,0,1-1.06-3.49c-.76-6.25.67-13,2.95-18.79.64-1.65,2.53-4.11,4.51-3.8a7.42,7.42,0,0,0-.06.94,7.61,7.61,0,0,1-.09.82c-.05.17-.1.34-.16.51a24.93,24.93,0,0,0-1.6,4.29,11,11,0,0,0,1.08,7.11l.37.72c.12.24.24.49.35.74s.21.48.31.73l.06.15.12.33a.17.17,0,0,1,0,.12,19.86,19.86,0,0,0-4.51.69c-.33.08-.76.34-.6.65.06.14.22.19.37.24.89.26,1.84.41,2.74.66a6.53,6.53,0,0,1,.76.2c.08,0,.23.17.31.17s.34-.19.45-.25l.61-.3.48-.21a28.34,28.34,0,0,1,2.85-1l.86-.26c1.85-.54,3.73-1,5.57-1.52.33,1.51.68,3,1.1,4.41C356.47,52.84,356.56,53.11,356.64,53.38Z" style="fill:#e6e7e8"/></svg>