<?xml version="1.0" encoding="UTF-8"?>
<svg width="169" height="196" viewBox="0 0 169 196" xmlns="http://www.w3.org/2000/svg">
 <path d="m.3 146 84 48.5 84-48.5v-97l-84-48.5-84 48.5z" fill="#469ea2"/>
 <path d="m75.7 12.1-61 35.2c0.099986 1.0977 0.099986 2.2023 0 3.3l60.9 35.2c5.1405-3.8006 12.16-3.8006 17.3 0l60.9-35.2c-0.099986-1.0977-0.099986-2.2023 0-3.3l-60.8-35.2c-5.1405 3.8006-12.16 3.8006-17.3 0zm84 48.2-61 35.6c0.67811 6.3335-2.7916 12.385-8.6 15l0.1 70c0.9862 0.43498 1.9246 0.97119 2.8 1.6l60.9-35.2c-0.67811-6.3335 2.7916-12.385 8.6-15v-70.4c-0.97488-0.45709-1.9113-0.99217-2.8-1.6zm-150.8 0.4c-0.87544 0.62881-1.8138 1.165-2.8 1.6v70.4c5.8882 2.5258 9.3951 8.6424 8.6 15l60.9 35.2c0.87544-0.62881 1.8138-1.165 2.8-1.6v-70.4c-5.8882-2.5258-9.3951-8.6424-8.6-15z" fill="#6acad1"/>
 <path d="m84.3 11 75.1 43.4v86.7l-75.1 43.4-75.1-43.4v-86.8zm0-10.3-84 48.5v97l84 48.5 84-48.5v-97z" fill="#469ea2"/>
 <path d="m84.9 114h-1.2c-4.1672 0.010607-8.1667-1.6401-11.113-4.5867-2.9466-2.9466-4.5973-6.9462-4.5867-11.113v-1.2c-0.010606-4.1672 1.6401-8.1667 4.5867-11.113s6.9462-4.5973 11.113-4.5867h1.2c4.1672-0.010606 8.1667 1.6401 11.113 4.5867s4.5973 6.9462 4.5867 11.113v1.2c0.010607 4.1672-1.6401 8.1667-4.5867 11.113-2.9466 2.9466-6.9462 4.5973-11.113 4.5867zm0 64.5h-1.2c-5.6801-0.017032-10.923 3.0448-13.7 8.0001l14.3 8.2 14.3-8.2c-2.7765-4.9552-8.0199-8.0171-13.7-8.0001zm83.5-48.5h-0.6c-4.1672-0.010607-8.1667 1.6401-11.113 4.5867-2.9466 2.9466-4.5973 6.9462-4.5867 11.113v1.2c-0.014381 2.6653 0.67556 5.287 2 7.6l14.3-8.3zm-14.3-89c-1.3127 2.3177-2.0018 4.9363-2.0001 7.6v1.2c-0.010607 4.1672 1.6401 8.1667 4.5867 11.113 2.9466 2.9466 6.9462 4.5973 11.113 4.5867h0.6v-16.3zm-69.8-40.3-14.3 8.2c2.7631 4.9815 8.0035 8.0799 13.7 8.1001h1.2c5.6801 0.017031 10.923-3.0448 13.7-8.0001zm-69.7 40.2-14.3 8.3v16.3h0.6c4.1672 0.010606 8.1667-1.6401 11.113-4.5867 2.9466-2.9466 4.5973-6.9462 4.5867-11.113v-1.2c-0.033934-2.6907-0.72024-5.3329-2.0001-7.7zm-13.7 89.1h-0.6v16.2l14.3 8.3c1.3127-2.3177 2.0018-4.9363 2.0001-7.6v-1.2c0.010606-4.1672-1.6401-8.1667-4.5867-11.113-2.9466-2.9466-6.9462-4.5973-11.113-4.5867z" fill="#469ea2"/>
 <g fill="#083b54">
  <path d="m84.3 195.2v-97.1l-84-48.5v97.1z" fill-opacity=".15"/>
  <path d="m168.4 145.8v-97l-84 48.5v97.1z" fill-opacity=".05"/>
 </g>
</svg>
