<svg xmlns="http://www.w3.org/2000/svg" viewBox="0 0 780.6 235.3"><clipPath id="a"><path d="M-546.4-295.4h6494.7v3613.8H-546.4z"/></clipPath><path fill="#191919" d="M1.2 63H19v105H1.2zm35.6 0h36.3c7.9 0 14.5.9 19.6 2.6s9.2 4.1 12.1 7.1c2.9 2.8 5 6.3 6.2 10.2s1.8 8 1.8 12.1c0 4.4-.6 8.7-1.8 12.9-1.2 4-3.3 7.7-6.2 10.8-3.4 3.3-7.6 5.8-12.1 7.3-5.1 1.8-11.5 2.7-19.3 2.7H54.3V168H36.8zM73 114c3.7.1 7.5-.3 11.1-1.3 2.5-.7 4.9-1.9 6.8-3.7 1.6-1.6 2.9-3.6 3.5-5.8.7-2.5 1-5 1-7.6.1-2.6-.3-5.2-1-7.7-.7-2.1-1.9-4-3.6-5.5-2-1.6-4.4-2.8-6.9-3.4-3.6-.9-7.2-1.3-10.9-1.2H54.5V114zm119.9-51v15.3h-49.2V108H190v15.4h-46.3V168h-17.8V63zm26.2 72.9c.8 6.9 3.3 11.9 7.4 15s10.4 4.7 18.6 4.7c3.4.1 6.8-.3 10.1-1.3 2.4-.8 4.6-1.9 6.6-3.5 1.6-1.4 2.8-3.2 3.5-5.2.7-2.1 1-4.2 1-6.4 0-1.7-.2-3.3-.7-4.9-.6-1.7-1.4-3.2-2.6-4.5-1.5-1.5-3.2-2.7-5.1-3.6-2.6-1.1-5.4-1.9-8.2-2.4l-13.4-2.5c-4.8-.8-9.5-2.1-14.1-3.7-3.8-1.3-7.3-3.3-10.4-5.8-2.8-2.4-5-5.4-6.3-8.8-1.5-4.1-2.2-8.4-2.1-12.7-.3-8.9 3.9-17.4 11.3-22.4 3.8-2.7 8.1-4.6 12.6-5.6 5.2-1.2 10.5-1.8 15.8-1.8 7.2 0 13.3.8 18.2 2.5 4.4 1.4 8.4 3.6 11.9 6.5 2.9 2.6 5.3 5.8 6.9 9.3s2.6 7.2 3.2 11l-16.8 2.6c-1.4-5.9-3.7-10.2-7.1-13.1s-8.7-4.3-16.1-4.3c-3.5-.1-7.1.3-10.5 1.1-2.4.6-4.8 1.6-6.8 3.1-1.6 1.2-2.9 2.8-3.7 4.6-.7 1.7-1.1 3.5-1.1 5.4 0 4.6 1.2 8 3.7 10.3s6.9 4 13.2 5.3l14.5 2.8c11.1 2.1 19.2 5.6 24.4 10.5s7.8 12.1 7.8 21.4c0 4.2-.8 8.4-2.4 12.3-1.6 3.8-4.2 7.2-7.4 9.8-3.7 3-7.9 5.2-12.4 6.6-5.6 1.7-11.4 2.5-17.3 2.4-13.4 0-24-2.8-31.6-8.5s-11.9-14.4-12.6-26.2z"/><path fill="#9ad4db" d="M367.8 40.7h4v155.4h-4z"/><path fill="none" d="M406.6 62.7h396.1v102H406.6z" clip-path="url(#a)"/><path d="M584.5 141.5c9.4 0 16.3-5 16.3-12.3 0-5.7-3.5-9-11-10.7l-6.6-1.5c-4.3-1-6.3-2.5-6.3-5 0-3.2 3.3-5.3 7.6-5.3 4.4 0 7.2 1.9 8 4.9h7.5c-.8-6.8-6.6-10.9-15.4-10.9-8.9 0-15.3 4.9-15.3 11.8 0 5.8 3.5 9.2 11 10.9l6.9 1.6c4 .9 5.8 2.5 5.8 5 0 3.2-3.4 5.5-8.3 5.5-4.7 0-7.6-1.9-8.6-5h-7.8c.7 6.7 6.8 11 16.2 11zm-40 0c9.7 0 15.8-5.5 16.9-13.2h-7.6c-1 4.3-4.4 6.6-9.3 6.6-6.5 0-10.5-5.3-10.5-14 0-8.5 4-13.7 10.5-13.7 5.2 0 8.4 2.9 9.3 6.8h7.6c-1-7.6-7-13.4-16.9-13.4-11.5 0-18.5 7.8-18.5 20.3 0 12.7 7 20.6 18.5 20.6zm-44.5-6.7c-6.8 0-10.6-5-10.6-13.8s3.8-13.8 10.6-13.8c6.7 0 10.6 5.1 10.6 13.8 0 8.7-3.9 13.8-10.6 13.8zm0 6.7c11.5 0 18.6-7.7 18.6-20.4s-7.1-20.4-18.6-20.4c-11.5 0-18.6 7.8-18.6 20.4 0 12.6 7 20.4 18.6 20.4zm-52.3-7.8h-9.9V95.4h9.9c10.8 0 17.3 7.1 17.3 19.1 0 12.2-6.3 19.2-17.3 19.2zm.9 7c15.6 0 24.6-9.6 24.6-26.3 0-16.5-9.1-26-24.6-26h-18.9v52.3z"/></svg>