<svg xmlns="http://www.w3.org/2000/svg" viewBox="0 0 85.88 69.17"><path d="M84.2,15C75-5.78,45.48-.46,30.1,4.53c-8.1,2.63-16.44,6-23.32,11.69C4.27,18.3,1.47,21.43.36,24.79c-1,2.95,0,5.6,3,5.59,5.84,0,9.64-12.55,15.86-8.83,3.13,1.87-.68,7.18-2.13,8.88-3.85,4.51-8.76,7.76-11.83,13.11a19.44,19.44,0,0,0-2.7,9.61C2.61,64,13,68.71,21.08,69.1A72,72,0,0,0,72.29,50.16C80.65,42.37,89.7,27.37,84.2,15ZM29.46,46.62c0,4.68-2.67,8.21-6.07,8.5s-6.28-3.84-6.28-8.21v-.17c0-4.69,2.68-8.22,6.07-8.5s6.28,3.83,6.28,8.2Z" style="fill:#efc756"/><path d="M46.31,56.83A10,10,0,0,0,53,55.07a6,6,0,0,0,2.18-2.72,4.59,4.59,0,0,0-.19-3.83c-1.09-1.73-3.12-1.06-4.77-1.45-1.48-.34-2.76-1.63-4.23-2-2.36-.53-7.67,2.2-8.5,5.67C36.11,56.38,43.82,56.68,46.31,56.83Z" style="fill:#923a8d"/><path d="M62.35,46.94A10,10,0,0,0,69,45.18a6,6,0,0,0,2.18-2.72A4.56,4.56,0,0,0,71,38.63c-1.09-1.73-3.12-1.05-4.77-1.44-1.47-.35-2.76-1.63-4.23-2-2.35-.52-7.67,2.21-8.5,5.67C52.15,46.49,59.86,46.79,62.35,46.94Z" style="fill:#e71d73"/><path d="M72.57,31.8a8,8,0,0,0,5.25-1.39,4.79,4.79,0,0,0,1.73-2.15,3.69,3.69,0,0,0-.15-3c-.87-1.36-2.47-.83-3.78-1.14s-2.18-1.28-3.35-1.54c-1.86-.42-6.06,1.74-6.72,4.48C64.49,31.45,70.6,31.68,72.57,31.8Z" style="fill:#009444"/><path d="M67.27,15.53c-1-.79-2.33-1.12-2.92-2.47a4.27,4.27,0,0,1,1.16-4.55,5.67,5.67,0,0,1,3.83-1,3.79,3.79,0,0,1,2,.42,9.69,9.69,0,0,1,1.12.93c.91.77,2,1.16,2.9,1.88a4.32,4.32,0,0,1,1.72,3.41c-.09,3.16-2.89,3.23-4.56,3.12A8,8,0,0,1,67.27,15.53Z" style="fill:#27aae1"/><path d="M47.36,6.81a3.39,3.39,0,0,0-.83,3.29,2.63,2.63,0,0,0,1.9,1.43l3,.94a4.23,4.23,0,0,0,1.43.28,4.16,4.16,0,0,0,1.4-.37A6.56,6.56,0,0,0,57.55,10c2.49-3.83-.91-5.93-3.36-6A9.26,9.26,0,0,0,47.36,6.81Z" style="fill:#231f20"/><path d="M32.21,8.73a7.14,7.14,0,0,0-2.11,1.84,2.64,2.64,0,0,0-.59,1.11,2.61,2.61,0,0,0,.92,2.4c1.47,1.29,3.38,1.06,5.12.77a9.29,9.29,0,0,0,4.58-1.62,4,4,0,0,0,1.14-1.38c1.19-2.48-.66-5.41-2.58-5.36a10.08,10.08,0,0,0-2.59,1A23,23,0,0,0,32.21,8.73Z" style="fill:#fff"/></svg>