<svg xmlns="http://www.w3.org/2000/svg" viewBox="0 0 116.98 116.54"><path d="M12.79,110.82l-6.59-.45c-.18-2.2-.36-4.37-.54-6.54q.12-34.62.23-69.23c0-9.09,0-18.19,0-27.82h6.3l92.7-.19,5.52.29c.13,2.13.25,4.13.37,6.13v97.63h-7.11Zm7-90.6v76.3H32.52V32.81H84.68V96.54H97.26V20.22ZM45.7,96.64H71.05V46.12H45.88v12.4H58.22V71.65H45.7Z" style="fill:#271f56"/><path d="M104.9,6.59l-92.7.19H5.9c0,9.63,0,18.73,0,27.82q-.09,34.62-.23,69.23H0V.12H6C36.31.12,66.6.25,96.89,0,102,0,105.17.79,104.9,6.59Z" style="fill:#40c5e8"/><path d="M12.79,110.82l90.89-.18h7.11V13H117V116.54H12.79Z" style="fill:#ee2249"/><path d="M19.78,20.22H97.26V96.54H84.68V32.81H32.52V96.52H19.78Z" style="fill:#fff"/><path d="M45.7,96.64v-25H58.22V58.52H45.88V46.12H71.05V96.64Z" style="fill:#fff"/></svg>