<svg xmlns="http://www.w3.org/2000/svg" viewBox="0 0 723.02 104.28"><path d="M206.54,0h10.18V21H196.31v83H175.48V21.41h-61.4v20h40.47V62.27h-40.7V86.59c0,4.32-.2,8.66.06,13,.21,3.42-.87,4.87-4.42,4.72-5.48-.22-11-.15-16.45-.2-.08-13.31-.23-26.62-.22-39.93,0-21.3.13-42.6.21-63.89L94.5,0c13.78.08,27.55.25,41.32.24C159.4.22,183,.09,206.54,0Z" style="fill:#fff"/><path d="M629.8,104h-62V0h62ZM599.05,21.4h-10V82.87h19.58V21.4Z" style="fill:#fff"/><path d="M546.87,104H485.25V0h61.62Zm-30.43-21.1h9.44V21.4H506.2V82.87Z" style="fill:#fff"/><path d="M319.78,104H258.2V83.16h40.52V62.67H258.2V.06h10.29l51.33.26q0,10.38,0,20.74l-30.65.34h-9.8V41.23h9.8l30.65.34Z" style="fill:#fff"/><path d="M422.9,104H402.33V.3h20.56V41.24h20.38V.26h20.62q.17,51.86.32,103.71H443.32V62.68H422.9Z" style="fill:#fff"/><path d="M41.06,21.42H31.18V104H10.37L10.28.3h0L61.81,0H72V104H51.37V21.42Z" style="fill:#fff"/><path d="M381.93,21.06l-10.32.33H361.53V83.24h20.4V104H340.39V.31h41.55Z" style="fill:#fff"/><path d="M712.64,104H650.75V.32h20.76V83.2h41.13Z" style="fill:#fff"/><path d="M546.87,104V0h10.57V104Z" style="fill:#ee2249"/><path d="M629.8,104V0H640V104Z" style="fill:#ee2249"/><path d="M464.21,104Q464,52.12,463.89.26h10.62V104Z" style="fill:#ee2249"/><path d="M93,.25c-.08,21.29-.2,42.59-.21,63.89,0,13.31.14,26.62.22,39.93H82.75V.25Z" style="fill:#40c5e8"/><path d="M10.28.3,10.37,104H0V.3Z" style="fill:#40c5e8"/><path d="M712.64,104V83.2H671.51V.32h10.07V82.94H723v21Z" style="fill:#ee2249"/><path d="M381.93,104V83.24h-20.4V21.39h10.08V82.7h20.27V104Z" style="fill:#ee2249"/><path d="M41.06,21.42H51.37V104H41.06Z" style="fill:#40c5e8"/><path d="M165.09,21.41h10.39V104H165.09Z" style="fill:#40c5e8"/><path d="M319.78,104V41.57h10.14V104Z" style="fill:#ee2249"/><path d="M422.9,104V62.68h11q-.21,16.16-.42,32.3c0,2.8,0,5.6,0,9Z" style="fill:#ee2249"/><path d="M433.58,41.24H422.89V.3h10.69Z" style="fill:#ee2249"/><path d="M381.93,21.06V.31h10V21.06Z" style="fill:#ee2249"/><path d="M319.78,21.06q0-10.36,0-20.74h10.1V21.06Z" style="fill:#ee2249"/><path d="M289.13,41.23h-9.8V21.4h9.8Z" style="fill:#ee2249"/><path d="M599.36,82.87H589.08V21.4h10c0,9.42-.12,18.85-.06,28.28C599.05,60.74,599.23,71.81,599.36,82.87Z" style="fill:#ee2249"/><path d="M516.44,82.87H506.2V21.4h9.92c0,9.42-.11,18.85-.06,28.28C516.12,60.74,516.31,71.81,516.44,82.87Z" style="fill:#ee2249"/></svg>