<svg xmlns="http://www.w3.org/2000/svg" viewBox="0 0 332.39 66.22"><rect width="332.39" height="66.22" style="fill:none"/><path d="M18.69,59.78V58.41l1.88-.52a2.56,2.56,0,0,0,1.73-1.24,4.57,4.57,0,0,0,.49-2.21V22.9a14.09,14.09,0,0,0-1-1.86A8.23,8.23,0,0,0,20.9,20a11.94,11.94,0,0,0-1.24-1l-1.17-.85V16.7H29.63L51.27,46.29V22.11a5.73,5.73,0,0,0-.42-2.28,2.37,2.37,0,0,0-1.73-1.3l-2-.46V16.7h9.71v1.37l-1.63.46a2.12,2.12,0,0,0-1.53,1.34,7.76,7.76,0,0,0-.29,2.24V60H49.77L24.94,25.89V54.37a5.83,5.83,0,0,0,.39,2.28A2.26,2.26,0,0,0,27,57.89l1.76.52v1.37Z" style="fill:#8d3461"/><path d="M60,59.78V58.41l1.24-.32a2.59,2.59,0,0,0,1.69-1.18,5.42,5.42,0,0,0,.46-2.15c0-2.47.07-5,.07-7.52V29.35c0-2.52,0-5-.07-7.56A6.06,6.06,0,0,0,63,19.67a2.34,2.34,0,0,0-1.56-1.14L60,18.07V16.7H91.35l.45,11H90l-3.39-6.45a6.59,6.59,0,0,0-1.43-1.93,3.39,3.39,0,0,0-2.28-.68h-10q-.06,4.36-.09,9c0,3.06,0,6.12,0,9.16H79a3.11,3.11,0,0,0,2.22-.69,7.3,7.3,0,0,0,1.36-1.92l1.31-2.41h1.43V43.68H83.92l-1.31-2.34a8.61,8.61,0,0,0-1.4-2A3,3,0,0,0,79,38.67H72.77v8.24c0,2.63,0,5.2.07,7.72A3.09,3.09,0,0,0,75.25,58l2,.45v1.37Z" style="fill:#8d3461"/><path d="M104.38,59.78V58.41l2.61-.52a3,3,0,0,0,2.73-3.19V27.78q0-4.56-.06-9.12h-5.15a3.87,3.87,0,0,0-3.06,1.11,14,14,0,0,0-2,3.13l-2.28,4.82H95.39l.32-11h37.41l.32,11h-1.82l-2.28-4.82a13.6,13.6,0,0,0-2-3.13,3.87,3.87,0,0,0-3.06-1.11h-5.21v36a3,3,0,0,0,2.74,3.19l2.67.52v1.37Z" style="fill:#8d3461"/><path d="M155.81,60.89a31.46,31.46,0,0,1-7.26-.88,23.21,23.21,0,0,1-6.16-2.31l.39-9.06h1.89l2,4.49a17,17,0,0,0,1.89,3.13,6.05,6.05,0,0,0,2.61,1.89,9.23,9.23,0,0,0,2.11.62,14.17,14.17,0,0,0,2.25.16,9.13,9.13,0,0,0,6.29-2,6.92,6.92,0,0,0,2.31-5.44,6.92,6.92,0,0,0-1.59-4.82,15.82,15.82,0,0,0-5.12-3.39l-2.67-1.18a27.65,27.65,0,0,1-8.64-5.6A11.54,11.54,0,0,1,143,28a11.19,11.19,0,0,1,2-6.68A12.72,12.72,0,0,1,150.47,17a20.78,20.78,0,0,1,8.21-1.5,22.65,22.65,0,0,1,6.48.91,19.13,19.13,0,0,1,5.31,2.48L170,27h-1.89l-2.41-4.89a11.85,11.85,0,0,0-2-3.09,4.39,4.39,0,0,0-2.31-1.21c-.52-.08-1-.15-1.34-.19a11.61,11.61,0,0,0-1.47-.07,8.49,8.49,0,0,0-5.5,1.86,6.21,6.21,0,0,0-2.32,5.11,7.34,7.34,0,0,0,1.76,5.09,15.2,15.2,0,0,0,5.09,3.45l2.93,1.24q6.31,2.73,9.06,5.83a11.54,11.54,0,0,1,2.73,7.92A11.44,11.44,0,0,1,168,57.34Q163.7,60.9,155.81,60.89Z" style="fill:#007732"/><path d="M191.59,60.69a16.71,16.71,0,0,1-8-1.92,13.86,13.86,0,0,1-5.63-5.6,18.18,18.18,0,0,1-2.06-9,16.9,16.9,0,0,1,2.28-9,15.55,15.55,0,0,1,6.1-5.7,17.76,17.76,0,0,1,8.37-2A14.68,14.68,0,0,1,199,28.76a10,10,0,0,1,4,3.16A6.92,6.92,0,0,1,204.3,36a3.61,3.61,0,0,1-1.08,2.81,4,4,0,0,1-2.77,1,3.73,3.73,0,0,1-3-1.3,5.75,5.75,0,0,1-1.34-3.32,15.77,15.77,0,0,1,0-2.22,6.46,6.46,0,0,0,0-1.76,2.29,2.29,0,0,0-.88-1.5,3.24,3.24,0,0,0-1.73-.39,7.09,7.09,0,0,0-6.28,3.29q-2.19,3.3-2.19,10.66,0,6.32,2.41,9.71t7.5,3.39a9.7,9.7,0,0,0,5-1.14,12.43,12.43,0,0,0,3.59-3.3l1,.79a12.36,12.36,0,0,1-5,6A15,15,0,0,1,191.59,60.69Z" style="fill:#007732"/><path d="M206.45,59.78v-1.3l.84-.26A3.09,3.09,0,0,0,209.64,55V21.4a3.79,3.79,0,0,0-.45-2.06,2.94,2.94,0,0,0-1.76-1l-1-.26V16.83l11-2.8,1,.59-.26,9.19v8.34a26.63,26.63,0,0,1,5-3.26,12.76,12.76,0,0,1,5.83-1.37,9.23,9.23,0,0,1,6.75,2.41q2.44,2.41,2.44,7.43V55a3.7,3.7,0,0,0,.52,2.09,3.21,3.21,0,0,0,1.83,1.17l.58.2v1.3H226.32v-1.3l.79-.26A3,3,0,0,0,229.45,55V36.12a5.71,5.71,0,0,0-.91-3.71,4.06,4.06,0,0,0-3.19-1,10.2,10.2,0,0,0-3.29.58,13.81,13.81,0,0,0-3.62,2V55.09a3.66,3.66,0,0,0,.52,2.08,2.86,2.86,0,0,0,1.76,1.11l.59.2v1.3Z" style="fill:#007732"/><path d="M260.08,60.69a17,17,0,0,1-8.44-2,13.93,13.93,0,0,1-5.6-5.73,18.49,18.49,0,0,1-2-8.86,17.64,17.64,0,0,1,2.12-8.87,14.67,14.67,0,0,1,5.73-5.7,17.81,17.81,0,0,1,16.36,0A14.73,14.73,0,0,1,274,35.18a17.48,17.48,0,0,1,2.12,8.9,18.67,18.67,0,0,1-2,8.89,13.77,13.77,0,0,1-5.57,5.74A17.24,17.24,0,0,1,260.08,60.69Zm0-1.82a5.62,5.62,0,0,0,3.81-1.27A7.86,7.86,0,0,0,266,53.13a47.51,47.51,0,0,0,.65-8.92,48.61,48.61,0,0,0-.65-9,7.89,7.89,0,0,0-2.12-4.5,5.62,5.62,0,0,0-3.81-1.27,5.54,5.54,0,0,0-3.78,1.27,8.29,8.29,0,0,0-2.12,4.5,46.5,46.5,0,0,0-.68,9,45.45,45.45,0,0,0,.68,8.92,8.25,8.25,0,0,0,2.12,4.47A5.54,5.54,0,0,0,260.08,58.87Z" style="fill:#007732"/><path d="M295.73,60.69a17,17,0,0,1-8.44-2,14,14,0,0,1-5.61-5.73,18.6,18.6,0,0,1-2-8.86,17.64,17.64,0,0,1,2.12-8.87,14.69,14.69,0,0,1,5.74-5.7,17.79,17.79,0,0,1,16.35,0,14.68,14.68,0,0,1,5.74,5.67,17.58,17.58,0,0,1,2.12,8.9,18.67,18.67,0,0,1-2,8.89,13.83,13.83,0,0,1-5.57,5.74A17.27,17.27,0,0,1,295.73,60.69Zm0-1.82a5.65,5.65,0,0,0,3.81-1.27,7.92,7.92,0,0,0,2.12-4.47,47.51,47.51,0,0,0,.65-8.92,48.61,48.61,0,0,0-.65-9,8,8,0,0,0-2.12-4.5,5.65,5.65,0,0,0-3.81-1.27A5.5,5.5,0,0,0,292,30.68a8.15,8.15,0,0,0-2.12,4.5,45.58,45.58,0,0,0-.69,9,44.55,44.55,0,0,0,.69,8.92A8.12,8.12,0,0,0,292,57.6,5.5,5.5,0,0,0,295.73,58.87Z" style="fill:#007732"/><path d="M314.56,59.78V58.54l1-.26A3.07,3.07,0,0,0,317.69,55c0-1.47,0-3,0-4.46s0-3,0-4.47V21.33a3.75,3.75,0,0,0-.45-2,2.86,2.86,0,0,0-1.76-1l-1-.26V16.77L326,14l.85.59-.26,9.19V55a4.43,4.43,0,0,0,.56,2.12,2.7,2.7,0,0,0,1.72,1.14l.91.26v1.24Z" style="fill:#007732"/></svg>