<svg xmlns="http://www.w3.org/2000/svg" viewBox="0 0 602.86 700"><defs><clipPath id="a"><path fill="none" d="M66.5 486.2V231.23l33.46-19.38 42.72 146.65V179.27l38.75-22.46v395.01l-26.86-14.97-55.93-210.94v178.35L66.5 486.2z"/></clipPath><clipPath id="c"><path fill="none" d="M213.14 570.31V133.47l90.27-53.72 109.21 64.73-21.57 33.91-87.64-53.73-54.16 29.07v174.38h132.99v43.6H248.81l1.32 222.38-36.99-23.78z"/></clipPath><clipPath id="d"><path fill="none" d="M457.98 539.05V218.46l-47.56-30.83 19.82-30.82 117.58 74.42v44.92l-49.77-35.23v274.79l-40.07 23.34z"/></clipPath><radialGradient id="b" cx="243.56" cy="345.73" r="263.95" gradientTransform="matrix(.89 0 0 1 89.84 -7.63)" gradientUnits="userSpaceOnUse"><stop offset="0" stop-color="#42cba6"/><stop offset="1" stop-color="#22a7c0"/></radialGradient></defs><g clip-path="url(#a)"><path fill="url(#b)" d="M66.5 79.75h481.32V594.1H66.5z"/></g><g clip-path="url(#c)"><path fill="url(#b)" d="M66.5 79.75h481.32V594.1H66.5z"/></g><g clip-path="url(#d)"><path fill="url(#b)" d="M66.5 79.75h481.32V594.1H66.5z"/></g><path d="M302.53 0L0 176.19V525l302.53 175 300.33-174.6V175.75zm264.66 504.7L301.43 658.39 35.67 504.7V195.56L301.43 43.64l265.76 152.8z" fill="#20a4c3"/></svg>