<?xml version="1.0" encoding="utf-8"?>
<!-- Generator: Adobe Illustrator 25.2.3, SVG Export Plug-In . SVG Version: 6.00 Build 0)  -->
<svg version="1.1" id="Layer_1" xmlns="http://www.w3.org/2000/svg" xmlns:xlink="http://www.w3.org/1999/xlink" x="0px" y="0px"
	 viewBox="0 0 780.6 235.3" style="enable-background:new 0 0 780.6 235.3;" xml:space="preserve">
<style type="text/css">
	.st0{fill:#3E9098;}
</style>
<g>
	<path class="st0" d="M86.1,167.3H64.6L22.8,98.7v68.6H1.3V63.1h21.5l41.9,68.7V63.1h21.4V167.3z"/>
	<path class="st0" d="M167.5,124.7h-41.2v42.6h-21.5V63.1h67.9v17.4h-46.4v26.9h41.2V124.7z"/>
	<path class="st0" d="M265,80.4h-31.9v86.8h-21.5V80.4h-31.5V63.1H265V80.4z"/>
	<path d="M317.6,159.4c-5.1,6.2-12.2,9.3-21.2,9.3c-8.3,0-14.6-2.4-19-7.2c-4.4-4.8-6.6-11.8-6.7-21V89.8h20.7v50.1
		c0,8.1,3.7,12.1,11,12.1c7,0,11.8-2.4,14.5-7.3V89.8h20.8v77.4h-19.5L317.6,159.4z"/>
	<path d="M378,70.8v19h13.2V105H378v38.7c0,2.9,0.5,4.9,1.6,6.2c1.1,1.2,3.2,1.9,6.3,1.9c2.3,0,4.3-0.2,6.1-0.5v15.7
		c-4.1,1.2-8.2,1.9-12.5,1.9c-14.5,0-21.9-7.3-22.2-22V105H346V89.8h11.3v-19H378z"/>
	<path d="M397.4,127.8c0-7.7,1.5-14.5,4.4-20.5c3-6,7.2-10.7,12.8-14c5.6-3.3,12-4.9,19.4-4.9c10.5,0,19,3.2,25.6,9.6
		c6.6,6.4,10.3,15.1,11.1,26.1l0.1,5.3c0,11.9-3.3,21.4-10,28.6c-6.6,7.2-15.5,10.8-26.7,10.8c-11.2,0-20.1-3.6-26.7-10.7
		c-6.7-7.2-10-16.9-10-29.2V127.8z M418.1,129.3c0,7.4,1.4,13,4.2,16.9c2.8,3.9,6.7,5.8,11.9,5.8c5,0,8.9-1.9,11.7-5.8
		c2.8-3.8,4.2-10,4.2-18.5c0-7.2-1.4-12.8-4.2-16.8c-2.8-4-6.8-5.9-11.9-5.9c-5.1,0-9,2-11.7,5.9C419.5,114.9,418.1,121,418.1,129.3
		z"/>
	<path d="M527.1,109.2c-2.8-0.4-5.3-0.6-7.4-0.6c-7.8,0-13,2.6-15.4,7.9v50.7h-20.7V89.8h19.5l0.6,9.2c4.2-7.1,9.9-10.7,17.2-10.7
		c2.3,0,4.4,0.3,6.4,0.9L527.1,109.2z"/>
</g>
</svg>
